<svg width="352" height="352" fill="none" xmlns="http://www.w3.org/2000/svg"><path d="M174.282 131.803c.345-.049.381-1.816.183-1.838-.704-.063-.971 1.958-.183 1.838ZM99.531 157.421c.578-.211 4.302.571 4.302-.612 0-.76-3.83-1.76-4.302-1.408.038.506.25.984.599 1.352 0 .373-1.612-.043-1.753.352a.85.85 0 0 0 1.154.316Z" stroke="gray" stroke-miterlimit="10"/><path d="M133.316 180.71c-1.562.084-3.069-1.922-4.78-2.162-1.52-.211-1.612-.373-2.95.176 1.493-.612-2.407-2.414-2.428-2.421-.655-.176-1.324 1.598-1.915 1.344.119.05.704-1.408.105-1.957-.598-.549-1.661.775-1.717.739.098.057 1.668-3.928-.247-4.97-1.844-1.211-3.358-.985-5.033-1.823-1.563-.789-1.704-2.725-3.901-2.584.895-.056-1.731-2.344-1.006-2.056-1.169-.464-3.429.521-4.928.184-.599-.127-.986-1.662-1.852-1.662-1.323 0-.964 2.373-1.175 2.816-.613 1.345-.859-3.52-.24-3.126-.443-.281-3.52 1.859-3.865 2.112-.704.521-.971 1.535-1.69 1.746 1.212-.359-3.871-.922-2.815-.521-3.218-1.225-1.746-1.64-2.62-4.477-.253-.803.585-1.183-.098-1.915-.683-.732-3.393-.845-4.224-.31-.591.324.078-2.224.338-2.492 1.05-1.063 1.408-3.52-.24-3.576-2.696-.071-1.365 2.316-3.04 3.147-5.041 2.506-5.266-4.583-5.105-7.561.275-5.245 4.055-3.823 7.21-3.457-.831-.099-.127-1.352.83-1.408a7.465 7.465 0 0 1 2.598.57c1.591.472 1.19 0 2.372 2.007.465.802.648 2.816 1.69 3.147.091 0-.056-7.336.542-8.216.753-1.112 2.556-2.492 3.126-3.224 1.302-1.669.05.211.211-1.725 0-.204-.52-2.964.366-2.964-.345 0 .303 2.591.268 2.612.887-.613.31-1.514.352-2.211 0-.556 2.872-1.506 3.104-2.013.099-.211-1.373 0-1.373-.043 0-.746 2.31-.619 2.648-.851a6.883 6.883 0 0 1 .978-2.69c1.042-1.077 3.64-.837 4.442-2.485-.098.204.345 1.021.901.859-2.048.599-3.027 1.69-.57 1.324 1.253-.19 3.154-1.408 4.09-2.112.057-.043-.429-.648-.359-1.07-.042.267-1.548 1.457-1.9 1.408-2.394-.437-1.254-2.042-2.183-2.662-.247.119-.522.17-.795.148-.254-.859 2.893-1.506-.134-1.901-2.112-.274-3.133 2.767-4.569 2.767.704 0 3.879-3.858 5.379-4.224.598-.197 9.046-.809 8.342-2.675a6.095 6.095 0 0 0-.598-.303c-.585-.542 1.527-1.077-.817-1.351a2.896 2.896 0 0 1-.063-.782c-.226-.155-2.591.824-2.591.817-.183-.859 2.189-.958 2.457-1.408 0 .035-5.076-2.429-4.618-3.034.936-1.211.929.14.323-1.739-.169-.514-2.428-3.682-2.267-3.83-1.098.993-.478 3.252-2.393 3.259-2.112 0-1.908-2.421-1.908-3.808 0-.613-5.245-2.176-5.632-2.161-2.964.077-1.746.267-1.929 2.618-.035.402-.472 2.07-.43 2.31.353 1.823 1.86 2.407.937 4.744-.282.704-1.964.909-2.112 1.324-.162.556.655 1.119.528 1.781-.05.268.275 2.781.106 2.703-1.12-.528-.627.514-1.88-.605-1.408-1.26-.43-3.083-1.253-4.041-.324-.387-4.414-1.936-5.323-2.351a5.678 5.678 0 0 0-3.942-.62c.36-.056-.338-2.112-.493-2.344-.887-1.507-1.844.169-1.31-2.816.135-.746 3.472-4.33 3.52-4.224 0-.148-2.73-1.169-2.71-1.218.38-.908 2.697 1.619 3.33-.289-.288.88 3.668-.859 2.683-1.57-.416-.295-2.739 0-2.598-1.09-.092.703 4.977.985 2.964-.81-.07-.064 1.844 0 2.231 0 .268 0-.704-.93-.64-1.021.288-.289 1.302 1.408 2.633-.07 1.028-1.148-.535-1.268-.599-2.38 0-.127 1.584-.556 1.056-1.352-.401-.605-2.506-1.33-3.203-1.105-.486.155.176 2.52-1.14 3.288a1.668 1.668 0 0 1-.395-.613c-.556.035.5 2.056-.21 1.725-.712-.331-.775-1.767-.888-1.866-.281-.246-.655-1.154-1.126-1.577-.472-.422-.922 1.57-1.106 1.606-.703.126.092-1.725.141-1.81.324-.605-1.71-.408-1.675-.373-.648-.563.443-.873.556-1.049-.14.225-1.563-2.316-1.563-2.302-.936-2.112-.303 0-.542-2.4.113 1.119 4.35-1.866 2.88-2.352-1.472-.486-3.633-.648-3.964.542-.183.704-.078 3.38-.352 4.456-.092.345-1.246.902-.845 2.274.162.535 3.245 1.232 1.795 2.408a.57.57 0 0 1 .599-.528c.042.092-1.577 3.055-1.408 2.929a21.98 21.98 0 0 1-1.859-1.901c-.084-.155 2.063-.486 2.175-.591.831-.81-1.218-.796-1.218-.916 0-.232 1.099-.091.705-.394a2.429 2.429 0 0 0-3.471.584c-.38.507 3.02 1.803-1.07 2.33-1.866.24-2.626-.703-4.224-1.076-.472-.113-.45-.606-1.303-.705-.295 0-2.323.86-1.703 1.141.45.197 2.112-.943 2.386-.655-1.098-1.204-1.302 3.394-2.013 3.02-.317-.168-.12-1.274-1.084-1.59-1.324-.444-4.323.922-5.309-.163-.478-.52 1.26-.647 1.127-.957-.486-1.126-3.246-1.204-4.224-1.443-.979-.24-1.725-.796-2.62-.894-1.076-.113-1.484.654-2.484.654-.148 0 .204-1.337-.26-1.408-.321.535-.73 1.011-1.212 1.408-.957-.07-.83-2.421-1.97-2.245.774-.12-1.627 1.703-1.465 1.612a31.903 31.903 0 0 1-3.161 1.767c-.598-.035 3.372-2.471 3.365-2.38.042-.478-3.435.993-3.823 1.204-.387.211 0-.612-.704-.373-1.661.599-.478 1.112-.88 1.549.162-.169-10.271-2.457-10.96-2.513-1.022-.085-7.365-.803-7.745-1.24-.704-.76-2.513.05-3.344.958-.669.704-5.632 1.823-5.85 2.9-.507 2.26 4.766 2.683 5.167 3.915 0 .098-5.934-.225-6.59 1.337.226-.535 1.662 1.711 1.81 1.767.704.254 4.308-.521 4.323-.499 1.013 1.006-1.19 2.372-1.732 2.879-.655.605-.704-.373-1.493.655-.464.438-.96.84-1.485 1.203.169-.154 1.197 2.148 1.232 2.176.626.549 2.548.542 2.323.317.605.605-.056 1.872.507 2.168.38.204 1.697.042 2.422.338-.648-.261 1.992-1.148 1.837-.704-.359 1.084-4.689 6.336-5.322 5.632.76.838 8.568-4.435 8.568-5.681a2.106 2.106 0 0 0-.704-.395c-.176-.443 4.224-4.104 4.069-2.682 0-.148-2.626 2.007-2.02 2.563.182.162 3.09-.845 3.52-1.014.429-.169-1.057-1.486 0-1.676.358-.063 1.745.754 1.801.704a.487.487 0 0 0-.62.388c.135.422 6.21.154 6.59.492-.183-.162 3.9 3.366 3.858 2.38a1.653 1.653 0 0 1-.126-1.126c1.943 1.408-.909 1.802-.902 1.717 0 .099 1.479 2.183 1.408 2.204.275-.148-.38-1.887.064-1.725.1.22.14.463.12.704.492.634.577-1.408.513-1.267.106-.275.155 2.689-.154 2.647-.451-.064 2.583-.261 1.69.176.28-.141-1.106-.965-.339-1.028 1.183-.099.254 1-.535 1.07a9.529 9.529 0 0 0 .141 1.725c.24.176 1.324-.845 1.873-.746.549.098.45 2.112.753 2.534.218.303 1.739 1.83 1.936 2.112a16.185 16.185 0 0 0 3.196 2.577c-.106-.085 3.999 3.379 1.739 3.379-.085 0-2.45-6.371-5.076-4.52.55-.387 3.52 3.886 3.724 4.435 1.098 3.154-.704 6.822.521 10.265.838 2.358 3.048 3.851 4.541 5.47a20.468 20.468 0 0 1 2.373 3.59c1.048 1.774 1.28 2.225 1.07 3.239 0 .049 4.73 4.998 4.547 5.132.451-.324-4.688-9.603-4.54-9.624 1.858-.19 2.02 2.718 2.365 3.253.95 1.471 2.682 2.816 3.724 4.181 1.781 2.288 2.02 4.689 3.612 6.336 1.056 1.092 3.52 2.042 4.928 2.485 1.858.592 3.822.036 5.322 1.5.704.655 1.767.704 2.246 1.162 1.316 1.21 1.858.605 3.09 1.872.831.852 1.07 1.633 1.55 2.112.788.775 2.111 2.246 3.3 2.33 1.19.085.81-1.309 1.409-1.168 2.647.626 2.168 4.175 1.098 6.336-1.154 2.358-2.633 2.767-1.33 5.146.091.169-1.289 2.408-1.155 3.105.253 1.323 3.21 5.244 3.9 6.617 1.324 2.605 3.013 2.873 4.886 4.999 1.711 1.943 1.169 3.52.873 6.167-.43 3.879-.542 7.694-1.366 11.454-.331 1.499-3.175 9.307-2.112 10.806.486.704.704-1.964 1.155-2.112.45-.148-.289 5.822-.76 5.491-.247-.176.274-1.936-.374-1.647.592-.26-1.21 2.485-1.218 2.513.07-.774.922.944.958 1.218.056.479 1.042-.317.992.38.07-1.042-2.956 1.197-1.527.979.236-.138.454-.306.647-.5.212-.042-1.492 1.781-.352 1.964.226.035.345-1.168.662-.852.669.669-1.274 2.112-.817 2.662.092.112 1.042-.43 1.225-.05.057.12-.64.662-.528.704.38.141 1.247-.373 1.408.176.162.549-1.69.043-1.056.944.24.338 1.746-1.092 2.028-.155-.077-.268-1.69.845-1.746.915a17.528 17.528 0 0 1 1.985-.458c.141.31-2.203 1.218-2.267.951.07.302 1.408 1.14 1.634.929.366-.373-.486-.19-.183-.584.211-.282 2.013-1.282 2.112-1.549a1.033 1.033 0 0 0-.5.929c.269.049.544.063.816.042-.225-.253-.542 1.183-.457 1.141a1.146 1.146 0 0 1-.373-.81c-.402-.176-.197.845-.254.803a.543.543 0 0 0-.654-.366c.33-.465-.409 1.408-.409.767 0-.359 1.141 1.049 1.113 1.021a2.11 2.11 0 0 0 .316-.76c.607.47 1.239.907 1.894 1.309.352.106-.253-.824-.049-.795.929-.08 1.846-.269 2.731-.564-1.267-.464-2.816-2.717-3.055-2.816-.19-.049-.908.106-.803-.38.106-.486.782.169.958 0 .176-.169-.796-1.668-.591-2.112.316-.704.873-.901 1.232-1.556.478-.873 1.661-1.541 1.731-2.513.064-.767-1.105-.781-1.049-1 .219-.844.761-2.914 1.634-4.012.331-.423 1.457-1.528 1.45-1.535-.275-.232-2.429-.042-1.295-1.753-.359.535 2.569-.465 2.421-.38.402-.233-.056-1.584.148-1.802 1-1.064 4.682.478 5.097-2.359.092-.626-1.633-2.816-1.668-2.774.584-.612 3.308.704 4.808-.887.373-.394 2.239-3.696 2.232-3.597a6.82 6.82 0 0 1-.704 1.373c0-.655 2.189-2.464 2.471-3.225.408-1.084-.085-2.499.478-3.52 1.134-1.985 3.675-1.605 5.083-2.492 1.81-1.147 2.331-2.816 2.887-4.928.345-1.309 0-4.646.704-5.695-.099.211 7.054-7.66 2.583-7.406Z" stroke="gray" stroke-miterlimit="10"/><path d="M98.56 155.281c1.035-1.408-10.666-3.928-9.201-1.795-.704-1.021 4.667.345 4.928.486.872.5 2.998 3.02 4.273 1.309ZM94.829 157.203c.162.303 1.675.704 1.83.352.155-.352-2.027-.732-1.83-.352ZM105.072 157.288c.352.612 1.408.246 1.471 0 .162-.437-1.83-.606-1.471 0ZM110.767 232.658c.479.26 1.471-1.049 1.035-1.134-.437-.084-1.493.888-1.035 1.134ZM111.936 232.749c.317.169 1.627-.429 1.472-.746-.289-.655-1.767.57-1.472.746ZM83.114 175.507c-.401.655.394 1.296.556 1.007.162-.289-.155-1.662-.556-1.007ZM118.885 92.013c.084-1.577-2.331-.81-2.69-.704-.359.105 2.577 2.633 2.69.704Z" stroke="gray" stroke-miterlimit="10"/><path d="M145.946 90.936c-.288.176-3.844-.38-3.865-.317.092-.24 1.289-1.612 1.134-1.669.781.296 3.027 2.964 3.133.493.084-1.443-2.028-1.443-2.338-2.64-.091-.33 2.746.915 2.176-.845-.317-1-3.105.704-2.992-.366-.043.373.964-1.31.788-1.119.887-.979 4.928 2.394 2.316-.993-.105-.133 2.345-.091 2.464-.591.12-.5-2.436-.43-1.858-1.408.704-1.197 2.555.542 1.408-1.908.042.085-2.95-.936-2.492-1.408.457-.472 3.97 0 3.836-.542-.338-1.281-2.076.07-2.217-1.028-.078-.57 1.056 0 1.225-.296.633-1-2.746-.19-2.626-.098-.915-.704 3.745-5.048 3.879-4.865-.852-1.14-1.633.76-2.239.162-.605-.598 3.372-1.098 3.478-1.168.338-.212-2.112-.704-2.232-.543.43-.704 6.167-.64 6.167-2.224 0-2.112-5.442-.085-6.047.112-.479.148-1.169-.471-1.5-.344-1.091.415-2.112 2.189-3.266 2.358 1.147-.169 2.45-2.943.577-3.274-.296-.049-3.464 2.288-3.661 1.584-.155-.556 1.908-.816 1.859-1.28-.099-.986-6.73.555-6.745.407-.098-1.344 9.237-.802 10.173-2.07.521-.703-11.869-2.703-12.989-2.414-.281.07-1.964.669-2.154.704a8.521 8.521 0 0 0-1.168-.063c-2.112.239-4.161.098-6.266.5-.26.049.915.837.901.908-.014.07-1.844.19-1.591.52-.056-.07 2.591 1.88 2.408 1.922-1.486.317-4.224-3.076-5.703-1.978-.366.268 1.092 1.162 1.092 1.366 0 .817-2.985-.93-2.901-.93-.218 0-.134 1.782-.556 2.05 1.288-.803-1.591-1.937-2.042-1.979a2.408 2.408 0 0 0-2.372 1.366c-.669.232-1.655-.577-2.52-.225-.62.253.549 1.295-.31 1.767-.233.126-6.252.274-5.449 2.112.605 1.408 3.858-.064.971 2.295-.788.64-3.069.38-4.062 1.056-4.611 3.147 4.266 1.07 4.175 2.816 0 .197-4.71.204-4.618.64.119.64 3.294 2.112 4.139 2.19 1.711.162 3.351-1.12 5.632 0 2 .964 4.02 2.942 4.618 5.174.704 2.612-.957 2.943 1.782 2.943a15.451 15.451 0 0 0 2.337 2.513c-.099.078-3.055-1.168-3.055-.415 0 1.76 4.125.471 3.027 3.611-.169.465-1.472-.197-1.859.754a4.695 4.695 0 0 0-.464 2.013c-.064 1.267 1.837 5.632 3.238 7.575 1.126 1.542 1.795 1.781 3.386 2.499 2.492 1.12 1.915 1.26 3.323-.823.542-.817-.296-1.606-.077-2.239.112-.331 1.189-.324 1.351-1.035.204-.915.078-2.429.197-2.816a1.83 1.83 0 0 1 .887.12c.12-.07 1.669-2.155 1.852-2.155a.654.654 0 0 1 .12.838c.302.95 3.858-2.217 3.928-2.274 1.359-.985 1.162-1.049 2.372-1.584 2.683-1.147 5.703-2.154 7.885-3.442ZM55.18 80.045c.774-.423.774 0 1.358-.613.165.297.38.564.634.789.922 0 1.295-1.986 1.872-2.112.578-.127.176 1.76 1.507.472.507-.486.394-.937.887-1.479.134-.148-2.816-.05-3.21.085-1.12.394-3.09 2.886-3.049 2.858ZM61.08 79.256c-1.331.106.703.972.66.76-.545.005-1.079.161-1.54.451-.24.338 1.33.211 1.16.275a2.936 2.936 0 0 0-1.597.57c.852 1.246 2.302.063 2.978-.359-.352.218 2.07.817 2.231.57-.232.345-2.506.662-2.47 1.028.126 1.183 4.54-.387 5.195-.704 2.19-.957 2.816-.183 1.802-2.112.092.155-2.365-1.542-2.753-1.338-1.14.592.704 1.774.43 2.19-.655 1.077-2.865-1.211-3.386-1.345-1.345-.281-1.599-.07-2.71.014ZM75.983 88.648c1.612 1.21 3.52-3.316 2.478-3.373a.76.76 0 0 0-.19.95c.112-.238-1.324-.703-1.296-.703-.31-.486 2.049-.93.521-1.964-1.133-.775-1 .661-.978.654.197-.098-3.394-.415-2.253.613.385.107.778.182 1.175.225 1.352 1.176-2.35.542-1.97.472-1.078.225 2.182 2.88 2.513 3.126ZM53.39 87.866c.454.49.879 1.005 1.275 1.542.972 0 1.992-1.408 2.471-1.774 1.253-.936 3.034-1.852 4.302-2.9.471-.388-5.78-2.183-6.597-1.93-2.619.824-.338.261-1.19 1.704-.267.444-1.675 2.767-1.5 2.985.385.205.806.332 1.24.373ZM58.171 80.7c.704.084 1.408-.613 1.408-1.007 0-.394-1.767.964-1.408 1.007ZM100.446 89.408a.767.767 0 0 0 .548-.233.768.768 0 0 0 .212-.555c.169.577-3.006-1.085-3.294-1.183-.704-.24-.26-.887-1.408-1.148-.782-.176-1.979.986-1.943.993-1.056-.373-.613.077-1.81.077-.88 0 .606-4.822-3.217-2.513-2.31 1.408-.394 2.112-.289 3.605 0 .246-1.724-.514-1.654-1.634.063-1.013 1.33-1.922 1.33-2.562 0-1.183-4.16 1.408-4.364 2.351-.275 1.24 1.513 3.717 2.245 2.746-.19.246-1.95-.233-1.9.232.253 2.541 9.412.957 9.61 1.471a1.057 1.057 0 0 1-.465-.704c.126-.422 3.224 1.922 3.245 2.112a2.549 2.549 0 0 0-.88.831c.591.493 1.246-.5 2.232.521 1.112 1.155 1.091.915 1.358 2.668.057.366 3.366-.704 2.767.824-.598 1.528-1.478-.394-1.915-.254-.436.141-1.57.184-2.175.367.046.391.17.77.366 1.112-.936.458-2.457.05-3.175.704-2.64 2.26 2.816.887 3.57 1.126.753.24 5.314 5.815 6.497 4.224.296-.408-2.006-2.9-2.436-2.816 1.746-.507 4.309 2.38 3.394-.542-.409-1.302-3.52-2.309-2.155-3.935.564-.704 2.915 2.203 3.309 2.19 0 0 2.309-2.422 2.309-2.408 0-1.62-6.378-2.493-6.174-4.063.388-.177.806-.28 1.232-.302a2.04 2.04 0 0 0-1.035-.57c-.105-.965 1.021-.916-.598-.916 1.176 0-1.626-1.274-1.732-1.316-.331-.106-1.605-.5-1.605-.5ZM45.668 116.09c-.739.429.923 2.464 1.366 2.161.134-.099-.281-2.795-1.366-2.161ZM72.118 81.573c.274-.352-.599-1.092-.838-.48-.24.613.528.838.838.48ZM93.631 104.995c.282-.05.838-1.141.12-1.099-.718.043-.549 1.162-.12 1.099Z" stroke="gray" stroke-miterlimit="10"/><path d="M97.617 95.688c2.175-.402-2.112-1.972-1.408-1.366.471.387-1.211 1.844 1.408 1.366ZM90.112 104.03c.64.437 1.59-.739 1.513-1.091-.077-.352-2.267.549-1.513 1.091ZM82.473 81.664c.366 1.126 9.469 1.591 10.525.824 4.224-3.049-8.92-1.521-8.744-2.514.202-.265.439-.502.704-.704.324-.429-7.146-1.936-6.575-1.049 1.57 2.394 3.04.134 4.09 3.443ZM73.315 91.45c.211-.275 1.232.563 1.274-.043 0-.43-3.034-2.59-3.302-3.28a16.31 16.31 0 0 1-.204-2.816c.36-.324.324-.704-.12-1.021a1.647 1.647 0 0 0-1.752.436c.418.296.793.649 1.112 1.05 0-.205-1.992-.923-2.19-.529-.281.564.909 2.605.528 2.816-.07 0-2.689-2.942-2.816-2.273.279.236.516.517.704.83 0 .106-1.45.042-1.372.247-1.05-2.774-1.915.549-2.866-.345-.098-.099 1.634-1.408-.408-1.408-.788 0-2.816 1.133-3.076 1.795-1.183 2.816 1.47.746 2.583 1.605.057.042-2.351.669-2.351 1 0 1.478 5.695-.148 5.695 1.098 0 .303-5.132 0-4.928.83.528 2.296 7.04 1.838 8.364 1.655.692-.171 1.4-.268 2.112-.289.443 0 4.09 1.253 3.653-.232-.352-1.162-1.19.352-1.478-.436.238-.276.522-.51.838-.69ZM107.579 121.51c.077.345 2.393 1.408 2.471.916.077-.493-2.542-1.218-2.471-.916ZM84.48 76.504c-.704-.395-1.619.436-.873.746.662.26 1.62-.352.873-.746ZM78.291 75.94c4.689 0-.845-2.611-1.154-2.111-.31.5.605 2.112 1.154 2.112ZM78.77 71.61c.043 0 3.696 1.712 3.52 1.134.099.296-1.682.704-1.59.831 1.168 1.288 3.005 2.112 4.66 1.662.112 0 3.442-3 3.344-2.493-.134.704-2.457-2.351-2.584-2.45-.127-.098-5.062-2.689-5.54-2.323a.704.704 0 0 0 .59.514c0 .275-1.21.056-1.323.282.226.178.444.361.655.549-.24.465-1.633-.225-1.584.704a2.99 2.99 0 0 0 1.091.824c.028.492-2.64 0-1.239.767ZM92.64 84.325c-1.008 2.38 4.061 1.83 4.061 1.31 0-.796-3.773-1.986-4.062-1.31ZM81.524 76.159c-.085-.268-3.105.133-2.633.52.795.655 2.71-.26 2.633-.52ZM63.148 76.11c.205-.522-1.316-.437-1.19-.261.275.394.993.788 1.19.26ZM80.643 80.876c-.64-.529-2.534.739-2.274.957 1.035.88 4.618.972 2.274-.957ZM71.442 77.377c.317-.437-1.282-1.83-1.359-1.176-.077.655 1.02 1.64 1.359 1.176ZM74.948 78.144c-.95-.401.401 1.408.253 1.408a3.52 3.52 0 0 0-1.513-.704c-.338.275.492 1.105.218 1.239-.43.204-1.479-1.81-2.07-1.844-1.267-.07.45 1.802.507 1.837 1.063.64 1.9.148 2.964.436-.148-.042 1.176 3.373 2.422.352.908-2.231-1.697-2.287-2.781-2.724ZM66.458 75.891c.704-.112-2.816-.95-2.816.394-.014 2.281 2.823-.394 2.816-.394ZM64.507 75.06c.324.148 2.591.12 2.591-.344 0-1.697-3.76.183-3.668.26.354.078.716.106 1.077.085ZM76.616 71.653c.282-.52-1.675-.936-1.19-.479.275.26.916 1.007 1.19.48ZM71.16 73.709c.642-.211 1.043 0 1.198.612-.078.19-1.479.134-1.408.26.07.127 7.666 3.12 3.787-.703a4.034 4.034 0 0 0-1.837-.993c-3.429-.422-1.458.62-1.74.824ZM92.999 101.629c.077-.457-3.893-3.175-4.105-3.147-.38.05-2.231 2.535-1.992 3.323.24.789 6.132-.387 6.097-.176Z" stroke="gray" stroke-miterlimit="10"/><path d="M83.593 67.288c1.408-1.013.246.423.26.444.286.012.57.057.845.134-1.591 1.865 2.97 1.563 2.95 1.21.204 2.901 5.815-.971 6.49-.492 1.296.922-3.407 1.83-3.294 1.985 0 0 1.514 1.281 1.323 1.288-.894.07-5.568-3.252-4.78-.295.183.704 3.858 2.112 3.858 2.76 0 0-4.632-1.409-4.745.612-.07 1.253 2.556-.225 2.584-.148-.409-.908.408 2.816.408 2.112 0 .845-3.59-2.197-3.442-.521a7.84 7.84 0 0 0 1.056.817c0 .288-3.084.542-2.359 1.274.83.852 10.201 1.112 10.673 0 .471-1.112-3.52-.83-3.696-1.127.556.873 3.52-1.584 3.752-1.696 1.493-.824 2.112.387 2.9-1.943.233-.704-2.583-.704-2.555-.704 1.64-1.162 3.802-.704 5.294-1.408.908-.45 6.287-3.232 6.336-3.64.049-.408-2.52-.106-2.668-.169 1.239.542 5.632-2.38 5.702-2.365-.352-.113-5.449-1.845-5.533-.535.202-.308.488-.552.824-.704-1 .394-6.005.126-6.681.162-2.295.12-4.513-.303-6.533.253-.409.113-9.8 3.196-9.976 2.816a.887.887 0 0 0 1.007-.12ZM115.456 119.68a4.93 4.93 0 0 0-1.915 2.211c-.098.211-1.851 1.971-1.14 2.393 1.612.944 3.097-1.408 3.266.704-.056-.704 2.338.261 2.443.056-.042.092-.704-1.83-.387-1.689.429.197-3.175-2.295-3.126-1.88.128-.662.423-1.28.859-1.795ZM14.58 116.864c.479-.218.704-.486.479-.746-.226-.261-.845.929-.479.746ZM17.966 114.907c-.556-.218-1.12.669-1.197.662-.24-.043 1.732-.444 1.197-.662ZM27.372 110.056c-.916 1.155-1.669 3.365.281 1.408.289-.295.711-2.654-.281-1.408ZM15.376 107.198c-.373-.225-.641-.12-.796.303a1.236 1.236 0 0 0 1.253.415c1.352-.493-.464-.795-.457-.718ZM168.961 133.873c-.064-.493-.979.147-.782.288.401.303.852.204.782-.288ZM189.193 138.822c0-.324-2.577 0-2.52 0-.331-.028 2.597.845 2.52 0ZM195.93 139.188a8.49 8.49 0 0 1 .662-.838 8.3 8.3 0 0 0-2.042.704c-.352.676 1.458.598 1.38.134ZM152.219 100.841c2.816-.155.169-4.456-1.183-3.668-.31.176-2.295 1.281-2.654 1.176a.7.7 0 0 0-.634-.486c-1.767 2.112.064-.605-2.372-.605-.507 0 .26.704.126.704-.492-.057-1.239-.205-1.358.704-.057.4 2.027.31 1.95.232-.078-.078-.204.746-.134.704-.056.035-1.668.07-1.528.359.05.099 1.472.148 1.718.436.451.521-.486 1.169-.584 1.063 1.703 1.887 4.829-.513 6.653-.619ZM157.492 119.251c2.365 0 3.013-1.704 2.78-3.52-.077-.62 1.19-.704-.232-1.486a5.56 5.56 0 0 0-1.858.394c-.043 1.268.091.148-1.261.887-.042.043-.014 3.725.571 3.725ZM164.736 107.423c.225-.246.492-1.196.148-1.091-.345.106-.24 1.197-.148 1.091ZM160.201 109.711c-.176-.19-.866.88-.598.873.267-.007.767-.683.598-.873Z" stroke="gray" stroke-miterlimit="10"/><path d="M159.977 111.021c.865-.76.049 2.921.049 2.45 0-.662 1.14.324 1.014.345.249-.194.429-.463.514-.768.401.064-.261 1.577-.254 1.676.078.591 1.521-.373 1.605-.218.951 1.654-.76 2.344-.704 3.435a1.266 1.266 0 0 0-.985 1.035c.727.176 1.47.285 2.217.324.049.267-3.133.922-2.351 1.964 0 0 5.716-1.253 6.054-1.598.338-.345-.584-.127-.556-.373.155-1.148 1.056-.613.556-1.866a3.263 3.263 0 0 1-1.112-.873c-.641-1.084-1.267-3.414-2.816-3.301 0 0 1-1.662.894-1.922-.436-1.113-1.26.154-1.88-.592-.211-.246 1.275-1.239.838-1.647-.303-.338-3.02 1.873-3.083 1.929ZM176.26 114.618c-.169-.042 2.253-.654 1.098-1.443-.985-.676-1.196 1.422-1.098 1.443ZM182.702 110.528c-.507 0-.704 1.098-.613 1.281.092.183 1.112-1.323.613-1.281ZM185.518 110.204c.356-.15.674-.379.93-.669.647-.718-1.929.725-.93.669ZM186.271 108.923c.106-.218-.767-.12-.57.077a.37.37 0 0 0 .57-.077ZM182.371 71.02c.753.647 2.225-.099 3.161.485-.035 0-1.88.704-1.873.704.458 1.183 7.04.578 6.597-1.246-.056-.218-4.294-.816-4.125-.873a.795.795 0 0 0-.155.958c-.352.26-2.056-1.14-2.436-1.091a2.813 2.813 0 0 0-.577.788l-.704-.528c-.754-.007-.001.711.112.802ZM176.852 72.794c-1.352-.317.704 2.112 1.028 2.273.626.36 1.126-1.161 1.577-1.337.45-.176-.191.83.246.802a3.49 3.49 0 0 1 .957-.408c.388.606-2.816 1.774-2.386 1.887.809.204 1.682-.324 2.52-.12a13.25 13.25 0 0 0-2.471.789c-.077.788 1.408.753 1.774.894a.605.605 0 0 1-.436.373c-.204.274 1.119.408 1.33.281.513-.674.983-1.379 1.408-2.111.162-.205 1.443-3.274 2.239-2.014-.211-.338.324 2.675.035 2.619.338.07 3.379.584 3.26-.83.063.703-3.147-2.345-3.091-2.303-1-.817-2.492-.95-3.203-1.126.415.098-.662-1.338-1.176-1.507-.746-.246.169 2.654.219 2.422.704-2.985-2.077-.64-2.056-.648-.251-.263-.53-.5-.831-.704.236-.136.49-.24.753-.31-.232.092-5.139.282-1.696 1.078ZM176.035 74.56c.193.184.405.344.634.48-.296 0-.62-1.528-1.197-1.352a.762.762 0 0 0 .563.873ZM335.983 102.242a1.552 1.552 0 0 0-1.112.373c.176.218 2.76.824 2.76.239a2.518 2.518 0 0 0-1.648-.612ZM292.16 129.677c-.134-.887-2.112 2.914-1.12 2.365-.176.099.831-.563.803-.415a7.874 7.874 0 0 0-.528-.704c0 .211 5.73.162 5.442-2.33.155 1.351-4.794-.887-4.224-1.275.056-.049-.373 2.218-.373 2.359ZM281.557 141.94c.282.571.549-.795.704-.112 0 .098-.38 2.154.282 2.006.542-.119 1.52-2.077.704-2.429-.24-.077-2.408-.908-1.69.535ZM284.718 141.708c.197-.866 1.408.162 1.408-1.197 0-.704-1.408 0-1.478.127-.232.43-.127 1.915.07 1.07Z" stroke="gray" stroke-miterlimit="10"/><path d="M286.684 138.766s-4.379.197-4.041 1.731c.042.197 3.689-.345 3.949-.401-.817.19.781.577.972.563.619-.049.147-.901.26-.971.704-.43 2.816.38 3.52-.599.563-.767 1.844-6.047.852-6.617-1.246-.704-1.866 3.294-2.45 4.111-.472.648-2.929.824-3.062 2.183ZM264.077 156.851c.185-.376.345-.764.479-1.161-.106-.402-2.359-.099-1.901.767.049.106 1.345 1.866 1.422.394ZM273.398 153.331c.436-.331 1.464-2.555 1.119-3.062-1.154-1.683-2.07 3.815-1.119 3.062ZM272.575 159.414c-.613 2.027 5.934 4.738 4.583 6.293 2.175-2.499-2.499-3.52-2.978-4.66-.479-1.141 1.682-2.774 0-3.752-1.127-.669-1.577 2.034-1.605 2.119ZM271.434 165.764a5.625 5.625 0 0 0-1.14 1.633c-.113-.218 2.302-1.739 1.858-2.71a1.49 1.49 0 0 0-.718 1.077ZM273.082 162.385c.077.408.267 1.253.851 1.049.585-.205-.908-1.338-.851-1.049ZM276.827 165.884c-.212-.289-.74.246-.662.464.077.218.873-.204.662-.464ZM277.707 166.376s-3.872 2.514-3.217 2.45c.654-.063.922-.978 1.591-.507.668.472.26 1.993 1.541 1.993-.957 0 1.021-2.049.93-1.69a2.163 2.163 0 0 0-.845-2.246Z" stroke="gray" stroke-miterlimit="10"/><path d="M274.518 163.87a.972.972 0 0 0 .049 1.345c1.669-.366-.584 1.267.704 1.57 1.106.267 1.183-3.337-.753-2.915ZM301.347 180.618c0 1.155-2.964.437-3.006.789-.162 1.675 4.562.056 3.591-1.162-.324-.098-.521.021-.585.373ZM302.544 180.506c.796-.233-.619-1.239-.788-1.282.26.057.528 1.352.788 1.282ZM297.44 182.54c.704.049-2.288-2.492-2.978-2.886-1.549-.88-4.555-2.246-6.104-2.155-.45 0-1.077 1.409-1.626 1.31-1.105-.204-.472-1.408-1.26-1.711-.704-.274-.704-1.028-1.894-.852-.204.036-1.359.944-.95 1.035.225.05 2.562 1.352 2.576.951 0 .183-1.408.176-1.562.197-.648.119 2.435 1.633 2.632 1.725 1.359.661 2.345.521 3.133 1.907.789 1.387-1.105 1.31-.788 1.936.584 1.148 4.878.134 5.336.141 1.253 0 1.232-.042 2.816.739-.042 0 3.851 1.943 3.436 1.254-.191-.275-3.549-3.633-2.767-3.591ZM237.832 166.088c-.577.07-.591 3.428.078 3.696 1.865.76 1.45-3.879-.078-3.696ZM209.595 187.581c0 .035-1.246 2.175-1.457 2.393-.563.564-2.042.909-2.485 1.408-1.225 1.408-.402 2.049-.613 4.133-.155 1.471-1.887 7.413 2.112 5.477 2.288-1.112 1.816-7.652 2.675-9.8.113-.281.704.634.704-.556s-.676-2.02-.936-3.055ZM213.495 163.251c.296.338.88-.057.915-.191.035-.133-1.253-.19-.915.191ZM308.641 185.229c.077.437.704.704.915.55.211-.155-1-1-.915-.55ZM305.811 182.54c0 .113.612.789.753.704.141-.084-.718-.908-.753-.704ZM308.796 184.293c.218-.155-1.233-1.028-1.254-.746-.021.282 1.035.901 1.254.746ZM304.128 181.322c-.049.261.803 1.648 1.119 1.408.564-.394-1.084-1.668-1.119-1.408ZM309.577 184.251c-.204.479.592 1.309.704 1.33.113.022-.521-1.703-.704-1.33ZM310.274 186.194c0 .106.556.634.816.436.261-.197-.887-.626-.816-.436ZM281.804 187.588c.197.176 1.19-.042 1.155-.303-.036-.26-1.458.042-1.155.303Z" stroke="gray" stroke-miterlimit="10"/><path d="M302.918 204.392s-.479-2.886-.233-2.773c-1.696-.796-4.167-4.33-5.392-6.196-.923-1.408-1.204-2.907-1.943-4.66-.381-.908-1.169-.225-1.408-.817-.395-.866 0-2.675-.852-3.47-.648-.606-.993 4.329-1 4.35-.901 2.563-.366 2.605-2.675 1.788-.662-.239-2.654-1.26-2.816-2.112-.148-.739 1.591-1.985 1.359-2.45.176.352-4.182-1.239-4.274-1.196-.112.281 0 .5.338.654-1.197-1.408-3.168 3.605-2.576 3.52.281-.035-1.782-.323-1.211 0-1.479-.858-1.253-1.71-3.021-.443-1.147.831-.739 1.943-1.408 2.682-.176.197-.295-1.007-.57-.824-.95.641-.211 1.465-1.07 2.169-1.063.866-1.598.922-2.767 1.506-1.534.754-2.625.986-3.956 2.239a.65.65 0 0 1-.099-.612c0 .316-.38 1.309-.422 1.837-.042.528.507 2.57.359 2.879a1.054 1.054 0 0 1-.535-.499c.108.226.195.461.26.704a23.054 23.054 0 0 1-.64-.521c-.254.633 1.661 4.005 1.844 4.759.092.387.071 4.034-.091 3.696 1.225 2.513 2.999.795 5.026.197a53.22 53.22 0 0 0 4.337-1.443c1.239-.465 3.872-1.408 5.224-1.183.83.134 4.984 3.386 4.034 3.815.288-.126 1.999-2.252 2.112-2.154.535.5-.866 1.852-.937 2.162-.253 1.217 1.408-.958.958-.606.598-.479.317 1.486.26 1.331-.056-.155 1.964 2.597 2.154 2.752 1.141.986 3.978.071 3.95.057a1.75 1.75 0 0 1 0 .661c-.261-.323.943.402 1.232.704-.584-.556 3.337-1.781 3.224-1.654.599-.704.944-3.795 1.408-4.801.289-.824 1.472-5.766 1.817-6.048Z" stroke="gray" stroke-miterlimit="10"/><path d="M287.443 213.15c.218.218.95.155 1.07-.155.119-.31-1.282-.042-1.07.155ZM296.448 219.226a7.25 7.25 0 0 1-1.535-.486c.268-.078.049 4.125 2.295 2.943 1.134-.627 1.57-2.739-.76-2.457ZM315.729 226.561c.141.043.599-.084.338-.436-.26-.352-.676.338-.338.436ZM324.734 215.508c-.535.979-1.704-1.471-1.809-1.464a.515.515 0 0 0 0 .549c.091-.14-1.767-2.668-2.155-2.668-.042 0 1.338 2.732 1.458 3.07.415 1.21-.951 1.161-.901 1.823 0-.049.992 2.816.936 2.753 1.14 2.14 3.569-6.076 2.471-4.063ZM321.489 219.028c-1.12-.873-7.85 5.14-5.815 6.505 2.034 1.366 6.758-5.744 5.815-6.505ZM325.91 192.896c.218.092.936-.169.936-.542s-1.267.436-.936.542ZM324.678 194.079c.338.352 1.014.324 1.035-.303.021-.627-1.338-.007-1.035.303ZM209.193 70.111a1.455 1.455 0 0 0-.844.528c.373.817 3.815-.823 3.829-1.056.057-1.084-2.78.219-2.985.528ZM214.164 70.576c0-.465-1.408.05-1.112.148.295.098 1.112.317 1.112-.148ZM207.919 69.88a3.664 3.664 0 0 1 1.514-.325c.176-.479-3.069 0-2.971.268a.984.984 0 0 0 .716.354.98.98 0 0 0 .741-.298ZM209.278 93.153c.775.782 1.247-.352 1.648-.52.549-.219-3.077-.93-1.648.52ZM214.988 84.353a33.195 33.195 0 0 0-3.027 3.38c0 .084 1.535 1.365 1.408 1.407-.134-.274-.085-.478.148-.605-.141 0 3.844 3.337 4.02 1.408.049-.514-1.753-1.62-1.831-2.337-.077-.718.704-1.457 1.007-2.112.491-.875 1.1-1.678 1.809-2.387 1.183-1.091 9.758-4.688 9.377-5.012-.915-.782-8.56 1.718-9.799 2.492-.669.465-3.091 3.766-3.112 3.766ZM298.848 82.523a2.412 2.412 0 0 0 2.155-.472c.183-2.006-8.666 0-2.155.472ZM292.047 83.537c0-.437-1.408.161-.845.38.317.12.845.056.845-.38ZM254.355 75.736c.536.331 5.309-.464 5.471-1.408.161-.943-2.767-1.21-2.676-.478-.528-4.154-2.105 2.316-2.795 1.886ZM250.237 71.625a2.515 2.515 0 0 0-.613.873c1.338 1.281 4.597 2.267 4.879 0 .239-1.922-4.266-1.394-4.266-.873ZM248.829 70.808c.865.402-.761.444-.859.5-.465.232 1.724.106 2.112-.056.387-.162 3.294-1.014 2.759-1.669-2.147-2.703-4.428 1.035-4.012 1.225ZM265.83 83.016c-.612 1.344 1.077.401 1.091.176a.709.709 0 0 0-.503-.353.704.704 0 0 0-.588.177ZM214.776 69.499c.43.479 3.021.528 3.133-.317.035-.289-2.154-.704-2.288-.655.373-.056-.612 1.225-.845.972ZM248.139 68.746c.106-.437-1.654-.247-1.197.169.162.147 1.092.267 1.197-.17ZM327.592 89.83c.12.092 2.464-.07 2-.62-1.099-1.316-3.45.557-3.274.649.422-.022.845-.029 1.274-.029ZM288.64 81.734a4.224 4.224 0 0 0 2.9.585c.704-.134 2.542-1.218 1.845-1.465.331.12 1.302 2.338 1.872.62.479-1.408-.873-1.084-2.112-1.486-.105-.035-2.288-.091-2.302-.091.331-.063-4.266.718-2.203 1.837ZM294.174 85.459c1.408-.338-3.647-2.028-2.654-.465.317.507 2.182.584 2.654.465Z" stroke="gray" stroke-miterlimit="10"/><path d="m334.471 98.99 1.006.232c.261 0-.33-.345-.253-.394-.303.19 1.781-.529 1.302-.704.036 0-4.083-2.45-4.139-1.599.063-.95.415 1.535.274 1.078-.76-2.514-5.899-5.266-8.778-5.886-1.599-.345-4.323-.288-5.295.162.078-.042.655 1.232-.133 1.718-.366.225-2.112-1.31-1.704-1.5.408-.19.922.67 1.028-.148.077-.661-3.372.268-3.872.338a19.046 19.046 0 0 1-2.506-.19c-1.092-.105-.507.86-.958 1.077.387-.183-1.408-1.731-1.408-1.717-1.57-1.33-1.344-1.577-4.266-1.803-.894-.07-5.266 0-5.71-1.33-.126-.394 1.331.077.944-.57-.859-1.408-4.344.204-4.386.352.245-.144.481-.303.704-.48a4.13 4.13 0 0 0-1.007-.337c-.303-.493 1.408 0 1.408-.26.254-1.507-7.272-.62-6.533.408a.782.782 0 0 0 .704 0c-.479-.268.085 1.823.035 1.19 0 .12-1.71-.198-1.992 0 .146.147.321.262.514.338 0 0-4.752-.902-5.076-.98-.324-.076-.866 1.986-1.584 1.944-1.07-.063-1.887-2.612-2.429-2.577.3.147.632.213.965.19 1.358-.795-3.387-3.611-4.4-3.4-.739.155-.894 1.739-1.162 1.781-.401.07-4.224-.091-4.329-.535-.071-.24.513-.535.267-.598-1.971-.514-3.52.408-4.745.528-.324 0 .063-1.148-.415-1.232-.233-.043-3.443 0-3.154.359.176.063.359.113.542.162.049.422-4.02 1.07-4.104 1.295.873-2.246 7.455-2.816 6.92-5.188-.162-.704.274-1.289-1.183-1.986-1.858-.873-3.259.521-4.928.106.178-.33.395-.638.648-.915 0 .183-2.33-.45-2.619-.331.197-.085 1.605-.317 1.295-.803-1.063-1.619-3.52.444-4.407 1.091.458-.33-1.71 2.542-1.788 1.19.178.186.374.353.584.5.099-.31-2.492.268-2.625.218a7.52 7.52 0 0 1 .253-.556c-.98.106-1.95.292-2.901.556a.95.95 0 0 0 .55.409c-.043-.331-4.337 1.14-4.654 1.288-1.014.472-.493.43-.929 1.014-.254 0-.514 0-.767-.05-.092.099.88.557.887.641a4.303 4.303 0 0 1-.704.05s1.07.633.584 1.077c-.289.26-1.957.12-2.436.218-6.674 1.408 0 1.858-1.295 3.625-.514.704-3.851-2.203-4.83-1.232-.084.085 1.077.894.817.965-.507.14-1.281-.599-1.647.105-.289.564 2.358 1.458 2.154 1.704 0 0-2.816-.584-2.816-.626-.556-.634.957-2.443-.226-2.816-1.182-.374-1.879 5.315-1.408 5.962 1.275 1.732 3.654.817 4.457 3.457.422 1.408-2.443-1.957-1.197-1.408-.852-.366-.577-1.105-1.704-.908-1.605.275-.077 1.19-.704 1.95-.704.894-1.654 2.19-2.633 2.408-.267.063-2.668-.064-2.45-.704-.035.084 3.168-.324 3.703-2.112.338-1.134-.225-2.042-.471-3.337-.071-.373.105-4.28.134-4.224-1.894-3.119-5.048.436-5.21 2.647.042-.613-.07 2.295-.211 1.929 0 0 3.421 2.196 1.408 2.52-1.408.24-7.04-4.73-8.779-3.738.457-.26 3.055 4.463.549 3.45-.986-.402.035-.493-2.232-.29 0 0-3.625.606-3.344.38.282-.224.782-.457.704-1.02 0 .36-4.738 1.908-5.399 2.197-.923.4-.704 2.112-2.408.978-1.704-1.133.852-1.084 1.063-1.33.767-.923-3.126-1.922-2.985-1.338 0-.162.915 2.922.183 2.386 1.823 1.317-.289 1.19-.408 1.282-2.112 1.69-2.112-.134-2.528 2.886-.07.507-1.746-.514-2.006-.31-.345-.218-.704-.443-1.021-.668-.619.288-.704.661-.281 1.126 1.02-.577 1.351 2.218-.43.81-.436-.345-2.851-5.632-3.837-5.168.704-.338 10.701 4.421 7.639-1.063-.585-1.056-6.815-3.689-7.343-3.027.237-.02.464-.1.662-.232-.085-.704-1.612 0-1.781-.162-.416-.458-1.408.57-1.711-.556.056.218 1.619-.204 1.661-.423.331-1.823-2.872-.197-2.478-.183-.316 0 .169-.985.141-1.035-.648-1.246-1.197 1.056-1.556 1.056-.126 0 .085-1.09-.141-.943-.429.458-.851.922-1.281 1.408-.464.091.908-1.507.901-1.542-.133-.83-1.556.76-1.548.76.443-.38-1.789 1.268-1.134 1.07-.859.261.225-1.935.331-1.527.056.19-1.302.155-1.281.479.192.191.322.437.373.704a2.892 2.892 0 0 0-1.014-.035c.115.212.292.383.507.492a3.783 3.783 0 0 1-1.19-.408c.056 0 .38 1.218 0 .985-.662-.436-.521-1.14-1.408-.739-.07 0-1.929 1.408-1.894 1.62.036.21.909-.184.768.556 0 0-1.57 0-1.514.07.064-.275.134-.542.218-.817a33.728 33.728 0 0 1-2.675 2.373c.704 0 2.274-1.732 3.02-1.042 0 0-.112.76-.126.767-2.112.845-2.704 4.274-4.654 5.126-.169.077.796.703.472.844-1.112.43-1.119.859-2.042 1.619-.07.057-.704-.809-.746-.267-.106 1.112-.655.253-1.211 1.084a.77.77 0 0 0 .479.394c-.591-1.309-2.112 2.112-2.056 1.845-.338 2.07 1.014 1.408 1.12 1.739.302 1.063-1.232.563-1.162.507a6.085 6.085 0 0 0-.155.929c0 .387.824-.423.979 0 .105.281-.514.577-.599.704-1.042 1.591 3.52.359 2.978.479.704-.162 1.12-1.324 1.542-1.57.253-.155 2.225 5.998 2.422 6.068.929.352 2.865-2.471 3.175-2.562-.127.323-.289.401-.493.232.183-1.654 2.161-2.964 2.112-4.224 0-1.647-1.866-.866-1.26-3.288.345-1.408 1.408-1.527 2.112-2.52.57-.81 1.506-3.147 2.583-3.52 5.006-1.654-1.161 4.182-1.316 4.477-.387.704-.106 3.563.239 3.908 1.408 1.408 4.048.366 5.576-.05.63.075 1.229.318 1.732.704.338.395-4.295.901-4.09.803-2.971 1.408-.106 1.366-.852 2.224-.887 1.408-1.07.338-1.408.641-.12.106-2.323.268-1.507 1.915.796 1.788-.781 2.225-1.774 2.584.085 0-2.591.26-3.231.345-1.408.169-.662.366-1.338-.606-.288-.408-1.922 1.127-2.224.901-.06-.219-.06-.45 0-.668-.388-.106-1.563 0-1.408-1.021 0-.183 1.02.542 1.105.091.155-.852-.486-.288-.704-.704-.12-.19 1.098-2.246.464-2.942-.429-.472-1.14 1.133-1.14 1.133-.458.458-.901-.359-.972 1.549 0 .612 1.176 2.006.873 2.605-.225.457-2.78.929-3.259 1.239a23.052 23.052 0 0 0-2.401 2.4 12.436 12.436 0 0 1-1.626 1.619c-.704.331-2.239.141-2.471.275-.528.296.486 1.098 0 1.5-.486.401-1.88-.845-2.204-.233-.887 1.641.437.394 1.218 1.641 1.07 1.71 2.732 3.752.247 5.012-1.155.591-3.985-.929-4.928-.422-1.767.964-.387.88-.768 2.52-.774 3.344-.704 4.745 2.049 5.632 1.922.626 3.957.232 5.555-1.908 1.267-1.704 2.027-4.66 3.963-5.864-.436.274 4.048-.507 3.675-.521 1.922.098.704-.176 2.365 1.098-.049-.042 6.336 5.815 4.534 5.815 1.021 0 .704-2.584.775-2.647a1.268 1.268 0 0 1 1.147.387c-.704-.211-7.04-7.04-3.942-6.871.422 0 3.752 3.788 4.815 4.386-1.042-.612 2.781 5.822 2.781 4.323 0-1.324-1.725 3.28.528 2.041a2.984 2.984 0 0 0-.155-.992c.203.056.417.056.62 0 .33-.409-.704-.352-.479-.564.225-.211 1.288.395 1.133-.464-.183-1.042-.746 0-1.133-.416.127.141-.162-2.112-.345-1.999.357.102.722.173 1.091.211.598-.267 3.795-.246 4.569-1.021-.204.205-1.281-1.71-1.211-2.112.419-.86.934-1.67 1.535-2.414.366-.521.535-1.718 1.295-2.07.479-.225 2.619-.141 2.739.507a4.776 4.776 0 0 1-1.197.704c-.042-.225.971 1.239.943 1.211-.028-.028 2.753-.704 2.816-.789.162-.281-2.506-.126-1.225-1.499.303-.317 3.302-1.408 3.52-.979.05.106-2.112 2.112-2.034 2.492.281 1.345 4.4 2.077 4.266 3.52-.183 1.986-2.548 1.289-3.935 1.261-.592 0-1.063-.669-1.641-.704-1.893-.12-3.006.316-4.794.816-2.295.641-4.836 1.831-2.175 4.541 1.246 1.274 2.464.704 3.872.76.464 0 3.294-.612 3.675-.366.38.247-.824 3.598-.972 3.957l.472.218c0 .091 0 .197-.035.289 0-.092 0-.198.035-.289l-.458-.211c-1.408 3.301-4.083 2.626-7.568 1.971-.922-.169-1.668-.613-2.591-.739-1.492-.204-.704-1.408-2.689-.387-.655.344-.471 1.668-.542 1.696-1.176.465-6.244-1.26-7.554-2.605-1.309-1.344.908-2.492-.084-3.893-.606-.852-4.731-.084-5.9.042-1.44.238-2.854.61-4.224 1.113-1.443.408-2.612.288-3.956.64-1.141.303-.704-.176-1.683.359 1.056-.563-2.274 2.479-1.865 1.824-.507.809-.902 1.704-1.408 2.52-.367.634-.268 1.464-.873 2.373-.395.598-1.197.704-1.641 1.154a15.923 15.923 0 0 0-2.921 4.682c-.775 1.964-.317 2.281-.38 3.999-.064 1.598-.564 3.301-.514 4.878.056 1.732.837 2.429 1.682 3.795 1.901 3.09 4.154 5.949 7.8 6.336a16.479 16.479 0 0 0 5.71-.796c.239-.063 2.682-1.408 2.936-1.105.67.406 1.361.777 2.069 1.112.324.155.197.937.613 1.127.415.19.88-.444 1.225-.226 1.936 1.218 1.19.162 2.175 2.394.19.493-.38 2.07-.373 2.316.042 2.007.796 2.302 1.964 4.337.965 1.668 2.19 4.928 1.929 6.864-.281 2.048-1.781 3.823-1.872 6.068-.155 1.507 1.992 5.055 2.323 6.632.598 2.816 1.464 4.541 2.407 7.216 1.282 3.64.183 4.428 4.224 3.921 3.929-.478 6.16-1.71 8.216-5.632.32-1.023.556-2.071.704-3.133 1.408-2.027 2.239-.922 2.626-3.569.275-1.879-.901-1.872.12-3.675.816-1.45 3.062-1.668 3.935-2.971 1.802-2.71-.07-5.702-.584-8.448-.556-2.935.943-5.054 2.964-7.237.83-.908 10.778-11.39 7.687-12.531-2.112-.795-4.498 2.253-6.934.704M222.133 69.647c.809-1.14-3.52-.514-2.549.345.465.408 2.176.176 2.549-.345ZM217.592 70.196c-.408.176-.817.324-1.232.465-.542.605 2.746.506 2.957-.198.134-.43-1.781-.38-1.725-.267ZM217.459 68.626a7.035 7.035 0 0 0 1.647-.64c-.345-.472-2.767.45-2.816.288a1.41 1.41 0 0 0 1.169.352Z" stroke="gray" stroke-miterlimit="10"/><path d="M292.955 119.891c.564 1.408-1.119 5.428-.239 6.554-.598-.767 1.338.078 1.352.085.014.007-.775-2.316-.704-2.415.704-1.57 1.408-.838 1.647-1.147.422-.571-2.063-6.9-1.711-7.125-.999.641-.647 3.316-.345 4.048ZM229.201 85.698c.496.043.991-.08 1.408-.352.549-1.105-2.605.148-1.408.352ZM237.65 85.81c-.056-.464-1.028.134-.704.324.324.19.753.141.704-.323ZM224.076 69.499l.803-.422c.26-.895-2.394.21-2.295.337.47.21 1.001.24 1.492.085ZM312.633 196.416c.056.352 2.288 2.218 2.604 1.985.317-.232-2.661-2.316-2.604-1.985ZM95.252 150.149c-.5-.943.112 1.866.338 1.345a9.745 9.745 0 0 1-.338-1.345ZM109.943 165.588c.662.148.88-.078.641-.662-.472-.436-.859.444-.641.662ZM262.028 178.612c0-.261-.704-.134-.471.232.232.366.471.028.471-.232ZM267.519 184.23c.347.096.711.108 1.063.035.472-.394-2.555-.915-2.471-.873a.81.81 0 0 1 .901-.704c-.788.528-7.68-1.788-7.223-.155.176.69 7.421 2.161 7.73 1.697ZM275.686 184.265c.704 0 .782-.092.289-.296-.352-.056-3.647.296-3.583.437.429.936 2.696-.106 3.294-.141ZM270.337 183.913c-.254.627-.873-.218-1.197.211-.662.887 2.274.866 2.527.254.155-.352-1.204-.754-1.33-.465ZM262.536 175.12c2.006 2.049 1.028 3.816 4.336 3.992 2.753.141 2.908-2.049 4.696-4.288-.12.148-1.183-2.365-1.169-2.597.057-1.07 1.324-.916 1.542-1.627.218-.711-2.555-1.218-2.703-1.182-.894.197-.444 1.774-1.978 1.654-.05 0-2.697 3.034-2.704 3.055.197-.471-3.414-.436-2.02.993ZM252.031 174.332c-.056.288.24 1.133.557.788.316-.345-.493-1.077-.557-.788ZM253.349 176.838c-.057.141.239.704.422.549.183-.155-.26-1.014-.422-.549Z" stroke="gray" stroke-miterlimit="10"/><path d="M259.959 180.069c-.077-1.225.612-.901.605-1.689 0-.345-1.119-1.408-1.14-.754.215.212.404.448.563.704-.232.585-2.957-3.569-3.098-3.724-.633-.704-6.138-4.928-6.385-4.379-.176.409 4.224 6.745 4.809 7.547.584.803 4.899 6.181 4.646 2.295ZM273.321 185.856c0-.789-1.57-.366-1.648-.493-.077-.127 1.648 1.197 1.648.493ZM271.54 178.323c-.127.233 1.675 2.866.929 3.175.704-.288.077-3.21.767-2.872 1.31.641-.141 2.45 1.612 1.084-.929.704.05-4.815.761-3.252.091.211-3.964 1.274-2.95-.381 1.105-1.809 3.569.261 4.541-1.745-.585 1.21-2.999-.268-3.802.274-1.253.845-1.161 2.478-1.858 3.717ZM279.91 178.992a13.06 13.06 0 0 0 2.365.641c.986 0-2.844-2.225-2.365-.641ZM280.044 174.416c0-1.957-1.626 2.077-.133 1.781.985-.197.133-1.816.133-1.781ZM277.052 185.335c.457-.605 1.992-.704 2.196-1.274.113-.338-2.358.753-2.59.781-.359.057-1.408.824-.704 1.197a1.222 1.222 0 0 0 1.098-.704ZM278.08 179.048c.113.465.88.704 1.091.324.212-.38-1.217-.866-1.091-.324ZM173.311 132.563c-.246.458.31 3.077 1.331 1.788.837-1.063-.69-2.999-1.331-1.788ZM179.097 135.689c.19-.042-2.042-.197-1.844.394a6.666 6.666 0 0 0 1.957 1.253c.169-.539.371-1.068.605-1.584a.562.562 0 0 0-.718-.063Z" stroke="gray" stroke-miterlimit="10"/><path d="M20.416 321.052h307.043" stroke="#263238" stroke-linecap="round" stroke-linejoin="round"/><path d="M51.392 296.314s-18.649-32.75-14.347-41.079c4.301-8.328 15.304 6.653 15.304 6.653s-9.567-30.532-4.3-43.859c5.265-13.327 14.34 0 14.783 9.44.444 9.441-1.908 25.535-1.908 25.535s3.823-33.307 12.905-23.317c9.081 9.99-11.476 43.303-11.476 43.303s13.87-7.744 13.376 2.225c-.492 9.968-16.734 18.874-16.734 18.874" fill="#fff"/><path d="M51.554 290.21s-17.262-16.101-8.857-23.317c8.406-7.216 12.834 7.744 12.834 7.744s-9.293-46.076 5.759-47.745c15.051-1.668 3.977 39.973 3.977 39.973s12.835-17.769 11.969-3.33c-.866 14.439-19.93 26.675-19.93 26.675M60.03 287.274l-11.665-12.637M57.602 288.253l3.154-36.939M57.108 285.578l10.455-13.855" stroke="#263238" stroke-miterlimit="10"/><path d="M72.223 283.001H39.966l3.224 38.051H69l3.224-38.051Z" fill="#263238"/><path d="m280.192 89.957-36.495 2.267a8.054 8.054 0 0 0-7.554 8.145l.183 14.665-10.609 1.126 10.694 5.519a8.045 8.045 0 0 0 5.1 7.382 8.063 8.063 0 0 0 3.101.56l35.432-.648a8.055 8.055 0 0 0 7.899-7.744l.817-22.922a8.055 8.055 0 0 0-2.424-6.083 8.051 8.051 0 0 0-6.144-2.267Z" fill="#fff" stroke="#263238" stroke-miterlimit="10"/><path d="M272.8 93.745h-23.901v15.051H272.8V93.745Z" fill="#8C8C8C" stroke="#263238" stroke-linecap="round" stroke-linejoin="round"/><path d="M272.801 93.745h-13.573v15.051h13.573V93.745Z" fill="#696969" stroke="#263238" stroke-linecap="round" stroke-linejoin="round"/><path d="M265.718 93.745h-9.737v15.051h9.737V93.745Z" fill="#fff" stroke="#263238" stroke-linecap="round" stroke-linejoin="round"/><path d="M248.724 120.975v-3.822c0-1.838 1.302-3.063 3.266-3.063s3.267 1.197 3.267 3.006c0 .085-.071.141-.176.155l-.627.042c-.112 0-.183 0-.183-.084v-.084a2.279 2.279 0 0 0-2.281-2.281 2.28 2.28 0 0 0-2.281 2.281v3.893a2.285 2.285 0 0 0 2.281 2.281 2.285 2.285 0 0 0 2.281-2.281.148.148 0 0 1 .183-.155h.627c.105 0 .176 0 .176.07v.071c0 1.823-1.303 3.034-3.267 3.034s-3.266-1.211-3.266-3.063ZM257.123 114.914a.747.747 0 0 1 .429-.73.75.75 0 0 1 1.057.515.747.747 0 0 1-.034.441.748.748 0 0 1-.699.478.692.692 0 0 1-.53-.188.69.69 0 0 1-.165-.235.68.68 0 0 1-.058-.281Zm.267 8.842v-6.674a.165.165 0 0 1 .047-.131.171.171 0 0 1 .129-.052h.627a.162.162 0 0 1 .072.01.167.167 0 0 1 .111.173v6.674a.166.166 0 0 1-.049.134.17.17 0 0 1-.062.04.177.177 0 0 1-.072.009h-.627a.169.169 0 0 1-.176-.183ZM265.746 119.124v4.632a.172.172 0 0 1-.046.132.174.174 0 0 1-.13.051h-.626a.18.18 0 0 1-.073-.009.166.166 0 0 1-.061-.04.166.166 0 0 1-.04-.061.181.181 0 0 1-.009-.073v-.5c0-.056-.042-.084-.085 0a2.948 2.948 0 0 1-2.168.824c-1.183 0-2.295-.57-2.295-2.035 0-1.464 1.056-2.252 2.865-2.252h1.626c.01.001.02 0 .029-.003a.097.097 0 0 0 .024-.015.058.058 0 0 0 .015-.025.065.065 0 0 0 .003-.028v-.514a1.422 1.422 0 0 0-.083-.633 1.417 1.417 0 0 0-1.543-.894c-.88 0-1.451.359-1.606.943a.16.16 0 0 1-.134.144.166.166 0 0 1-.07-.003l-.704-.085c-.112 0-.183-.056-.169-.148.183-1.02 1.211-1.717 2.647-1.717 1.704-.028 2.633.936 2.633 2.309Zm-.985 2.562v-1.07a.067.067 0 0 0-.003-.028.075.075 0 0 0-.015-.024.06.06 0 0 0-.024-.015c-.009-.003-.019-.004-.029-.003h-1.457c-1.211 0-2.035.514-2.035 1.408 0 .894.705 1.232 1.528 1.232 1.035.014 2.035-.528 2.035-1.5ZM267.767 122.116a6.02 6.02 0 0 1-.197-1.711 6.342 6.342 0 0 1 .183-1.697 2.883 2.883 0 0 1 2.717-1.913 2.89 2.89 0 0 1 2.718 1.913c.145.559.212 1.135.197 1.711a6.02 6.02 0 0 1-.197 1.711 2.865 2.865 0 0 1-5.421 0v-.014Zm4.506-.289c.088-.464.126-.936.112-1.408a5.94 5.94 0 0 0-.112-1.408 1.868 1.868 0 0 0-3.591 0 8.81 8.81 0 0 0 0 2.816 1.868 1.868 0 0 0 3.591 0Z" fill="#263238"/><path d="M127.332 108.001 112.9 104.1l3.26-21.394a6.802 6.802 0 0 0-7.272-7.8L78.243 77.44a6.789 6.789 0 0 0-6.217 7.315l2.253 28.061a6.795 6.795 0 0 0 6.505 6.244l23.584.93a6.779 6.779 0 0 0 6.984-5.759l.612-4.006 15.368-2.224Z" fill="#fff" stroke="#263238" stroke-miterlimit="10"/><path d="M105.889 80.89h-23.9V95.94h23.9V80.89Z" fill="#8C8C8C" stroke="#263238" stroke-linecap="round" stroke-linejoin="round"/><path d="M105.889 84.536h-23.9v7.766h23.9v-7.766Z" fill="#fff" stroke="#263238" stroke-linecap="round" stroke-linejoin="round"/><path d="M87.542 101.376h.627a.169.169 0 0 1 .176.183v9.377a.169.169 0 0 1-.176.183h-.627a.162.162 0 0 1-.072-.009.182.182 0 0 1-.062-.039.175.175 0 0 1-.049-.135v-4.224a.063.063 0 0 0-.042-.067c-.01-.003-.019-.004-.028-.003h-4.407a.067.067 0 0 0-.029.003.06.06 0 0 0-.024.015.064.064 0 0 0-.018.052v4.224a.171.171 0 0 1-.049.135.183.183 0 0 1-.061.039.163.163 0 0 1-.073.009h-.626a.146.146 0 0 1-.072-.009.152.152 0 0 1-.06-.04.16.16 0 0 1-.044-.134v-9.405a.161.161 0 0 1 .176-.183h.626a.178.178 0 0 1 .073.009.171.171 0 0 1 .11.174v4.161a.064.064 0 0 0 .018.052.06.06 0 0 0 .025.015.067.067 0 0 0 .028.003h4.414c.01.001.019 0 .028-.003a.06.06 0 0 0 .024-.015.063.063 0 0 0 .018-.052v-4.161a.168.168 0 0 1 .176-.155ZM90.696 109.268a6.1 6.1 0 0 1-.19-1.711 6.406 6.406 0 0 1 .176-1.697 2.895 2.895 0 0 1 4.383-1.384c.487.342.856.825 1.059 1.384.145.559.212 1.135.197 1.711a6.074 6.074 0 0 1-.197 1.711 2.871 2.871 0 0 1-5.428 0v-.014Zm4.505-.296c.09-.464.128-.936.113-1.408a5.966 5.966 0 0 0-.112-1.408 1.855 1.855 0 0 0-1.792-1.364 1.856 1.856 0 0 0-1.792 1.364c-.091.464-.13.936-.112 1.408-.019.472.02.945.112 1.408a1.862 1.862 0 0 0 1.792 1.365 1.861 1.861 0 0 0 1.791-1.365ZM98.321 110.908v-9.377a.164.164 0 0 1 .049-.134.17.17 0 0 1 .061-.04.178.178 0 0 1 .073-.009h.626a.169.169 0 0 1 .177.183v9.377a.169.169 0 0 1-.177.183h-.626a.178.178 0 0 1-.073-.009.17.17 0 0 1-.11-.174ZM106.614 106.304v4.632a.176.176 0 0 1-.049.135.191.191 0 0 1-.062.039.161.161 0 0 1-.072.009h-.627a.172.172 0 0 1-.134-.048.163.163 0 0 1-.039-.062.164.164 0 0 1-.01-.073v-.5c0-.056-.042-.084-.084 0a2.924 2.924 0 0 1-2.169.817c-1.182 0-2.295-.57-2.295-2.027 0-1.458 1.056-2.253 2.866-2.253h1.612c.009.001.019 0 .028-.003a.075.075 0 0 0 .024-.015.06.06 0 0 0 .015-.024c.003-.009.004-.019.003-.029v-.598a1.402 1.402 0 0 0-.434-1.169 1.41 1.41 0 0 0-1.192-.366c-.873 0-1.443.366-1.598.951a.16.16 0 0 1-.074.116.159.159 0 0 1-.137.017l-.704-.077c-.106 0-.176-.056-.162-.155.176-1.014 1.211-1.711 2.64-1.711 1.717.029 2.654.986 2.654 2.394Zm-1.014 2.527v-1.07a.067.067 0 0 0-.003-.028.06.06 0 0 0-.015-.024.06.06 0 0 0-.024-.015.067.067 0 0 0-.028-.003h-1.458c-1.211 0-2.034.514-2.034 1.408 0 .894.704 1.239 1.534 1.239 1.049.014 2.028-.514 2.028-1.507Z" fill="#263238"/><path d="M291.66 144.792h-18.776a14.312 14.312 0 0 0-14.312 14.312v5.287l-9.356-.359 9.384 6.125v3.963a14.318 14.318 0 0 0 14.312 14.32h18.776A14.321 14.321 0 0 0 306 174.12v-15.016a14.317 14.317 0 0 0-8.854-13.231 14.301 14.301 0 0 0-5.486-1.081Z" fill="#fff" stroke="#263238" stroke-miterlimit="10"/><path d="M274.877 171.494h.626a.165.165 0 0 1 .069.012.167.167 0 0 1 .096.096.177.177 0 0 1 .011.068v9.378a.172.172 0 0 1-.046.131.175.175 0 0 1-.13.052h-.626a.176.176 0 0 1-.135-.049.176.176 0 0 1-.049-.134v-4.224a.049.049 0 0 0-.003-.029.06.06 0 0 0-.015-.024.065.065 0 0 0-.024-.015c-.009-.003-.018-.004-.028-.003h-4.407a.065.065 0 0 0-.028.003.075.075 0 0 0-.024.015.06.06 0 0 0-.015.024.072.072 0 0 0-.003.029v4.224a.176.176 0 0 1-.049.134.176.176 0 0 1-.134.049h-.627a.16.16 0 0 1-.072-.01.163.163 0 0 1-.101-.101.162.162 0 0 1-.01-.072v-9.378a.167.167 0 0 1 .052-.129.163.163 0 0 1 .06-.037.157.157 0 0 1 .071-.01h.627a.151.151 0 0 1 .07.01c.023.008.044.02.061.037a.167.167 0 0 1 .052.129v4.161c-.001.01 0 .019.003.028a.055.055 0 0 0 .015.024.06.06 0 0 0 .024.015.045.045 0 0 0 .028.003h4.407c.01.002.019.001.028-.003a.055.055 0 0 0 .024-.015.055.055 0 0 0 .015-.024.045.045 0 0 0 .003-.028v-4.161a.167.167 0 0 1 .113-.166.155.155 0 0 1 .071-.01ZM282.579 179.45a.173.173 0 0 1 .038-.062.177.177 0 0 1 .061-.039.163.163 0 0 1 .14.016l.402.225c.098.057.141.141.084.233a2.717 2.717 0 0 1-2.583 1.52 2.569 2.569 0 0 1-2.605-1.739 5.398 5.398 0 0 1-.268-1.921 6.421 6.421 0 0 1 .127-1.613 2.635 2.635 0 0 1 2.689-1.992 2.597 2.597 0 0 1 2.781 2.394c.074.465.102.937.084 1.408a.164.164 0 0 1-.048.132.164.164 0 0 1-.135.044h-4.449a.067.067 0 0 0-.028.003.06.06 0 0 0-.024.015.06.06 0 0 0-.015.024 4.487 4.487 0 0 0 .081 1.049 1.795 1.795 0 0 0 1.887 1.359 1.91 1.91 0 0 0 1.781-1.056Zm-3.64-3.204a3.907 3.907 0 0 0-.112.951.067.067 0 0 0 .003.028.06.06 0 0 0 .015.024.06.06 0 0 0 .024.015.067.067 0 0 0 .028.003h3.576a.075.075 0 0 0 .026-.005.06.06 0 0 0 .022-.016.058.058 0 0 0 .013-.023c.003-.008.004-.017.003-.026a7.222 7.222 0 0 0-.078-.894 1.737 1.737 0 0 0-1.795-1.359 1.651 1.651 0 0 0-1.725 1.302ZM285.486 181.048v-9.378a.167.167 0 0 1 .052-.129.173.173 0 0 1 .131-.047h.627a.17.17 0 0 1 .07.009.176.176 0 0 1 .059.038.163.163 0 0 1 .047.129v9.378a.16.16 0 0 1-.007.072.158.158 0 0 1-.098.101.155.155 0 0 1-.071.01h-.627a.16.16 0 0 1-.072-.01.163.163 0 0 1-.101-.101.162.162 0 0 1-.01-.072ZM288.718 181.048v-9.378a.16.16 0 0 1 .012-.068.15.15 0 0 1 .038-.058.15.15 0 0 1 .058-.038.16.16 0 0 1 .068-.012h.627a.173.173 0 0 1 .171.106.167.167 0 0 1 .012.07v9.378a.162.162 0 0 1-.01.072.163.163 0 0 1-.101.101.16.16 0 0 1-.072.01h-.627a.167.167 0 0 1-.129-.052.165.165 0 0 1-.047-.131ZM291.914 179.407a6.014 6.014 0 0 1-.198-1.71 6.378 6.378 0 0 1 .183-1.697 2.895 2.895 0 0 1 5.442 0c.143.559.207 1.134.19 1.711a6.012 6.012 0 0 1-.19 1.71 2.867 2.867 0 0 1-2.714 1.932 2.87 2.87 0 0 1-2.713-1.932v-.014Zm4.505-.288c.089-.464.127-.936.113-1.408a5.993 5.993 0 0 0-.113-1.408 1.86 1.86 0 0 0-2.918-.985 1.864 1.864 0 0 0-.665.985 6.157 6.157 0 0 0-.113 1.408c-.017.472.021.944.113 1.408a1.858 1.858 0 0 0 3.583 0Z" fill="#263238"/><path d="M294.336 151.036h-23.9v15.052h23.9v-15.052Z" fill="#fff" stroke="#263238" stroke-linecap="round" stroke-linejoin="round"/><path d="M294.462 151.036h-23.9v1.457h23.9v-1.457ZM294.462 153.317h-23.9v1.457h23.9v-1.457ZM294.462 155.591h-23.9v1.457h23.9v-1.457ZM294.462 157.872h-23.9v1.457h23.9v-1.457ZM294.462 160.153h-23.9v1.457h23.9v-1.457ZM294.462 162.434h-23.9v1.457h23.9v-1.457ZM294.462 164.715h-23.9v1.457h23.9v-1.457Z" fill="#263238"/><path d="M282.023 151.036h-11.587v8.019h11.587v-8.019Z" fill="#263238"/><path d="m270.885 151.712.106.225.225.035-.162.176.035.247-.204-.113-.197.113.035-.247-.161-.176.225-.035.098-.225ZM270.885 153.197l.106.226.225.035-.162.176.035.246-.204-.119-.197.119.035-.246-.161-.176.225-.035.098-.226ZM270.885 154.676l.106.225.225.035-.162.176.035.247-.204-.12-.197.12.035-.247-.161-.176.225-.035.098-.225ZM270.885 156.154l.106.226.225.042-.162.169.035.246-.204-.112-.197.112.035-.246-.161-.169.225-.042.098-.226ZM270.885 157.64l.106.225.225.035-.162.176.035.247-.204-.12-.197.12.035-.247-.161-.176.225-.035.098-.225ZM271.948 152.578l.099.225.225.035-.162.176.035.247-.197-.113-.204.113.035-.247-.162-.176.225-.035.106-.225ZM271.948 154.063l.099.226.225.035-.162.176.035.246-.197-.119-.204.119.035-.246-.162-.176.225-.035.106-.226ZM271.948 155.542l.099.225.225.035-.162.176.035.247-.197-.113-.204.113.035-.247-.162-.176.225-.035.106-.225ZM271.948 157.02l.099.225.225.036-.162.176.035.246-.197-.113-.204.113.035-.246-.162-.176.225-.036.106-.225ZM273.004 151.712l.105.225.226.036-.169.176.042.246-.204-.113-.204.113.042-.246-.169-.176.232-.036.099-.225ZM273.004 153.197l.105.226.226.035-.169.176.042.246-.204-.119-.204.119.042-.246-.169-.176.232-.035.099-.226ZM273.004 154.676l.105.225.226.035-.169.176.042.247-.204-.12-.204.12.042-.247-.169-.176.232-.035.099-.225ZM273.004 156.154l.105.226.226.042-.169.169.042.246-.204-.112-.204.112.042-.246-.169-.169.232-.042.099-.226ZM273.004 157.64l.105.225.226.035-.169.176.042.247-.204-.12-.204.12.042-.247-.169-.176.232-.035.099-.225ZM274.067 152.578l.099.225.225.035-.162.176.035.247-.197-.113-.204.113.035-.247-.162-.176.226-.035.105-.225ZM274.067 154.063l.099.226.225.035-.162.176.035.246-.197-.119-.204.119.035-.246-.162-.176.226-.035.105-.226ZM274.067 155.542l.099.225.225.035-.162.176.035.247-.197-.113-.204.113.035-.247-.162-.176.226-.035.105-.225ZM274.067 157.02l.099.225.225.036-.162.176.035.246-.197-.113-.204.113.035-.246-.162-.176.226-.036.105-.225ZM275.124 151.712l.098.225.226.035-.162.176.042.247-.204-.113-.204.113.035-.247-.162-.176.225-.035.106-.225ZM275.124 153.197l.098.226.226.035-.162.176.042.246-.204-.119-.204.119.035-.246-.162-.176.225-.035.106-.226ZM275.124 154.676l.098.225.226.035-.162.176.042.247-.204-.12-.204.12.035-.247-.162-.176.225-.035.106-.225ZM275.124 156.154l.098.226.226.042-.162.169.042.246-.204-.112-.204.112.035-.246-.162-.169.225-.042.106-.226ZM275.124 157.64l.098.225.226.035-.162.176.042.247-.204-.12-.204.12.035-.247-.162-.176.225-.035.106-.225ZM276.179 152.578l.106.225.225.035-.162.176.036.247-.205-.113-.204.113.042-.247-.162-.176.226-.035.098-.225ZM276.179 154.063l.106.226.225.035-.162.176.036.246-.205-.119-.204.119.042-.246-.162-.176.226-.035.098-.226ZM276.179 155.542l.106.225.225.035-.162.176.036.247-.205-.113-.204.113.042-.247-.162-.176.226-.035.098-.225ZM276.179 157.02l.106.225.225.036-.162.176.036.246-.205-.113-.204.113.042-.246-.162-.176.226-.036.098-.225ZM277.243 151.712l.099.225.225.036-.162.176.035.246-.197-.113-.204.113.035-.246-.162-.176.225-.036.106-.225ZM277.243 153.197l.099.226.225.035-.162.176.035.246-.197-.119-.204.119.035-.246-.162-.176.225-.035.106-.226ZM277.243 154.676l.099.225.225.035-.162.176.035.247-.197-.12-.204.12.035-.247-.162-.176.225-.035.106-.225ZM277.243 156.154l.099.226.225.042-.162.169.035.246-.197-.112-.204.112.035-.246-.162-.169.225-.042.106-.226ZM277.243 157.64l.099.225.225.035-.162.176.035.247-.197-.12-.204.12.035-.247-.162-.176.225-.035.106-.225ZM278.299 152.578l.098.225.233.035-.169.176.042.247-.204-.113-.205.113.043-.247-.169-.176.232-.035.099-.225ZM278.299 154.063l.098.226.233.035-.169.176.042.246-.204-.119-.205.119.043-.246-.169-.176.232-.035.099-.226ZM278.299 155.542l.098.225.233.035-.169.176.042.247-.204-.113-.205.113.043-.247-.169-.176.232-.035.099-.225ZM278.299 157.02l.098.225.233.036-.169.176.042.246-.204-.113-.205.113.043-.246-.169-.176.232-.036.099-.225ZM279.354 151.712l.106.225.225.036-.162.176.035.246-.204-.113-.197.113.035-.246-.162-.176.226-.036.098-.225ZM279.354 153.197l.106.226.225.035-.162.176.035.246-.204-.119-.197.119.035-.246-.162-.176.226-.035.098-.226ZM279.354 154.676l.106.225.225.035-.162.176.035.247-.204-.12-.197.12.035-.247-.162-.176.226-.035.098-.225ZM279.354 156.154l.106.226.225.042-.162.169.035.246-.204-.112-.197.112.035-.246-.162-.169.226-.042.098-.226ZM279.354 157.64l.106.225.225.035-.162.176.035.247-.204-.12-.197.12.035-.247-.162-.176.226-.035.098-.225ZM280.418 152.578l.098.225.226.035-.162.176.042.247-.204-.113-.204.113.035-.247-.162-.176.225-.035.106-.225ZM280.418 154.063l.098.226.226.035-.162.176.042.246-.204-.119-.204.119.035-.246-.162-.176.225-.035.106-.226ZM280.418 155.542l.098.225.226.035-.162.176.042.247-.204-.113-.204.113.035-.247-.162-.176.225-.035.106-.225ZM280.418 157.02l.098.225.226.036-.162.176.042.246-.204-.113-.204.113.035-.246-.162-.176.225-.036.106-.225ZM281.473 151.712l.106.225.225.036-.162.176.035.246-.204-.113-.204.113.042-.246-.162-.176.226-.036.098-.225ZM281.473 153.197l.106.226.225.035-.162.176.035.246-.204-.119-.204.119.042-.246-.162-.176.226-.035.098-.226ZM281.473 154.676l.106.225.225.035-.162.176.035.247-.204-.12-.204.12.042-.247-.162-.176.226-.035.098-.225ZM281.473 156.154l.106.226.225.042-.162.169.035.246-.204-.112-.204.112.042-.246-.162-.169.226-.042.098-.226ZM281.473 157.64l.106.225.225.035-.162.176.035.247-.204-.12-.204.12.042-.247-.162-.176.226-.035.098-.225Z" fill="#fff"/><path d="M114.682 166.559h-12.341a24.14 24.14 0 1 0 1.147 7.273v-.542l11.194-6.731Z" fill="#fff" stroke="#263238" stroke-miterlimit="10"/><path d="M67.648 181.878a17.355 17.355 0 0 1-1.471 2.176 6.937 6.937 0 0 0-.599-.753 20.85 20.85 0 0 0 3.351-6.773l1.155.345c-.057.141-.176.169-.331.155a30.386 30.386 0 0 1-1.324 3.295l.402.112c0 .085-.092.155-.275.162v8.849h-.908v-7.568Zm9.525.338c.113-.514.254-1.295.373-2.048H74.78v8.124c0 1-.359 1.183-2.309 1.183a3.734 3.734 0 0 0-.345-.958h1.5c.183 0 .24-.056.24-.239v-8.11h-2.24c-.36.931-.833 1.816-1.407 2.633a3.8 3.8 0 0 0-.705-.571 15.057 15.057 0 0 0 2.295-5.667l1.155.31c0 .099-.12.155-.303.141a21.739 21.739 0 0 1-.704 2.281h6.639a24.263 24.263 0 0 1-.626 3.055l-.796-.134Zm-4.45.458c-.041.099-.14.155-.309.155a13.651 13.651 0 0 1-2.112 4.646 4.507 4.507 0 0 0-.74-.479 12.628 12.628 0 0 0 2.035-4.66l1.127.338Zm5.048 4.689a19.284 19.284 0 0 0-1.907-4.802l.823-.288a18.593 18.593 0 0 1 1.978 4.752l-.894.338ZM84.424 179.436l.528.133-.084.197a18.185 18.185 0 0 1-1.338 5.984c.608.44 1.163.948 1.654 1.514l-.57.767a9.45 9.45 0 0 0-1.485-1.45 7.528 7.528 0 0 1-2.753 2.908 4.356 4.356 0 0 0-.584-.768 6.569 6.569 0 0 0 2.612-2.71 18.371 18.371 0 0 0-1.584-1.07l-.17.612-.795-.415c.352-1.225.782-2.992 1.183-4.787H79.63v-.88h1.584c.225-1.042.415-2.042.584-2.936l1.14.141c0 .098-.098.155-.274.169-.155.795-.352 1.696-.556 2.626h2.112l.204-.035Zm-2.506.915a135.553 135.553 0 0 1-.908 3.738c.584.324 1.182.704 1.767 1.105a16.357 16.357 0 0 0 1.154-4.843h-2.013Zm10.616 2.393v.901h-3.358v4.605c0 1.07-.415 1.239-2.88 1.21a4.731 4.731 0 0 0-.344-.929h1.668c.472 0 .613 0 .613-.295v-4.619h-3.408v-.901h3.408v-2.365h.457a14.127 14.127 0 0 0 2.063-2.267h-5.357v-.88h6.061l.183-.056.74.464a.448.448 0 0 1-.226.134 17.47 17.47 0 0 1-2.978 3.217v1.725l3.358.056Z" fill="#263238"/><path d="M91.344 157.133h-23.9v15.051h23.9v-15.051Z" fill="#263238" stroke="#263238" stroke-linecap="round" stroke-linejoin="round"/><path d="m70.267 158.02.584 1.175 1.289.184-.937.915.226 1.281-1.162-.605-1.155.605.226-1.281-.937-.915 1.289-.184.577-1.175ZM74.02 157.562l.302.606.662.098-.48.465.114.662-.599-.31-.591.31.112-.662-.485-.465.668-.098.296-.606ZM74.829 160.618l.295.605.67.092-.486.471.112.662-.591-.31-.599.31.113-.662-.479-.471.662-.092.303-.605ZM72.842 162.617l.296.598.669.099-.479.472.113.661-.599-.316-.591.316.113-.661-.486-.472.669-.099.295-.598ZM70.09 163.532l.296.599.669.098-.479.472.113.662-.599-.31-.59.31.112-.662-.486-.472.669-.098.295-.599Z" fill="#fff"/><path d="M213.65 109.458a29.213 29.213 0 0 0-8.553-20.649 29.208 29.208 0 0 0-20.649-8.553h-10.166a29.203 29.203 0 0 0-29.202 29.202" stroke="#263238" stroke-width="3" stroke-linecap="round" stroke-linejoin="round"/><path d="M213.65 131.085v-21.627M145.08 109.458v21.627" stroke="#263238" stroke-width="6" stroke-linecap="round" stroke-linejoin="round"/><path d="M166.053 163.532s1.823 12.735 1.457 16.009c-.366 3.274-1.091 6.547-10.187 2.908-9.096-3.64-25.464 2.914-36.016 15.642-10.553 12.729-30.554 55.3-30.554 60.39 0 5.09 3.999 11.968 11.264 13.094 7.265 1.126 24.372-19.642 24.372-19.642s7.273 41.107 7.273 44.352c0 3.246-3.26 24.739-3.26 24.739h102.953l-4.006-26.555 7.28-58.573s30.194 41.107 36.742 42.944c6.547 1.838 16.734-1.457 19.282-9.095 2.549-7.639-1.457-15.643-6.554-21.465-5.097-5.822-37.101-57.116-42.944-61.84-5.843-4.724-22.19-5.097-28.012-3.639-5.822 1.457-15.643 3.639-18.192 2.182-2.548-1.457-2.541-15.277 0-21.465.021.014-22.169 5.836-30.898.014Z" fill="#fff" stroke="#263238" stroke-linecap="round" stroke-linejoin="round"/><path d="M151.832 274.299c1.174.453 2.37.846 3.583 1.176M133.057 250.962s1.619 14.136 14.939 21.542M174.486 209.56l7.083 10.348M244.521 219.451l1.872-3.9M241.486 214.46l-4.857 21.464 5.97-12.453M263.296 253.137s7.688-4.928 15.256-4.928" stroke="#263238" stroke-linecap="round" stroke-linejoin="round"/><path d="M247.653 267.9a104.901 104.901 0 0 0 13.933-9.025 31.173 31.173 0 0 1 22.176-6.28c7.258.782 11.186 9.807 11.376 18.839.19 9.033-4.709 14.517-13.538 15.89-8.828 1.372-19.233-.585-25.703-2.155a85.46 85.46 0 0 0-10.405-1.964s-8.434-12.954 2.161-15.305Z" fill="#fff" stroke="#263238" stroke-linecap="round" stroke-linejoin="round"/><path d="M295.138 271.434c-.19-9.032-4.119-18.057-11.377-18.839a31.174 31.174 0 0 0-22.176 6.28l-.985.753c8.448.289 25.527 3.738 22.851 27.329 7.66-1.837 11.87-7.152 11.687-15.523ZM166.052 163.532s1.824 12.736 1.457 16.009c-.274 2.457-.753 4.928-4.808 4.449 5.801 9.483 22.648 31.744 38.368 1.408-1.83.113-3.309 0-4.097-.436-2.542-1.457-2.542-15.277 0-21.465 0 .035-22.19 5.857-30.92.035Z" fill="#fff" stroke="#263238" stroke-linecap="round" stroke-linejoin="round"/><path d="M166.052 163.532s.471 3.309.887 6.984a32.246 32.246 0 0 0 13.657 3.717 26.378 26.378 0 0 0 14.862-4.301 26.332 26.332 0 0 1 1.513-6.4s-22.19 5.822-30.919 0ZM146.059 119.504h-2.007a4.463 4.463 0 0 0-4.463 4.463v17.079a4.464 4.464 0 0 0 4.463 4.464h2.007a4.464 4.464 0 0 0 4.463-4.464v-17.079a4.463 4.463 0 0 0-4.463-4.463Z" fill="#263238" stroke="#263238" stroke-linecap="round" stroke-linejoin="round"/><path d="M146.171 119.525h-2.238v25.964h2.238v-25.964Z" fill="#fff" stroke="#263238" stroke-linecap="round" stroke-linejoin="round"/><path d="M214.855 119.504h-2.007a4.463 4.463 0 0 0-4.463 4.463v17.079a4.464 4.464 0 0 0 4.463 4.464h2.007a4.464 4.464 0 0 0 4.463-4.464v-17.079a4.463 4.463 0 0 0-4.463-4.463Z" fill="#263238" stroke="#263238" stroke-linecap="round" stroke-linejoin="round"/><path d="M214.974 119.525h-2.239v25.964h2.239v-25.964ZM127.868 140.04a5.123 5.123 0 0 0-4.076 2.717c-1.634 2.718-6.794 12.771-6.252 15.763.542 2.992 23.098 24.182 23.098 25.541 0 1.359-17.93 25.815-29.891 36.685-11.961 10.87-21.465 23.091-23.099 32.877-1.633 9.786 4.077 17.931 10.06 19.564 5.984 1.633 13.313-1.901 21.733-12.503s31.525-56.792 35.059-72.512c0 0 .81-7.04-2.45-11.144-3.259-4.104-11.412-13.587-11.412-13.587s1.634-18.748.275-20.107c-1.359-1.358-2.717 1.634-2.717 1.634s-1.261-6.287-2.992-5.984c-1.894.338-2.443 2.717-2.443 2.717s-1.359-5.47-4.893-1.661Z" fill="#fff" stroke="#263238" stroke-linecap="round" stroke-linejoin="round"/><path d="M138.195 144.932s-3.9 15.608-3.519 18.241M132.761 141.666s-4.133 15.178-4.661 17.29a5.196 5.196 0 0 0 .662 4.09M127.867 140.04s-5.836 16.276-5.836 17.994 1.324 3.823 1.324 3.823" stroke="#263238" stroke-linecap="round" stroke-linejoin="round"/><path d="M122.672 208.053a143.088 143.088 0 0 1-11.925 12.672c-11.968 10.863-21.465 23.091-23.099 32.877-1.633 9.785 4.077 17.931 10.06 19.564 5.984 1.633 13.313-1.901 21.733-12.503 4.851-6.097 14.552-23.978 22.591-41.064-12.249-3.253-17.304-8.322-19.36-11.546ZM150.283 106.029s-.472 37.826.95 44.923c1.423 7.096 14.186 19.148 28.864 19.62 14.679.472 26.246-13.003 27.661-20.099 1.415-7.096 0-35.461-.233-46.809-.232-11.349-16.551-21.514-33.088-18.916-16.537 2.597-25.097 12.291-24.154 21.281Z" fill="#fff" stroke="#263238" stroke-linecap="round" stroke-linejoin="round"/><path d="M186.223 121.398s.943 6.617 1.894 8.032c.95 1.415 2.597 3.316-.704 4.731-3.302 1.415-5.914-.239-5.914-1.893" stroke="#263238" stroke-linecap="round" stroke-linejoin="round"/><path d="M189.771 144.799S177 146.432 171.326 140.8c0 0 1.408 8.751 5.674 10.173 4.267 1.422 12.771-6.174 12.771-6.174Z" fill="#fff" stroke="#263238" stroke-linecap="round" stroke-linejoin="round"/><path d="m173.22 121.63 1.182 3.781" stroke="#263238" stroke-linecap="round" stroke-linejoin="round"/><path d="M168.017 125.178s3.308 2.112 9.454.233" stroke="#263238" stroke-width="2" stroke-linecap="round" stroke-linejoin="round"/><path d="m196.388 121.63 1.182 3.781" stroke="#263238" stroke-linecap="round" stroke-linejoin="round"/><path d="M191.186 125.178s3.308 2.112 9.461.233M166.363 115.012a12.412 12.412 0 0 1 9.927-4.963M189.06 109.571s6.857-1.887 11.587 3.52" stroke="#263238" stroke-width="2" stroke-linecap="round" stroke-linejoin="round"/><path d="M180.224 119.68a6.527 6.527 0 0 1-.084 6.744l-.134.211a10.997 10.997 0 0 1-9.342 5.189h-1.478a8.576 8.576 0 0 1-7.421-4.273v0a7.125 7.125 0 0 1-.408-6.336 7.105 7.105 0 0 1 6.111-4.344l6.73-.422a6.508 6.508 0 0 1 6.026 3.231v0ZM187.968 119.68a6.529 6.529 0 0 0 .085 6.744l.133.212a11.006 11.006 0 0 0 9.343 5.188h1.478a8.576 8.576 0 0 0 7.42-4.273v0a7.103 7.103 0 0 0 .408-6.336v0a7.101 7.101 0 0 0-6.11-4.344l-6.724-.422a6.519 6.519 0 0 0-6.033 3.231v0ZM181.02 120.919s2.112-1.654 6.145 0M178.183 117.378h11.587M161.343 121.208h-11.06" stroke="#263238" stroke-linecap="round" stroke-linejoin="round"/><path d="M192.608 96.096s6.125 19.67 15.424 24.753c-.204-6.745-.443-13.081-.528-17.185-.239-11.349-16.551-21.514-33.088-18.916-16.537 2.597-25.062 12.291-24.119 21.281 0 0-.077 6.175-.07 14.01 7.983-3.443 29.005-13.031 42.381-23.943Z" fill="#263238"/><path d="M148.643 114.872s31.011-13.003 47.773-29.512M146.137 104.368s32.517-7.505 51.279-27.266M198.662 87.606s.5 12.756 14.01 24.513" stroke="#737373" stroke-linecap="round" stroke-linejoin="round"/><path d="M195.141 166.982s0 8.574-6.427 22.239c-6.428 13.665-6.702 27.329-2.415 37.509 4.288 10.18 15.812 14.207 28.16 9.652 12.348-4.555 13.932-24.922 12.595-37.249-1.338-12.327-13.376-26.794-16.08-34.031-2.703-7.237-4.554-10.982-4.554-10.982s-6.97 9.644-11.264 11.785l-.015 1.077Z" fill="#263238"/><path d="M199.661 157.393a67.314 67.314 0 0 1-4.498 34.496c-7.505 18.009-1.753 37.27 7.004 41.269 8.758 3.999 17.255 2.506 21.508-2.999" stroke="#737373" stroke-linecap="round" stroke-linejoin="round"/><path d="M202.914 153.395s8.504 20.007 5.005 35.016c-3.498 15.01-1.999 34.053 8.505 37.77 10.504 3.717 16.509-3.717 16.509-3.717" stroke="#737373" stroke-linecap="round" stroke-linejoin="round"/><path d="M213.171 166.397s7.251 27.513 7.251 41.769c0 14.256 8.758 12.01 11.011 5.005" stroke="#737373" stroke-linecap="round" stroke-linejoin="round"/><path d="M195.141 166.982s0 8.574-6.427 22.239c-6.428 13.665-6.702 27.329-2.415 37.509 4.288 10.18 15.812 14.207 28.16 9.652 12.348-4.555 13.932-24.922 12.595-37.249-1.338-12.327-13.376-26.794-16.08-34.031-2.703-7.237-4.554-10.982-4.554-10.982s-6.97 9.644-11.264 11.785l-.015 1.077Z" stroke="#263238" stroke-linecap="round" stroke-linejoin="round"/><path d="m228.209 242.829-45.709-1.844a3.654 3.654 0 0 0-3.798 3.504l-2.546 63.111a3.654 3.654 0 0 0 3.504 3.798l45.709 1.844a3.654 3.654 0 0 0 3.798-3.503l2.546-63.112a3.654 3.654 0 0 0-3.504-3.798Z" fill="#263238" stroke="#263238" stroke-linecap="round" stroke-linejoin="round"/><path d="M251.498 268.358s-23.401-7.28-27.393-8.505c-3.992-1.225-26.984 15.946-27.899 18.396-.916 2.45 2.45 2.457 2.45 2.457s-1.408 2.45.704 3.675c.666.448 1.373.833 2.112 1.147 0 0-1.225 2.76 1.225 3.682 2.449.922 5.829-1.534 5.829-1.534l5.519-3.985s-6.632 8.117-5.217 9.814c1.95 2.323 3.197-.169 3.197-.169l7.624-9.033 7.659-3.682s6.132 3.682 15.946 3.985c9.814.303 11.968-3.985 11.968-3.985" fill="#fff"/><path d="M251.498 268.358s-23.401-7.28-27.393-8.505c-3.992-1.225-26.984 15.946-27.899 18.396-.916 2.45 2.45 2.457 2.45 2.457s-1.408 2.45.704 3.675c.666.448 1.373.833 2.112 1.147 0 0-1.225 2.76 1.225 3.682 2.449.922 5.829-1.534 5.829-1.534l5.519-3.985s-6.632 8.117-5.217 9.814c1.95 2.323 3.197-.169 3.197-.169l7.624-9.033 7.659-3.682s6.132 3.682 15.946 3.985c9.814.303 11.968-3.985 11.968-3.985" stroke="#263238" stroke-linecap="round" stroke-linejoin="round"/><path d="M201.521 285.528s8.595-5.899 10.736-8.032c2.14-2.133 9.074-6.59 11.214-6.59M214.094 283.712s4.224-4.773 5.815-5.484c1.591-.711 3.914-1.781 3.914-1.781M198.655 280.706s11.968-8.448 16.066-10.933a57.776 57.776 0 0 1 7.652-3.921" stroke="#263238" stroke-linecap="round" stroke-linejoin="round"/></svg>