<svg width="254" height="169" fill="none" xmlns="http://www.w3.org/2000/svg"><path d="M136.144 73.035a16.505 16.505 0 0 0-20.498 1.7 16.432 16.432 0 0 0-5.002 9.662 16.417 16.417 0 0 0 2.132 10.665M142.002 80.011c-.32-.72-.692-1.417-1.11-2.085M140.598 95.864a16.481 16.481 0 0 0 2.465-12.56M110.578 70.344a23.608 23.608 0 0 0-2.997 3.678" stroke="#263238" stroke-width=".97" stroke-linecap="round" stroke-linejoin="round"/><path d="M145.227 100.802a23.06 23.06 0 0 0 4.821-14.986 23.062 23.062 0 0 0-5.922-14.587 23.15 23.15 0 0 0-13.913-7.41 23.173 23.173 0 0 0-15.439 3.21M108.603 100.802a23.122 23.122 0 0 1-3.766-21.112M101.353 106.639a32.546 32.546 0 0 0 4.87 4.996" stroke="#263238" stroke-width=".97" stroke-linecap="round" stroke-linejoin="round"/><path d="M145.308 59.938a32.532 32.532 0 0 0-19.747-5.642 32.526 32.526 0 0 0-19.191 7.307 32.416 32.416 0 0 0-10.964 17.335 32.364 32.364 0 0 0 1.646 20.434M157.229 74.962a32.349 32.349 0 0 0-3.342-6.385M149.386 110.09a32.308 32.308 0 0 0 7.423-10.682 32.263 32.263 0 0 0 2.605-12.738M81.55 86.67a45.47 45.47 0 0 0 10.772 29.38 45.633 45.633 0 0 0 27.227 15.503" stroke="#263238" stroke-width=".97" stroke-linecap="round" stroke-linejoin="round"/><path d="M163.576 113.754a45.474 45.474 0 0 0 8.916-25.854 45.469 45.469 0 0 0-7.53-26.29 45.61 45.61 0 0 0-21.261-17.244 45.708 45.708 0 0 0-27.325-1.98M81.55 86.67a45.472 45.472 0 0 1 9.753-28.133 45.627 45.627 0 0 1 25.086-16.105M153.887 123.37a45.254 45.254 0 0 0 3.342-2.704M134.521 131.553a45.362 45.362 0 0 0 14.763-5.205" stroke="#263238" stroke-width=".97" stroke-linecap="round" stroke-linejoin="round"/><path d="M126.936 127.477a17.46 17.46 0 0 1-12.313-5.099 17.385 17.385 0 0 1-5.108-12.288v-5.854a.947.947 0 0 1 .948-.947h2.371a.948.948 0 0 1 .67 1.616.947.947 0 0 1-.67.277h-1.413v4.908c0 4.109 1.636 8.05 4.547 10.956a15.54 15.54 0 0 0 10.978 4.538c4.117 0 8.066-1.632 10.977-4.538a15.477 15.477 0 0 0 4.547-10.956v-4.908h-1.422a.947.947 0 1 1 0-1.893h2.371a.948.948 0 0 1 .948.947v5.854a17.394 17.394 0 0 1-5.112 12.292 17.46 17.46 0 0 1-12.319 5.095ZM145.305 142.024v-1.893a1.892 1.892 0 0 0-1.897-1.892h-32.945a1.883 1.883 0 0 0-1.342.553 1.892 1.892 0 0 0-.555 1.339v1.893h36.739Z" fill="#263238"/><path d="M128.785 140.544c.031-.135.047-.274.047-.413V126.53h-3.793v13.601c0 .139.016.278.047.413h3.699Z" fill="#263238"/><path d="M138.667 86.67a11.677 11.677 0 0 0-.835-4.543 11.716 11.716 0 0 0-6.361-6.457 11.756 11.756 0 0 0-12.905 2.59 11.716 11.716 0 0 0-2.53 3.867 11.677 11.677 0 0 0-.835 4.543v23.42a11.696 11.696 0 0 0 3.506 8.152 11.745 11.745 0 0 0 16.454 0 11.696 11.696 0 0 0 3.506-8.152V86.67Z" stroke="#263238" stroke-width=".97" stroke-linecap="round" stroke-linejoin="round"/><path d="M138.667 86.67a11.677 11.677 0 0 0-.835-4.543 11.716 11.716 0 0 0-6.361-6.457 11.756 11.756 0 0 0-12.905 2.59 11.716 11.716 0 0 0-2.53 3.867 11.677 11.677 0 0 0-.835 4.543v23.42a11.696 11.696 0 0 0 3.506 8.152 11.745 11.745 0 0 0 16.454 0 11.696 11.696 0 0 0 3.506-8.152V86.67Z" fill="#E8E8E8"/><path d="M122.076 87.904h-6.875v2.839h6.875a1.425 1.425 0 0 0 1.423-1.42 1.417 1.417 0 0 0-1.423-1.42ZM138.668 87.904h-6.872a1.42 1.42 0 1 0 0 2.839h6.872v-2.84ZM126.936 87.904a1.424 1.424 0 0 0-1.314.876 1.413 1.413 0 0 0 .308 1.547 1.426 1.426 0 0 0 2.189-.215 1.42 1.42 0 0 0-1.183-2.208ZM126.936 93.643a1.425 1.425 0 0 0-1.314.876 1.413 1.413 0 0 0 .308 1.547 1.426 1.426 0 0 0 2.189-.215 1.42 1.42 0 0 0-1.183-2.208ZM126.936 99.372a1.424 1.424 0 0 0-1.314.876 1.416 1.416 0 0 0 .308 1.547 1.424 1.424 0 0 0 2.189-.215 1.418 1.418 0 0 0-1.183-2.208ZM122.076 93.643h-6.875v2.84h6.875a1.425 1.425 0 0 0 1.423-1.42 1.418 1.418 0 0 0-1.423-1.42ZM138.668 93.643h-6.872a1.421 1.421 0 0 0-1.005 2.423 1.42 1.42 0 0 0 1.005.416h6.872v-2.84ZM122.076 99.372h-6.875v2.839h6.875a1.422 1.422 0 0 0 1.423-1.419 1.425 1.425 0 0 0-1.423-1.42ZM138.668 99.372h-6.872a1.42 1.42 0 0 0-1.005 2.423c.266.267.628.416 1.005.416h6.872v-2.839Z" fill="#fff"/><path d="M138.667 86.67a11.677 11.677 0 0 0-.835-4.543 11.716 11.716 0 0 0-6.361-6.457 11.756 11.756 0 0 0-12.905 2.59 11.716 11.716 0 0 0-2.53 3.867 11.677 11.677 0 0 0-.835 4.543v23.42a11.696 11.696 0 0 0 3.506 8.152 11.745 11.745 0 0 0 16.454 0 11.696 11.696 0 0 0 3.506-8.152V86.67Z" stroke="#263238" stroke-width=".97" stroke-miterlimit="10"/><path d="M115.201 110.09a11.7 11.7 0 0 0 3.506 8.152 11.747 11.747 0 0 0 16.454 0 11.696 11.696 0 0 0 3.506-8.152h-23.466Z" fill="#263238" stroke="#263238" stroke-width=".97" stroke-miterlimit="10"/><path d="M226.46 104.191c14.651-14.623 14.651-38.33 0-52.953-14.652-14.623-38.407-14.623-53.058 0-14.652 14.623-14.652 38.33 0 52.953 14.651 14.623 38.406 14.623 53.058 0Z" fill="#E8E8E8"/><path d="M194.551 62.222h-26.21a2.389 2.389 0 0 0-2.391 2.387v26.157a2.389 2.389 0 0 0 2.391 2.387h26.21a2.389 2.389 0 0 0 2.391-2.387V64.61a2.389 2.389 0 0 0-2.391-2.387Z" fill="#fff"/><g opacity=".1" fill="#000"><path opacity=".1" d="M168.874 93.156h10.343l6.59-30.934h-10.763l-6.58 30.9c.135.022.272.033.41.034ZM190.189 62.222h-2.587l-6.587 30.934h2.587l6.587-30.934Z"/></g><path d="M194.019 93.927h-25.146a3.706 3.706 0 0 1-2.609-1.08 3.69 3.69 0 0 1-1.086-2.601V65.139a3.69 3.69 0 0 1 1.084-2.605 3.704 3.704 0 0 1 2.611-1.082h25.146a3.692 3.692 0 0 1 3.698 3.688v25.106a3.693 3.693 0 0 1-1.088 2.602 3.705 3.705 0 0 1-2.61 1.079Zm-25.146-30.93a2.145 2.145 0 0 0-2.151 2.143v25.106a2.149 2.149 0 0 0 2.151 2.15h25.146a2.152 2.152 0 0 0 2.15-2.15V65.139a2.135 2.135 0 0 0-1.328-1.98 2.15 2.15 0 0 0-.822-.163h-25.146Z" fill="#fff" stroke="#263238" stroke-width=".933" stroke-miterlimit="10"/><path d="M231.002 62.222h-26.21a2.389 2.389 0 0 0-2.391 2.387v26.157a2.389 2.389 0 0 0 2.391 2.387h26.21a2.389 2.389 0 0 0 2.391-2.387V64.61a2.389 2.389 0 0 0-2.391-2.387Z" fill="#fff"/><g opacity=".1" fill="#000"><path opacity=".1" d="M208.029 93.156h10.343l6.587-30.934H214.2l-6.597 30.9c.141.022.283.034.426.034ZM229.345 62.222h-2.588l-6.59 30.934h2.591l6.587-30.934Z"/></g><path d="M230.47 93.927h-25.146a3.708 3.708 0 0 1-2.609-1.08 3.69 3.69 0 0 1-1.086-2.601V65.139a3.694 3.694 0 0 1 3.695-3.687h25.146a3.692 3.692 0 0 1 3.698 3.688v25.106a3.693 3.693 0 0 1-1.088 2.602 3.703 3.703 0 0 1-2.61 1.079Zm-25.146-30.93a2.145 2.145 0 0 0-2.151 2.143v25.106a2.149 2.149 0 0 0 2.151 2.15h25.146a2.16 2.16 0 0 0 1.522-.63 2.148 2.148 0 0 0 .628-1.52V65.139a2.14 2.14 0 0 0-2.15-2.143h-25.146Z" fill="#fff" stroke="#263238" stroke-width=".933" stroke-miterlimit="10"/><path d="M200.945 149.893c9.32 0 16.876-1.109 16.876-2.478 0-1.368-7.556-2.477-16.876-2.477s-16.876 1.109-16.876 2.477c0 1.369 7.556 2.478 16.876 2.478Z" fill="#E8E8E8"/><path d="M208.403 132.983s-.044 6.939-.779 8.081c-.877 1.352-1.5 3.242.823 3.756 2.323.513 3.705 3.072 6.472 3.241 2.767.169 3.048-1.014 1.842-1.964s-4.267-3.583-4.67-4.864c-.403-1.281.379-8.25.379-8.25h-4.067Z" fill="#fff"/><path opacity=".1" d="M212.1 137.012c.149-2.045.37-4.029.37-4.029h-4.064s0 1.774-.119 3.677a23.11 23.11 0 0 0 3.813.352Z" fill="#000"/><path d="M208.403 132.983s-.044 6.939-.779 8.081c-.877 1.352-1.5 3.242.823 3.756 2.323.513 3.705 3.072 6.472 3.241 2.767.169 3.048-1.014 1.842-1.964s-4.267-3.583-4.67-4.864c-.403-1.281.379-8.25.379-8.25h-4.067Z" stroke="#263238" stroke-width=".933" stroke-linecap="round" stroke-linejoin="round"/><path d="M216.747 146.097a34.53 34.53 0 0 1-3.21-2.883c-.965.73-3.793.041-4.626-.615-1.016-.798-.803-1.207-1.284-1.565l-.017.03c-.877 1.352-1.5 3.242.823 3.756 2.323.513 3.705 3.072 6.472 3.241 2.767.169 3.055-1.031 1.842-1.964Z" fill="#BFBFBF" stroke="#263238" stroke-width=".933" stroke-miterlimit="10"/><path d="M192.78 130.468s-3.048 6.348-4.2 7.122c-1.392.926-2.773 2.416-.867 3.745 1.907 1.328 2.076 4.188 4.539 5.367 2.462 1.18 3.23.183 2.536-1.119-.694-1.301-2.371-4.863-2.184-6.188.186-1.325 3.935-7.575 3.935-7.575l-3.759-1.352Z" fill="#fff"/><path opacity=".1" d="M192.78 130.468s-1.091 2.278-2.212 4.269a11.941 11.941 0 0 0 3.089 2.207c1.168-2.258 2.882-5.114 2.882-5.114l-3.759-1.362Z" fill="#000"/><path d="M192.78 130.468s-3.048 6.348-4.2 7.122c-1.392.926-2.773 2.416-.867 3.745 1.907 1.328 2.076 4.188 4.539 5.367 2.462 1.18 3.23.183 2.536-1.119-.694-1.301-2.371-4.863-2.184-6.188.186-1.325 3.935-7.575 3.935-7.575l-3.759-1.352Z" stroke="#263238" stroke-width=".933" stroke-linecap="round" stroke-linejoin="round"/><path d="M194.788 145.566a31.52 31.52 0 0 1-1.693-3.832c-1.202.314-3.702-1.292-3.976-2.272-.532-1.889-.217-1.403-.505-1.91l-.027.021c-1.392.926-2.773 2.416-.867 3.745 1.907 1.328 2.076 4.188 4.538 5.367 2.462 1.18 3.224.183 2.53-1.119Z" fill="#BFBFBF" stroke="#263238" stroke-width=".933" stroke-miterlimit="10"/><path d="M208.894 85.551s4.663 22.308 4.975 29.585c.311 7.277-.901 20.257-.901 20.257l-5.178-.338s-.034-3.837-.552-9.177c-.308-3.174-1.277-6.878-1.169-10.623 0 0-4.92-14.565-4.741-20.956.18-6.392 0-8.23 0-8.23l7.566-.518Z" fill="#263238" stroke="#263238" stroke-width=".933" stroke-linecap="round" stroke-linejoin="round"/><path d="M196.427 85.551s-4.836 3.989-2.032 12.03c1.104 3.19 5.364 17.785 5.364 17.785a20.372 20.372 0 0 0-2.946 4.411c-1.944 3.833-3.36 9.802-5.757 13.226l3.549 2.39s11.46-14.338 12.192-18.891c.731-4.553-2.709-22.758-2.709-22.758l-1.101-7.398-6.56-.795Z" fill="#263238" stroke="#263238" stroke-width=".933" stroke-linecap="round" stroke-linejoin="round"/><path d="M217.875 70.433a4.465 4.465 0 0 0-.742-2.113c.355-.466.663-.967.918-1.494.257-.618-.085-1.494-.799-.446-.715 1.048-1.5 1.812-1.216 3.12a3.64 3.64 0 0 1-.433 2.457l1.649 1.288 3.288-2.603-2.665-.21Z" fill="#fff" stroke="#263238" stroke-width=".933" stroke-linecap="round" stroke-linejoin="round"/><path d="m219.424 63.746-2.765.75a.476.476 0 0 0-.335.586l1.575 5.782a.477.477 0 0 0 .586.335l2.765-.75a.477.477 0 0 0 .335-.585l-1.575-5.783a.478.478 0 0 0-.586-.335Z" fill="#263238" stroke="#263238" stroke-width=".933" stroke-linecap="round" stroke-linejoin="round"/><path d="m220.03 64.153-3.686 1 1.537 5.643 3.686-1-1.537-5.643Z" fill="#E8E8E8" stroke="#263238" stroke-width=".933" stroke-linecap="round" stroke-linejoin="round"/><path d="M219.291 66.106a.679.679 0 0 0-1.314.338c.044.17.264.963.338 1.244l1.314-.355c-.074-.26-.298-1.085-.338-1.227ZM219.168 68.249a.68.68 0 0 0 .491-.767l-1.304.338a.678.678 0 0 0 .813.429Z" fill="#263238"/><path d="m220.394 68.952-.853.233-.176-.642a1.052 1.052 0 0 0 .636-1.257l-.094-.338a.07.07 0 0 0-.009-.02.07.07 0 0 0-.016-.015.062.062 0 0 0-.021-.007.053.053 0 0 0-.022.001l-.142.037a.044.044 0 0 0-.02.01.06.06 0 0 0-.015.018.078.078 0 0 0-.006.021.081.081 0 0 0 .012.042.07.07 0 0 0 .016.015.053.053 0 0 0 .043.006l.085-.024.078.287a.942.942 0 0 1-1.819.494l-.081-.287.084-.02a.057.057 0 0 0 .034-.028.06.06 0 0 0 .007-.044.056.056 0 0 0-.049-.042c-.007 0-.015 0-.022.002l-.139.037a.057.057 0 0 0-.02.01.055.055 0 0 0-.022.038.057.057 0 0 0 .001.023l.095.338a1.06 1.06 0 0 0 1.186.764l.172.642-.853.23a.114.114 0 0 0-.081.142l.03.111 2.154-.584-.03-.112a.12.12 0 0 0-.02-.04.116.116 0 0 0-.078-.044.115.115 0 0 0-.045.003Z" fill="#263238"/><path d="M220.743 65.47c-.339.038-.62.569-.515 1.316.105.746.793-.065.833-.301.041-.237.329-1.079-.318-1.014ZM221.488 66.586a.605.605 0 0 0-.6.723c.065.727.207.558.207.558.003.3.064.596.18.872.169.321.616-.166.616-.456 0-.29-.048-1.819-.403-1.697Z" fill="#fff" stroke="#263238" stroke-width=".933" stroke-linecap="round" stroke-linejoin="round"/><path d="M221.099 67.853s.586-.172.724-.598l-.724.599Z" fill="#fff"/><path d="M221.099 67.853s.586-.172.724-.598" stroke="#263238" stroke-width=".933" stroke-linecap="round" stroke-linejoin="round"/><path d="M216.008 70.926a3.27 3.27 0 0 0 .027-1.427c-.284-1.307.498-2.075 1.216-3.12.718-1.044 1.057-.172.8.447a8.839 8.839 0 0 1-.918 1.494c.458.612.716 1.35.741 2.112v.984" fill="#fff"/><path d="M216.008 70.926a3.27 3.27 0 0 0 .027-1.427c-.284-1.307.498-2.075 1.216-3.12.718-1.044 1.057-.172.8.447a8.839 8.839 0 0 1-.918 1.494c.458.612.716 1.35.741 2.112v.984" stroke="#263238" stroke-width=".933" stroke-linecap="round" stroke-linejoin="round"/><path d="M206.926 62.757c1.179-.247 1.541-.548 1.541-.548-.884-3.552 2.286-15.5-7.705-16.052-9.99-.55-4.402 16.38-4.402 16.38l1.087.138-.559-3.403 1.3 3.488c3.848.416 6.313.338 7.864.142a18.982 18.982 0 0 1-.064-4.63c.195 1.516.509 3.016.938 4.485Z" fill="#263238"/><path d="M200.758 46.37a2.429 2.429 0 0 0-2.993-.338" stroke="#263238" stroke-width=".933" stroke-linecap="round" stroke-linejoin="round"/><path d="M208.368 64.923v-.108c-.02.047-.04.08 0 .108Z" fill="#fff" stroke="#263238" stroke-width=".933" stroke-linecap="round" stroke-linejoin="round"/><path d="m215.602 71.957-4.741 4.394.088-6.584a5.893 5.893 0 0 0-2.669-5.026l.18 17.329c4.656.294 8.805-8.825 8.805-8.825a2.537 2.537 0 0 0-1.663-1.288Z" fill="#fff"/><path opacity=".1" d="M210.133 79.944c-.705.064-.864-1.281-.854-2.59a5.984 5.984 0 0 0-.389 1.535 71.806 71.806 0 0 0-.037 4.232c5.303-2.4 5.367-4.54 6.729-6.723-.867 1.099-4.091 3.42-5.449 3.546Z" fill="#000"/><path d="m215.602 71.957-4.741 4.394.088-6.584a5.893 5.893 0 0 0-2.669-5.026l.18 17.329c4.656.294 8.805-8.825 8.805-8.825a2.537 2.537 0 0 0-1.663-1.288v0Z" stroke="#263238" stroke-width=".933" stroke-linecap="round" stroke-linejoin="round"/><path d="m214.597 72.525 1.039-.984 2.28 1.562-.664 1.102-2.655-1.68Z" fill="#E8E8E8" stroke="#263238" stroke-width=".933" stroke-linecap="round" stroke-linejoin="round"/><path d="M210.153 73.008c-1.91 8.45-.962 14.003-.962 14.003s-4.609 3.262-14.298.497c0 0 1.761-4.37 1.286-7.703-.287-2.051-2.218-9.427-2.218-9.427s-.914-3.224-.494-5.827c.809-.524 2.543-1.156 5.608-1.379a2.92 2.92 0 0 0 .105-.524c.097-.86.119-1.726.064-2.589-.044-1.014-.128-1.822-.128-1.822h3.698s.047.933.166 2.028c.064.646.156 1.352.271 1.96.057.305.13.607.22.903 3.691.555 5.08 1.514 5.348 2.35 1.256 3.765 1.74 5.725 1.334 7.53Z" fill="#fff" stroke="#263238" stroke-width=".933" stroke-linecap="round" stroke-linejoin="round"/><path d="M202.99 60.86c-.301.676-.677 1.21-1.981 1.204-.969 0-1.842-.855-1.941-1.183.105-.74 0-1.014-.044-1.853a21.688 21.688 0 0 1 3.726.217c.052.542.133 1.081.24 1.615Z" fill="#263238"/><path d="M205.449 53.624v-.808c-.274-1.312-1.9-1.38-2.648-1.376a5.767 5.767 0 0 1-2.31-.402 3.312 3.312 0 0 0 1.148 1.426c-2.784-.618-3-2.085-2.895-2.876-.989 3.451-2.273 3.596-2.273 3.596s0 .308.058.805a1.415 1.415 0 0 0-1.094 1.497 1.397 1.397 0 0 0 1.354 1.413 1.14 1.14 0 0 0 .217-.03c.59 2.284 1.799 4.769 4.274 4.67 2.476-.097 3.485-2.673 3.885-4.998.073.006.147.006.22 0a1.391 1.391 0 0 0 1.25-1.518 1.414 1.414 0 0 0-1.186-1.4Z" fill="#fff" stroke="#263238" stroke-width=".933" stroke-linecap="round" stroke-linejoin="round"/><path d="m200.491 57.494.427.307a.312.312 0 0 0 .372 0l.393-.3M202.117 55.57s.528-.696 1.582-.206M199.814 55.57s-.525-.696-1.582-.206M202.136 58.72a1.77 1.77 0 0 1-2.082.085" stroke="#263238" stroke-width=".933" stroke-linecap="round" stroke-linejoin="round"/><path d="M206.611 117.242c-.12.371-.261.735-.42 1.092M201.666 92.612l1.104.987a5.683 5.683 0 0 1 1.832 3.38c.945 6 2.462 12.168 2.276 18.685" stroke="#fff" stroke-width=".933" stroke-linecap="round" stroke-linejoin="round"/><path d="m205.846 92.788-1.751 2.498.22-.308" stroke="#fff" stroke-width=".933" stroke-linecap="round" stroke-linejoin="round"/><path d="m198.927 82.766.501.514M195.3 75.685a17.268 17.268 0 0 0 2.763 5.993" stroke="#263238" stroke-width=".933" stroke-linecap="round" stroke-linejoin="round"/><path d="m195.397 52.828-.376.015.054 1.334.376-.015-.054-1.334ZM206.861 52.347l-.376.015.054 1.334.376-.015-.054-1.334Z" fill="#fff" stroke="#263238" stroke-width=".933" stroke-linecap="round" stroke-linejoin="round"/><path d="M200.704 46.773a6.177 6.177 0 0 0-4.207 1.894 6.15 6.15 0 0 0-1.713 4.277c.001.03.007.06.019.087.012.028.03.052.051.073a.228.228 0 0 0 .164.06h.396a.221.221 0 0 0 .213-.226 5.311 5.311 0 0 1 1.499-3.66 5.332 5.332 0 0 1 9.136 3.234.217.217 0 0 0 .23.206h.396a.218.218 0 0 0 .158-.073.209.209 0 0 0 .044-.076.218.218 0 0 0 .012-.088 6.148 6.148 0 0 0-2.04-4.148 6.17 6.17 0 0 0-4.358-1.56ZM196.089 53.644h-.088a1.949 1.949 0 0 0-1.352.625 1.942 1.942 0 0 0 .113 2.743c.38.35.882.533 1.398.512h.085l-.156-3.88Z" fill="#E8E8E8" stroke="#263238" stroke-width=".933" stroke-linecap="round" stroke-linejoin="round"/><path d="M196.614 55.56c.057 1.44.159 2.366-.339 2.397-.498.03-.708-.91-.765-2.366-.058-1.457.074-2.366.572-2.4.498-.034.474.93.532 2.37Z" fill="#fff" stroke="#263238" stroke-width=".933" stroke-linecap="round" stroke-linejoin="round"/><path d="M205.876 53.252h.088a1.95 1.95 0 0 1 1.844 1.126 1.937 1.937 0 0 1-.95 2.577 1.949 1.949 0 0 1-.738.177h-.088l-.156-3.88Z" fill="#E8E8E8" stroke="#263238" stroke-width=".933" stroke-linecap="round" stroke-linejoin="round"/><path d="M205.49 55.206c.057 1.44.034 2.366.532 2.366.497 0 .629-.964.572-2.404-.058-1.44-.268-2.366-.762-2.349-.495.017-.4.947-.342 2.387Z" fill="#fff" stroke="#263238" stroke-width=".933" stroke-linecap="round" stroke-linejoin="round"/><path d="M197.501 54.293s1.29-1.065 2.513-.102M204.582 54.08s-1.354-.956-2.513.102" stroke="#263238" stroke-width=".933" stroke-linecap="round" stroke-linejoin="round"/><path d="M198.588 62.702s.772 1.934 3.637 2.366c0 0-1.144 2.366-2.709 1.437-1.873-1.109-2.232-3.41-2.232-3.41l1.304-.393Z" fill="#E8E8E8" stroke="#263238" stroke-width=".933" stroke-linecap="round" stroke-linejoin="round"/><path d="M203.837 62.942a2.187 2.187 0 0 1-1.768 2.194s1.392 2.278 2.534 1.014c1.141-1.264.254-2.985.254-2.985l-1.02-.223ZM203.201 69.652a.34.34 0 1 1-.678-.001.34.34 0 0 1 .678 0ZM203.661 76.307a.34.34 0 1 1-.652-.13.34.34 0 0 1 .652.13ZM204.094 83.121a.34.34 0 0 1-.578.239.339.339 0 1 1 .578-.239Z" fill="#E8E8E8" stroke="#263238" stroke-width=".933" stroke-linecap="round" stroke-linejoin="round"/><path d="M233.938 37.805h-68.621a.575.575 0 0 0-.576.575v1.234c0 .317.258.574.576.574h68.621a.575.575 0 0 0 .575-.574V38.38a.575.575 0 0 0-.575-.575Z" fill="#fff"/><path d="M233.823 40.188h-68.39M165.433 37.805h68.39" stroke="#263238" stroke-width=".933" stroke-linecap="round" stroke-linejoin="round"/><path d="M186.721 53.84s-2.828-.395-2.98.362c-.153.757-.068 1.97.42 2.366.921.75.751 2.153.751 2.153l2.371-.23.061-1.183a2.4 2.4 0 0 1 .633-1.014c.854-.801.515-1.69.369-2.761-.145-1.072-.853-.595-.911-.041-.017.494.024.989.122 1.474l-.836-1.126Z" fill="#fff" stroke="#263238" stroke-width=".933" stroke-linecap="round" stroke-linejoin="round"/><path d="M187.384 54.881s-.677.139-1.212 1.095l1.212-1.095Z" fill="#fff"/><path d="M187.384 54.881s-.677.139-1.212 1.095" stroke="#263238" stroke-width=".933" stroke-linecap="round" stroke-linejoin="round"/><path d="M187.385 55.131h-3.428a1.496 1.496 0 0 1-1.233-.588 1.016 1.016 0 0 1 0-1.176l1.714-2.511a1.586 1.586 0 0 1 1.928-.441c.215.103.403.254.551.44l1.717 2.512a1.01 1.01 0 0 1 0 1.176 1.48 1.48 0 0 1-1.249.588Zm-4.064-1.487a.524.524 0 0 0 0 .615.775.775 0 0 0 .64.304h3.424a.776.776 0 0 0 .64-.304.523.523 0 0 0 0-.615l-1.714-2.508a.772.772 0 0 0-.647-.31.762.762 0 0 0-.643.31l-1.717 2.511.017-.003Z" fill="#263238"/><path d="M184.645 53.874c.176.892.068 1.21-.339 1.162-.406-.047-.816-1.142-.254-1.392a70.72 70.72 0 0 1 1.016-.443 1.322 1.322 0 0 1 1.179-.037c.806-.28.948.304.948.304s.583 1.69.098 1.748c-.484.057-.884-1.41-.884-1.41s.607 1.61.051 1.636c-.555.027-.877-1.562-.877-1.562s.362 1.396-.163 1.444c-.524.047-.775-1.45-.775-1.45ZM185.925 39.55h-.556v11.096h.556V39.549Z" fill="#fff" stroke="#263238" stroke-width=".933" stroke-linecap="round" stroke-linejoin="round"/><path d="m186.233 50.474-.363.53a.25.25 0 0 1-.31.072.254.254 0 0 1-.089-.072l-.359-.53c-.088-.125.024-.281.196-.281h.725c.176 0 .285.169.2.28ZM185.969 46.749h-.592a.294.294 0 0 0-.295.294v2.46c0 .163.132.294.295.294h.592a.294.294 0 0 0 .295-.293v-2.461a.294.294 0 0 0-.295-.294ZM185.969 37.423h-.592a.295.295 0 0 0-.295.294v2.461c0 .162.132.294.295.294h.592a.295.295 0 0 0 .295-.294v-2.46a.295.295 0 0 0-.295-.295Z" fill="#fff" stroke="#263238" stroke-width=".933" stroke-linecap="round" stroke-linejoin="round"/><path d="M179.328 55.131h-3.427a1.49 1.49 0 0 1-1.233-.588 1.01 1.01 0 0 1 0-1.176l1.713-2.511a1.592 1.592 0 0 1 1.931-.441c.215.103.404.254.552.44l1.714 2.512a1.016 1.016 0 0 1 0 1.176 1.49 1.49 0 0 1-1.25.588Zm-4.064-1.487a.523.523 0 0 0 0 .615.78.78 0 0 0 .64.304h3.427a.786.786 0 0 0 .644-.304.53.53 0 0 0 0-.615l-1.714-2.508a.766.766 0 0 0-.647-.311.763.763 0 0 0-.643.311l-1.717 2.511.01-.003Z" fill="#263238"/><path d="M177.868 39.55h-.556v11.096h.556V39.549Z" fill="#fff" stroke="#263238" stroke-width=".933" stroke-linecap="round" stroke-linejoin="round"/><path d="m178.176 50.474-.376.53a.254.254 0 0 1-.399 0l-.359-.53c-.089-.125.023-.281.196-.281h.725c.176 0 .298.169.213.28ZM177.913 46.749h-.593a.294.294 0 0 0-.295.294v2.46c0 .163.132.294.295.294h.593a.294.294 0 0 0 .294-.293v-2.461a.294.294 0 0 0-.294-.294ZM177.913 37.423h-.593a.295.295 0 0 0-.295.294v2.461c0 .162.132.294.295.294h.593a.294.294 0 0 0 .294-.294v-2.46a.294.294 0 0 0-.294-.295Z" fill="#fff" stroke="#263238" stroke-width=".933" stroke-linecap="round" stroke-linejoin="round"/><path d="M214.244 55.131h-3.427a1.488 1.488 0 0 1-1.233-.588 1.009 1.009 0 0 1 0-1.176l1.714-2.511a1.577 1.577 0 0 1 1.239-.599 1.581 1.581 0 0 1 1.24.599l1.713 2.51a1.01 1.01 0 0 1 0 1.177 1.477 1.477 0 0 1-1.246.588Zm-4.064-1.487a.523.523 0 0 0 0 .615.778.778 0 0 0 .64.304h3.427a.77.77 0 0 0 .64-.304.523.523 0 0 0 0-.615l-1.713-2.508a.832.832 0 0 0-1.006-.23.823.823 0 0 0-.288.23l-1.714 2.511.014-.003Z" fill="#263238"/><path d="M212.781 39.55h-.555v11.096h.555V39.549Z" fill="#fff" stroke="#263238" stroke-width=".933" stroke-linecap="round" stroke-linejoin="round"/><path d="m213.09 50.474-.359.53a.254.254 0 0 1-.4 0l-.359-.53c-.088-.125.024-.281.197-.281h.724c.173 0 .285.169.197.28ZM212.829 46.749h-.593a.294.294 0 0 0-.295.294v2.46c0 .163.132.294.295.294h.593a.294.294 0 0 0 .294-.293v-2.461a.294.294 0 0 0-.294-.294ZM212.829 37.423h-.593a.295.295 0 0 0-.295.294v2.461c0 .162.132.294.295.294h.593a.294.294 0 0 0 .294-.294v-2.46a.294.294 0 0 0-.294-.295Z" fill="#fff" stroke="#263238" stroke-width=".933" stroke-linecap="round" stroke-linejoin="round"/><path d="M221.922 55.131h-3.428a1.496 1.496 0 0 1-1.232-.588 1.01 1.01 0 0 1 0-1.176l1.713-2.511a1.588 1.588 0 0 1 2.483 0l1.713 2.51a1.01 1.01 0 0 1 0 1.177 1.482 1.482 0 0 1-1.249.588Zm-4.064-1.487a.524.524 0 0 0 0 .615.77.77 0 0 0 .64.304h3.427a.779.779 0 0 0 .644-.304.53.53 0 0 0 0-.615l-1.714-2.508a.774.774 0 0 0-.647-.311.767.767 0 0 0-.643.311l-1.718 2.511.011-.003Z" fill="#263238"/><path d="M220.463 39.55h-.556v11.096h.556V39.549Z" fill="#fff" stroke="#263238" stroke-width=".933" stroke-linecap="round" stroke-linejoin="round"/><path d="m220.771 50.474-.362.53a.257.257 0 0 1-.4 0l-.359-.53c-.088-.125.024-.281.196-.281h.725c.176 0 .285.169.2.28ZM220.506 46.749h-.592a.294.294 0 0 0-.295.294v2.46c0 .163.132.294.295.294h.592a.294.294 0 0 0 .295-.293v-2.461a.294.294 0 0 0-.295-.294ZM220.506 37.423h-.592a.295.295 0 0 0-.295.294v2.461c0 .162.132.294.295.294h.592a.295.295 0 0 0 .295-.294v-2.46a.295.295 0 0 0-.295-.295Z" fill="#fff" stroke="#263238" stroke-width=".933" stroke-linecap="round" stroke-linejoin="round"/><path d="m187.649 57.957.179 1.443-3.684.172.308-1.446 3.197-.17Z" fill="#E8E8E8" stroke="#263238" stroke-width=".933" stroke-linecap="round" stroke-linejoin="round"/><path d="M193.898 70.088s-6.398 5.87-7.874 5.962c-.363.024-.678.25-.983.044-.677-.46-1.656-1.433-1.513-5.388.074-2.163 1.385-11.177 1.385-11.177l2.37-.105.576 10.14c2.032-2.102 5.564-5.016 5.568-5.016 1.104 3.522.471 5.54.471 5.54Z" fill="#fff" stroke="#263238" stroke-width=".933" stroke-linecap="round" stroke-linejoin="round"/><path d="M210.031 78.25a5.21 5.21 0 0 1 .891-1.94l-.891 1.94Z" fill="#fff"/><path d="M210.031 78.25a5.21 5.21 0 0 1 .891-1.94M187.134 71.95c.247-.112.836-1.21.714-3.086" stroke="#263238" stroke-width=".933" stroke-linecap="round" stroke-linejoin="round"/><path d="M189.406 47.87v-4.038a.74.74 0 0 1 .739-.737h6.353a.743.743 0 0 1 .738.737v4.039a.738.738 0 0 1-.738.737h-2.212l.177 1.538h-1.142v1.453l-1.354-2.366h1.107l-.115-.622h-2.818a.736.736 0 0 1-.735-.74Z" fill="#fff" stroke="#263238" stroke-width=".933" stroke-linecap="round" stroke-linejoin="round"/><path d="M194.913 44.477h-4.294M196.024 45.623h-5.405M195.191 46.766h-4.572" stroke="#263238" stroke-width=".933" stroke-linecap="round" stroke-linejoin="round"/><path d="M48.104 147.841c8.733 0 15.813-1.039 15.813-2.322 0-1.282-7.08-2.322-15.813-2.322s-15.812 1.04-15.812 2.322c0 1.283 7.08 2.322 15.812 2.322ZM46.719 108.515c15.208 0 27.537-12.305 27.537-27.483S61.926 53.55 46.719 53.55c-15.209 0-27.537 12.305-27.537 27.483s12.328 27.483 27.537 27.483Z" fill="#E8E8E8"/><path d="M34.019 99.004s.7 4.056-1.666 8.615h29.602s-1.354-2.126-2.773-8.615H34.019Z" fill="#fff" stroke="#263238" stroke-width=".874" stroke-linecap="round" stroke-linejoin="round"/><path d="M40.769 99.94a8.837 8.837 0 0 0-4.489 1.657 8.811 8.811 0 0 0-2.962 3.751c-.319.771-.65 1.551-.965 2.281-1.802 4.161-.099 10.215 4.507 10.215h21.12c4.175 0 5.317-5.276 4.318-9.251-.644-2.556-1.941-5.121-4.156-6.919-2.96-2.417-11.61-2.194-17.373-1.734Z" fill="#263238" stroke="#263238" stroke-width=".874" stroke-linecap="round" stroke-linejoin="round"/><path d="M20.604 95.475s-3.786 2.285-3.912 3.529h4.643l1.846-1.322-.623 1.328h1.412s1.5-1.162 1.582-2.45l-.152-1.085-2.71-1.203-2.086 1.203Z" fill="#fff" stroke="#263238" stroke-width=".874" stroke-linecap="round" stroke-linejoin="round"/><path d="M64.956 87.082s-.606-3.978-1.937-9.707c-1.331-5.729-3.932-6.179-3.932-6.179h-.024c-3.386-1.453-12.192-2.237-12.192-2.237h-.406s-8.826.784-12.192 2.237h-.024s-2.625.46-3.956 6.18c-1.33 5.718-1.94 9.706-1.94 9.706s-2.405.65-6.733 6.084a14.357 14.357 0 0 0-1.724 2.792s3.326-1.091 5.656.582c0 0 7.634-3.232 8.017-6.639 0-.121.03-.257.047-.402.217 5.172.403 9.491.403 9.491H59.29s.19-4.32.407-9.49c0 .144.03.28.044.401.386 3.407 8.835 7.227 8.835 7.227 2.317-3.556 5.68-1.592 5.68-1.592l-9.3-8.454Z" fill="#fff"/><path opacity=".3" d="M33.569 89.908c0-.101.027-.216.04-.338l-.551-11.969s-1.524.311-1.087 3.986c.436 3.673 1.354 3.041.843 4.458-.512 1.416-2.496-.207-3.153 1.014-.657 1.22 3.67.96 1.883 4.103-1.788 3.143-5.991 5.408-5.991 5.408s7.637-3.248 8.016-6.662ZM59.86 89.908c0-.101.995.074 0 0l.3-10.245s-.074 4.955.458 6.382c.532 1.426 2.496-.207 3.15 1.014.653 1.22-3.672.96-1.88 4.103 1.791 3.143 5.988 5.408 5.988 5.408s-7.63-3.248-8.017-6.662ZM59.473 92.24l-.29 6.76H36.46c15.24 0 23.03-6.76 23.03-6.76h-.018Z" fill="#000"/><path d="M64.956 87.082s-.606-3.978-1.937-9.707c-1.331-5.729-3.932-6.179-3.932-6.179h-.024c-3.386-1.453-12.192-2.237-12.192-2.237h-.406s-8.826.784-12.192 2.237h-.024s-2.625.46-3.956 6.18c-1.33 5.718-1.94 9.706-1.94 9.706s-2.405.65-6.733 6.084a14.357 14.357 0 0 0-1.724 2.792v0s3.326-1.091 5.656.582c0 0 7.634-3.232 8.017-6.639 0-.121.03-.257.047-.402.217 5.172.403 9.491.403 9.491H59.29s.19-4.32.407-9.49c0 .144.03.28.044.401.386 3.407 8.835 7.227 8.835 7.227 2.317-3.556 5.68-1.592 5.68-1.592l-9.3-8.454Z" stroke="#263238" stroke-width=".874" stroke-linecap="round" stroke-linejoin="round"/><path d="M29.162 87.059a4.69 4.69 0 0 1 3.33 1.16M31.543 77.96s1.565.338 1.924 7.93l-.471-9.965M33.487 86.944l.072 1.538M64.15 87.059a4.69 4.69 0 0 0-3.329 1.142M60.222 77.96c.03-.676.06-1.352.095-2.028" stroke="#263238" stroke-width=".874" stroke-linecap="round" stroke-linejoin="round"/><path d="M51.399 69.506c-.41 2.049-2.395 2.789-4.785 2.789-2.392 0-4.37-.737-4.786-2.779h.095a1.237 1.237 0 0 0 1.036-.94.942.942 0 0 0 .051-.3v-2.403h7.315v2.403a1.24 1.24 0 0 0 1.074 1.23Z" fill="#fff"/><path d="M50.265 67.671c-1.213 1.19-2.564 1.93-3.868 1.988-1.355.06-2.926-1.048-3.566-2.137.026-.094.04-.192.037-.29v-.737l7.316.078v.659c0 .155.186.338.08.44Z" fill="#263238"/><path d="M51.399 69.506c-.41 2.049-2.395 2.789-4.785 2.789-2.392 0-4.37-.737-4.786-2.779h.095a1.237 1.237 0 0 0 1.036-.94.942.942 0 0 0 .051-.3v-2.403h7.315v2.403a1.241 1.241 0 0 0 1.074 1.23v0Z" stroke="#263238" stroke-width=".874" stroke-linecap="round" stroke-linejoin="round"/><path d="M41.27 60.712s-2.537-2.863-2.205-6.808c.332-3.944 3.576-3.944 3.576-3.944s3.912-3.444 8.277-1.288c4.366 2.157 4.064 9.633.834 11.492l-10.482.548Z" fill="#263238"/><path d="M52.453 58.785c.034-.656.03-1.061.03-1.061-.29-1.744-2.428-1.92-3.41-1.95-4.115-.14-5.199-2.657-5.199-2.657-2.495-.747-3.203 4.607-3.203 4.607s0 .405.034 1.061a1.87 1.87 0 0 0-1.518 1.913c0 1.068.772 1.93 1.727 1.93.097 0 .193-.01.288-.027l.447 2.515c.085.564.617 1.9 1.094 2.217 1.016.676 2.625 1.64 3.834 1.64 1.043 0 2.506-.86 3.587-1.444.602-.338 1.266-1.632 1.324-2.312l.28-2.542c.16-.007.318-.023.475-.047.951 0 1.727-.862 1.727-1.93a1.863 1.863 0 0 0-1.517-1.913Z" fill="#fff" stroke="#263238" stroke-width=".874" stroke-linecap="round" stroke-linejoin="round"/><path d="M39.85 57.163h-.447v1.588h.447v-1.588ZM53.51 57.163h-.447v1.588h.447v-1.588Z" fill="#fff" stroke="#263238" stroke-width=".874" stroke-linecap="round" stroke-linejoin="round"/><path d="M46.454 50.224a7.35 7.35 0 0 0-5.097 2.052 7.321 7.321 0 0 0-2.242 5.008.261.261 0 0 0 .265.27h.474a.264.264 0 0 0 .264-.256 6.325 6.325 0 0 1 1.956-4.286 6.35 6.35 0 0 1 8.76 0 6.325 6.325 0 0 1 1.957 4.286.267.267 0 0 0 .267.257h.471a.263.263 0 0 0 .268-.27 7.324 7.324 0 0 0-2.244-5.01 7.354 7.354 0 0 0-5.099-2.051Z" fill="#fff" stroke="#263238" stroke-width=".874" stroke-linecap="round" stroke-linejoin="round"/><path d="M40.613 58.18h-.102a2.321 2.321 0 0 0-2.23 2.314 2.313 2.313 0 0 0 2.23 2.313h.102V58.18Z" fill="#263238" stroke="#263238" stroke-width=".874" stroke-miterlimit="10"/><path d="M41.165 60.502c0 1.714.074 2.83-.518 2.83-.593 0-.796-1.116-.796-2.83s.203-2.832.796-2.832c.592 0 .518 1.102.518 2.832Z" fill="#fff" stroke="#263238" stroke-width=".874" stroke-linecap="round" stroke-linejoin="round"/><path d="M52.3 58.18h.101a2.321 2.321 0 0 1 2.232 2.314 2.313 2.313 0 0 1-2.232 2.313H52.3V58.18Z" fill="#263238" stroke="#263238" stroke-width=".874" stroke-miterlimit="10"/><path d="M51.745 60.502c0 1.714-.071 2.83.521 2.83.593 0 .796-1.116.796-2.83s-.203-2.832-.796-2.832c-.592 0-.521 1.102-.521 2.832Z" fill="#fff" stroke="#263238" stroke-width=".874" stroke-linecap="round" stroke-linejoin="round"/><path d="M42.492 60.918s.965 1.186 2.774.25" stroke="#263238" stroke-width=".874" stroke-linecap="round" stroke-linejoin="round"/><path d="M45.266 65.531a2.34 2.34 0 0 0 2.746 0" stroke="#263238" stroke-width=".75" stroke-linecap="round" stroke-linejoin="round"/><path d="M42.225 59.326s1.75-1.332 3.308 0M50.823 59.37s-1.75-1.352-3.308 0" stroke="#263238" stroke-width=".874" stroke-linecap="round" stroke-linejoin="round"/><path d="M47.911 63.666s.156.865-1.433.845c-.39 0-1.097-.277-1.12-.845" stroke="#263238" stroke-width=".75" stroke-linecap="round" stroke-linejoin="round"/><path d="M42.872 61.232c.146.287.474.619 1.21.636.734.016.863-.274.876-.558a2.225 2.225 0 0 1-2.086-.078Z" fill="#263238"/><path d="M50.57 60.918s-.966 1.186-2.774.25" stroke="#263238" stroke-width=".874" stroke-linecap="round" stroke-linejoin="round"/><path d="M50.19 61.232c-.145.287-.473.619-1.208.636-.735.016-.864-.274-.877-.558a2.223 2.223 0 0 0 2.086-.078Z" fill="#263238"/><path d="M43.474 48.314s-.89.497-.792 1.91c0 0-.312-.954-1.456-.538" stroke="#263238" stroke-width=".874" stroke-linecap="round" stroke-linejoin="round"/><path d="M46.654 73.346a5.67 5.67 0 0 0 3.26-1.031 5.653 5.653 0 0 0 2.071-2.717c-.308-.048-.613-.088-.908-.129a5.185 5.185 0 0 1-4.42 2.469 5.197 5.197 0 0 1-4.422-2.469c-.295.04-.6.081-.908.129a5.653 5.653 0 0 0 2.07 2.716 5.67 5.67 0 0 0 3.257 1.032Z" fill="#263238" stroke="#263238" stroke-width=".874" stroke-linecap="round" stroke-linejoin="round"/><path d="m59.696 89.513.45-9.887" stroke="#263238" stroke-width=".874" stroke-linecap="round" stroke-linejoin="round"/><path d="M59.808 55.841v-3.64a.675.675 0 0 0-.678-.676h-5.71a.678.678 0 0 0-.677.676v3.64a.675.675 0 0 0 .677.676h1.992l-.16 1.386h1.017v1.308l1.215-2.133h-.999l.105-.561h2.537a.679.679 0 0 0 .68-.676Z" fill="#fff" stroke="#263238" stroke-width=".874" stroke-linecap="round" stroke-linejoin="round"/><path d="M53.848 52.785h3.87M53.848 53.816h4.866M53.848 54.847h4.118" stroke="#263238" stroke-width=".874" stroke-linecap="round" stroke-linejoin="round"/><path d="M77.351 97.243c0 1.075-1.693 1.747-3.773 1.747-2.079 0-3.772-.676-3.772-1.747 0-1.072 1.693-1.95 3.772-1.95 2.08 0 3.773.871 3.773 1.95Z" fill="#fff" stroke="#263238" stroke-width=".874" stroke-linecap="round" stroke-linejoin="round"/><path d="M71.137 98.601c.101-.023.183-.591-.735-1.014-.637-.29-.654-.598-.288-.977.366-.378.989-.696 1.47-.557.782.223 1.3 1.849 1.65 1.497.524-.135-.11-1.626-1.047-2.116 1.693.42 1.774 2.366 2.553 2.21.596-.114-.433-2.047-1.324-2.619a3.96 3.96 0 0 1 1.456 1.16c.566.821.63 1.098 1.016.98.501-.159-.694-1.964-.843-2.16.752.297.894.926 1.124 1.18.23.253.339.676.657.51.319-.166.024-.754-.19-1.098-1.015-1.64-2.709-1.913-4.32-1.71-1.274.162-2.737.695-3.513 1.71a1.583 1.583 0 0 0-.108 1.79c.27.572 1.24 1.485 2.442 1.214Z" fill="#fff" stroke="#263238" stroke-width=".874" stroke-linecap="round" stroke-linejoin="round"/><path d="M78.34 99.004H16.015a.335.335 0 0 0-.335.334v.538c0 .184.15.334.335.334H78.34c.185 0 .335-.15.335-.334v-.538a.335.335 0 0 0-.335-.334Z" fill="#BFBFBF" stroke="#263238" stroke-width=".874" stroke-miterlimit="10"/><path d="m17.844 99.004-4.585-13.91a.367.367 0 0 1 .176-.435.369.369 0 0 1 .162-.044h14.485l5.158 14.389H17.844Z" fill="#263238"/><path d="m28.478 84.615 4.741 13.58h12.7v.477a.338.338 0 0 1-.338.338H32.406l-4.561-13.834a.416.416 0 0 1 .393-.544l.24-.017Z" fill="#fff" stroke="#263238" stroke-width=".874" stroke-linecap="round" stroke-linejoin="round"/><path d="M21.752 91.81a1.283 1.283 0 0 0-.318-.631.727.727 0 0 1 .579-.257 1.177 1.177 0 0 1 1.094.903.705.705 0 0 1-.712.902 1.109 1.109 0 0 1-.704-.274c.098-.2.12-.428.06-.642Z" fill="#fff"/><path d="M51.097 99.004h4.63a4.786 4.786 0 0 0 1.961-3.925v-2.173a.626.626 0 0 0-.63-.629h-7.275a.627.627 0 0 0-.626.63v2.172a4.771 4.771 0 0 0 1.94 3.925Z" fill="#fff" stroke="#263238" stroke-width=".874" stroke-linecap="round" stroke-linejoin="round"/><path d="M59.003 93.204a1.336 1.336 0 0 0-1.314-.061v.784c.2-.034.406.007.579.115.653.378.514 1.152.057 1.94-.209.446-.568.805-1.016 1.014a4.77 4.77 0 0 1-.504.923c.87.189 1.666-.548 2.29-1.623.73-1.264.95-2.49-.092-3.092Z" fill="#fff" stroke="#263238" stroke-width=".874" stroke-linecap="round" stroke-linejoin="round"/><path d="M53.51 88.853a5.604 5.604 0 0 0 .247-1.69c0-3.177-2.994-3.552-2.994-7.162M51.386 91.656a4.755 4.755 0 0 0 1.378-1.302M53.25 83.03a1.744 1.744 0 0 1-.201-1.014M55.581 87.491c-.152-.993-.724-1.926-1.29-2.775M53.848 91.693s.989-.416 1.53-2.292" stroke="#263238" stroke-width=".874" stroke-linecap="round" stroke-linejoin="round"/><path d="M59.897 117.834h-25.36a3.35 3.35 0 0 0-3.352 3.346v16.731a3.35 3.35 0 0 0 3.352 3.346h25.36a3.35 3.35 0 0 0 3.352-3.346V121.18a3.35 3.35 0 0 0-3.352-3.346Z" fill="#fff" stroke="#263238" stroke-width=".874" stroke-miterlimit="10"/><path d="m39.2 133.949.383 6.683.044.057a3.226 3.226 0 0 0 4.071.927c.45-.234.837-.572 1.13-.984l.143-6.683h-5.77Z" fill="#fff" stroke="#263238" stroke-width=".874" stroke-linecap="round" stroke-linejoin="round"/><path d="M46.238 147.162a22.553 22.553 0 0 1-7.765 0 3.689 3.689 0 0 1-.613-.798 3.349 3.349 0 0 1-.126-3.042l1.548-2.754 6.133.067 1.382 2.515a3.376 3.376 0 0 1-.362 3.806 2.691 2.691 0 0 1-.197.206Z" fill="#BFBFBF" stroke="#263238" stroke-width=".874" stroke-miterlimit="10"/><path d="M44.73 143.694c.38.167.742.371 1.08.608l-1.08-.608Z" fill="#BFBFBF"/><path d="M44.73 143.694c.38.167.742.371 1.08.608" stroke="#263238" stroke-width=".874" stroke-miterlimit="10"/><path d="M38.946 144.302a6.162 6.162 0 0 1 4.654-.963" fill="#BFBFBF"/><path d="M38.946 144.302a6.162 6.162 0 0 1 4.654-.963" stroke="#263238" stroke-width=".874" stroke-miterlimit="10"/><path d="m35.898 106.372 2.71 30.988h7.006s.695-18.928 1.135-31.218a5.399 5.399 0 0 0-1.514-3.967 5.434 5.434 0 0 0-3.918-1.654 5.437 5.437 0 0 0-3.998 1.737 5.405 5.405 0 0 0-1.42 4.114Z" fill="#263238"/><path d="M42.871 100.741a5.426 5.426 0 0 0-1.571-.22v0a5.432 5.432 0 0 0-3.986 1.744 5.397 5.397 0 0 0-1.416 4.107l.962 11.462M45.798 102.853a5.685 5.685 0 0 0-.972-1.061s-.423-.338-.613-.446M46.285 117.834c.139-3.837.356-8.325.474-11.692a5.398 5.398 0 0 0-.474-2.43" stroke="#fff" stroke-width=".874" stroke-linecap="round" stroke-linejoin="round"/><path d="m50.6 133.949.382 6.683.044.057a3.226 3.226 0 0 0 4.071.927c.45-.234.837-.572 1.131-.984l.142-6.683H50.6Z" fill="#fff" stroke="#263238" stroke-width=".874" stroke-linecap="round" stroke-linejoin="round"/><path d="M57.637 147.162a22.553 22.553 0 0 1-7.765 0 3.637 3.637 0 0 1-.61-.798 3.343 3.343 0 0 1-.129-3.042l1.552-2.754 6.13.067 1.381 2.515a3.375 3.375 0 0 1-.362 3.806 2.692 2.692 0 0 1-.197.206Z" fill="#BFBFBF" stroke="#263238" stroke-width=".874" stroke-miterlimit="10"/><path d="M56.13 143.694c.38.166.742.37 1.08.608l-1.08-.608Z" fill="#BFBFBF"/><path d="M56.13 143.694c.38.166.742.37 1.08.608" stroke="#263238" stroke-width=".874" stroke-miterlimit="10"/><path d="M50.352 144.302a6.198 6.198 0 0 1 2.23-.947 6.196 6.196 0 0 1 2.424-.016" fill="#BFBFBF"/><path d="M50.352 144.302a6.198 6.198 0 0 1 2.23-.947 6.196 6.196 0 0 1 2.424-.016" stroke="#263238" stroke-width=".874" stroke-miterlimit="10"/><path d="m47.308 106.372 2.71 30.988h7.007s.694-18.928 1.138-31.218a5.419 5.419 0 0 0-3.326-5.197 5.463 5.463 0 0 0-2.134-.424 5.421 5.421 0 0 0-5.12 3.651 5.398 5.398 0 0 0-.275 2.2Z" fill="#263238"/><path d="M54.938 100.988a5.443 5.443 0 0 0-2.235-.467 5.435 5.435 0 0 0-3.982 1.746 5.406 5.406 0 0 0-1.413 4.105l1.016 11.462M57.197 102.853a5.479 5.479 0 0 0-.971-1.061M57.98 117.834c.139-3.837.06-8.325.183-11.692a5.41 5.41 0 0 0-.366-2.166" stroke="#fff" stroke-width=".874" stroke-linecap="round" stroke-linejoin="round"/><path d="M140.97 53.63V39.209c0-.697-.277-1.366-.771-1.86a2.64 2.64 0 0 0-1.864-.77h-22.67a2.636 2.636 0 0 0-2.635 2.63V53.63a2.636 2.636 0 0 0 2.635 2.63h7.894l-.623 5.49H127v5.174l4.823-8.45h-3.956l.417-2.217h10.051a2.636 2.636 0 0 0 2.635-2.627Z" fill="#fff" stroke="#263238" stroke-width="1.025" stroke-linecap="round" stroke-linejoin="round"/><path d="M117.358 41.513h15.328M117.358 45.6h19.284M117.358 49.686h16.317" stroke="#263238" stroke-width="1.025" stroke-linecap="round" stroke-linejoin="round"/><path d="m158.286 115.386 13.696 4.557-3.397 3.393 6.34 6.327-13.696-4.556 3.397-3.393-6.34-6.328ZM95.714 115.386l-13.696 4.557 3.397 3.393-6.34 6.327 13.696-4.556-3.397-3.393 6.34-6.328ZM126.618 10.863l-6.459 12.892h4.809v8.95l6.455-12.891h-4.805v-8.95Z" fill="#E8E8E8" stroke="#263238" stroke-width="1.025" stroke-linecap="round" stroke-linejoin="round"/></svg>