<svg width="243" height="162" fill="none" xmlns="http://www.w3.org/2000/svg"><path d="M195.573 99.351s-3.982-2.213-4.277 2.8c-.295 5.012-1.033 37.616-1.033 37.616" stroke="#263238" stroke-width="2" stroke-linecap="round" stroke-linejoin="round"/><path d="M189.216 102.595s3.24 7.228 1.772 36.728" stroke="#263238" stroke-width="2" stroke-linecap="round" stroke-linejoin="round"/><path d="M192.42 100.359s-1.526.972-2.391-.139c-.865-1.112.586-3.166-.693-4.04-1.28-.875-3.493.46-3.493.46s1.701.498 1.646 1.428c-.055.93-.875 1.296-.972.875-.097-.421-.924-2.453-2.307-1.6a3.421 3.421 0 0 0-1.591 2.17s3.217-.343 3.412.869c.194 1.211-1.319-.211-2.647-.289-1.329-.077-2.54.117-2.453.92.029.711-.013 1.423-.126 2.126a3.94 3.94 0 0 1 2.592-.914c1.461.084 1.406 1.014.077.937-1.328-.078-2.468 1.185-2.468 1.185s1.211 2.071 2.75 3.095c1.539 1.023 2.093.648 2.268-.133.175-.781-.233-2.813.697-2.757.93.055-1.539 3.508-.353 3.713 1.186.204 2.141-.143 2.452-.924l.324-.781s-.414-2.021-.233-2.812c.182-.791.399.023.609.972.211.949.344 3.221.749 3.11.405-.11 1.704-1.765 2.009-2.413.304-.648-1.711-2.634-1.689-3.033.023-.399 1.578.36 1.821.774.176.316.335.64.477.972 0 0 .972-.609.946-2.475-.026-1.866-1.413-1.296-1.413-1.296Z" fill="#fff"/><path opacity=".3" d="M192.42 100.359s-1.526.972-2.391-.139c-.865-1.112.586-3.166-.693-4.04-1.28-.875-3.493.46-3.493.46s1.701.498 1.646 1.428c-.055.93-.875 1.296-.972.875-.097-.421-.924-2.453-2.307-1.6a3.421 3.421 0 0 0-1.591 2.17s3.217-.343 3.412.869c.194 1.211-1.319-.211-2.647-.289-1.329-.077-2.54.117-2.453.92.029.711-.013 1.423-.126 2.126a3.94 3.94 0 0 1 2.592-.914c1.461.084 1.406 1.014.077.937-1.328-.078-2.468 1.185-2.468 1.185s1.211 2.071 2.75 3.095c1.539 1.023 2.093.648 2.268-.133.175-.781-.233-2.813.697-2.757.93.055-1.539 3.508-.353 3.713 1.186.204 2.141-.143 2.452-.924l.324-.781s-.414-2.021-.233-2.812c.182-.791.399.023.609.972.211.949.344 3.221.749 3.11.405-.11 1.704-1.765 2.009-2.413.304-.648-1.711-2.634-1.689-3.033.023-.399 1.578.36 1.821.774.176.316.335.64.477.972 0 0 .972-.609.946-2.475-.026-1.866-1.413-1.296-1.413-1.296Z" fill="#263238"/><path d="M184.696 104.736c.995-1.228 2.456-2.89 3.684-3.684M183.543 106.233s.256-.356.671-.888M189.027 101.357s1.478 2.086 1.75 4.235M187.355 102.591s.415-.239.26 2.414M188.435 100.116s.842-.752.398-2.242M187.294 101.389l-.603-1.101M186.027 102.514s-1.912-1.445-3.107-1.517" stroke="#263238" stroke-linecap="round" stroke-linejoin="round"/><path d="M197.85 96.422s-.062 2.19-1.772 2.298c-1.711.106-2.767-2.742-4.517-2.058-1.749.684-1.918 3.81-1.918 3.81s1.659-1.364 2.553-.673c.894.69.687 1.749.204 1.581-.482-.169-3.084-.749-3.172 1.215a4.158 4.158 0 0 0 1.086 3.074s1.85-3.453 3.198-2.825c1.348.629-1.112 1.176-2.097 2.453-.985 1.276-1.62 2.621-.748 3.084.732.455 1.415.983 2.041 1.575 0 0-.233-1.808.849-3.211 1.082-1.403 1.973-.716.992.561-.982 1.276-.496 3.278-.496 3.278s2.896.201 4.97-.648c2.074-.848 2.087-1.649 1.419-2.368-.667-.719-2.974-1.682-2.287-2.576.687-.894 2.462 3.934 3.476 2.884 1.014-1.05 1.316-2.239.749-3.085l-.571-.845s-2.307-.972-2.974-1.682c-.667-.709.295-.385 1.387.049s3.454 1.85 3.622 1.37c.169-.479-.606-2.916-1.046-3.654-.441-.74-3.804-.085-4.187-.38-.382-.294 1.436-1.334 2.016-1.296.58.04 1.296.179 1.296.179s.052-1.384-1.834-2.635c-1.886-1.25-2.239.525-2.239.525Z" fill="#fff"/><path opacity=".2" d="M197.85 96.422s-.062 2.19-1.772 2.298c-1.711.106-2.767-2.742-4.517-2.058-1.749.684-1.918 3.81-1.918 3.81s1.659-1.364 2.553-.673c.894.69.687 1.749.204 1.581-.482-.169-3.084-.749-3.172 1.215a4.158 4.158 0 0 0 1.086 3.074s1.85-3.453 3.198-2.825c1.348.629-1.112 1.176-2.097 2.453-.985 1.276-1.62 2.621-.748 3.084.732.455 1.415.983 2.041 1.575 0 0-.233-1.808.849-3.211 1.082-1.403 1.973-.716.992.561-.982 1.276-.496 3.278-.496 3.278s2.896.201 4.97-.648c2.074-.848 2.087-1.649 1.419-2.368-.667-.719-2.974-1.682-2.287-2.576.687-.894 2.462 3.934 3.476 2.884 1.014-1.05 1.316-2.239.749-3.085l-.571-.845s-2.307-.972-2.974-1.682c-.667-.709.295-.385 1.387.049s3.454 1.85 3.622 1.37c.169-.479-.606-2.916-1.046-3.654-.441-.74-3.804-.085-4.187-.38-.382-.294 1.436-1.334 2.016-1.296.58.04 1.296.179 1.296.179s.052-1.384-1.834-2.635c-1.886-1.25-2.239.525-2.239.525Z" fill="#263238"/><path d="M196.966 107.14c-.551-1.834-1.218-4.432-1.173-6.201M197.679 109.311s-.181-.496-.431-1.273M196.538 100.498s3.094-.055 5.43 1.134M196.636 103.013s.039-.577 2.592 1.39M194.899 100.252s-.175-1.358-1.973-1.928M195.388 102.258l-1.513-.149M195.65 104.289s-2.751.933-3.635 2.08" stroke="#263238" stroke-linecap="round" stroke-linejoin="round"/><path d="M179.496 111.002s8.703 5.755 8.554 28.026" stroke="#263238" stroke-width="2" stroke-linecap="round" stroke-linejoin="round"/><path d="M190.226 109.483s-.278 2.521-2.268 2.485c-1.989-.036-2.935-3.428-5.015-2.803-2.08.626-2.576 4.212-2.576 4.212s2.044-1.416 3.013-.538c.969.879.626 2.084.084 1.844-.541-.24-3.486-1.153-3.774 1.105a4.788 4.788 0 0 0 .972 3.651s2.462-3.813 3.956-2.961c1.494.852-1.393 1.254-2.65 2.634-1.258 1.38-2.11 2.874-1.157 3.49a14.663 14.663 0 0 1 2.21 2.008s-.101-2.109 1.296-3.625c1.396-1.516 2.345-.648 1.091.739-1.253 1.386-.881 3.739-.881 3.739s3.328.505 5.8-.273c2.472-.777 2.559-1.704 1.856-2.592-.703-.887-3.272-2.222-2.394-3.188.878-.965 2.469 4.769 3.739 3.655 1.27-1.115 1.73-2.459 1.153-3.49l-.606-1.03s-2.569-1.332-3.272-2.223c-.703-.891.376-.414 1.594.188 1.218.603 3.814 2.463 4.05 1.922.237-.541-.428-3.412-.852-4.316-.424-.904-4.38-.454-4.795-.829-.415-.376 1.785-1.407 2.449-1.296.495.082.985.19 1.468.324 0 0 .188-1.594-1.87-3.214-2.057-1.62-2.621.382-2.621.382Z" fill="#fff"/><path opacity=".3" d="M190.226 109.483s-.278 2.521-2.268 2.485c-1.989-.036-2.935-3.428-5.015-2.803-2.08.626-2.576 4.212-2.576 4.212s2.044-1.416 3.013-.538c.969.879.626 2.084.084 1.844-.541-.24-3.486-1.153-3.774 1.105a4.788 4.788 0 0 0 .972 3.651s2.462-3.813 3.956-2.961c1.494.852-1.393 1.254-2.65 2.634-1.258 1.38-2.11 2.874-1.157 3.49a14.663 14.663 0 0 1 2.21 2.008s-.101-2.109 1.296-3.625c1.396-1.516 2.345-.648 1.091.739-1.253 1.386-.881 3.739-.881 3.739s3.328.505 5.8-.273c2.472-.777 2.559-1.704 1.856-2.592-.703-.887-3.272-2.222-2.394-3.188.878-.965 2.469 4.769 3.739 3.655 1.27-1.115 1.73-2.459 1.153-3.49l-.606-1.03s-2.569-1.332-3.272-2.223c-.703-.891.376-.414 1.594.188 1.218.603 3.814 2.463 4.05 1.922.237-.541-.428-3.412-.852-4.316-.424-.904-4.38-.454-4.795-.829-.415-.376 1.785-1.407 2.449-1.296.495.082.985.19 1.468.324 0 0 .188-1.594-1.87-3.214-2.057-1.62-2.621.382-2.621.382Z" fill="#263238"/><path d="M188.199 121.766c-.467-2.165-.988-5.226-.775-7.264M188.814 124.338s-.162-.589-.379-1.51M188.328 114.048s3.564.23 6.156 1.824M188.201 116.964s.101-.648 2.861 1.847M186.458 113.624s-.074-1.582-2.093-2.411M186.835 115.982l-1.731-.314M186.948 118.354s-3.263.813-4.393 2.054" stroke="#263238" stroke-linecap="round" stroke-linejoin="round"/><path d="M182.888 128.557s5.605 4.277 6.195 10.62l-1.164-21.241M196.457 125.459c-7.374-1.328-7.374 13.718-7.374 13.718" stroke="#263238" stroke-width="2" stroke-linecap="round" stroke-linejoin="round"/><path d="M189.967 139.028s-4.277-31.123 8.1-31.123" stroke="#263238" stroke-width="2" stroke-linecap="round" stroke-linejoin="round"/><path d="M193.648 124.562c-1.007-1.131-3.149-1.131-4.406 1.766-1.257 2.896-.126 2.391-.126 2.391s2.391-.755 3.888-1.261c1.496-.505 3.525-1.762 3.651-1.004.126.758-1.008 1.51-2.394 1.763-1.387.252-5.035 1.257-4.659 2.015.375.758 1.26 3.02 1.26 3.02a32.137 32.137 0 0 1 3.399-2.518c1.639-1.008 2.647-.629 1.765.502-.881 1.131-3.402 2.395-2.896 3.904.505 1.51 3.538 3.402 3.538 3.402s.376-3.149 1.26-4.156c.885-1.008.882.126.629 1.888a20.326 20.326 0 0 0-.253 2.268l3.525 1.258a25.315 25.315 0 0 1 1.889-2.518l.648-.628s-2.77-2.395-2.896-3.889c-.127-1.493 1.889 0 2.517.253.629.253 1.636 2.012 1.636 2.012s.632-2.893.758-3.888l.127-1.007s-2.647-1.008-3.655-1.008c-1.007 0-1.51.755-1.51-.253 0-1.007 1.008-1.636 2.142-1.51 1.026.17 2.037.423 3.023.755 0 0 .755-.631.502-2.52s-.881-1.889-2.391-1.384c-1.51.506-2.521 1.62-3.655 1.62s-.502-1.383.253-1.762c.755-.38 2.644-1.134 3.023-1.261.379-.126-2.015-1.889-3.276-2.138-1.26-.25-2.89.648-2.77 1.889.24 2.631-3.538 3.149-4.546 1.999Z" fill="#fff"/><path d="M201.755 137.528c.039.379.065.762.078 1.141M199.224 128.489a33.386 33.386 0 0 1 2.371 7.805M198.771 127.478c-.622-1.342-1.092-2.158-1.092-2.158a3.724 3.724 0 0 0 1.62-1.513 4.214 4.214 0 0 1 1.26-1.51M193.269 129.6s4.536-1.889 4.536-1.51M200.322 127.209s2.016-1.008 3.778-1.008M199.584 130.248a17.513 17.513 0 0 0-2.395 2.391 10.877 10.877 0 0 0-1.762 2.897M200.951 130.734s2.647-.755 4.031.502" stroke="#263238" stroke-linecap="round" stroke-linejoin="round"/><path d="M205.739 113.724c-1.37-.81-2.886-.829-3.632-1.685-.745-.855.716-1.296 1.497-.972.781.324 2.592 1.254 2.932 1.458.341.204.107-2.76-.528-3.888-.635-1.127-2.375-1.766-3.24-.855-1.83 1.924-4.688-.6-4.494-2.103.195-1.503-1.208-3.12-4.212-2.171-3.003.95-1.888 1.471-1.888 1.471s2.138 1.312 3.512 2.126c1.373.813 3.641 1.506 3.152 2.096-.489.59-1.801.23-2.9-.648-1.098-.878-4.25-2.978-4.574-2.197-.324.781-1.458 2.916-1.458 2.916 1.395.214 2.775.52 4.131.917 1.833.574 2.209 1.581.777 1.659-1.432.078-4.037-.998-4.86.373-.823 1.37-.256 4.892-.256 4.892s2.625-1.779 3.963-1.772c1.338.006.482.748-1.014 1.714-.649.397-1.275.83-1.876 1.296l1.36 3.489a24.62 24.62 0 0 1 3.14-.223l.888.061s0-3.661 1.049-4.746c1.05-1.086 1.238 1.425 1.462 2.067.223.641-.447 2.556-.447 2.556s2.592-1.422 3.44-1.986l.846-.567s-.972-2.657-1.62-3.418c-.648-.762-1.558-.648-.8-1.296s1.898-.324 2.546.625a19.623 19.623 0 0 1 1.41 2.777s.972.159 2.232-1.27c1.261-1.429.836-1.889-.538-2.696Zm-11.916 4.031c-1.008-.503 1.383-1.51 1.383-1.51.885-.133-.376 2.015-1.38 1.503l-.003.007Zm1.694-4.702c-.427-.214.859-.648.859-.648 1.866.347-.425.859-.856.642l-.003.006Z" fill="#fff"/><path d="M193.797 120.314c-.261.279-.53.548-.807.807M198.965 112.477a33.274 33.274 0 0 1-4.338 6.907M199.432 111.472c.606-1.351.913-2.242.913-2.242.696.307 1.47.393 2.216.246a4.206 4.206 0 0 1 1.967-.038M198.336 111.132c.285-.246-4.111-2.433-4.111-2.433M200.653 112.467s2.084.862 3.24 2.193M197.877 113.876a17.598 17.598 0 0 0-3.376-.236 10.817 10.817 0 0 0-3.341.567M198.404 115.253s2.304 1.504 2.268 3.373" stroke="#263238" stroke-linecap="round" stroke-linejoin="round"/><path d="M186.174 131.168c-1.102-.648-2.324-.667-2.916-1.357-.593-.69.573-1.037 1.202-.775.628.263 2.083 1.008 2.362 1.17.278.162.084-2.219-.428-3.117-.512-.897-1.912-1.422-2.592-.687-1.474 1.546-3.775-.483-3.616-1.694.159-1.212-.972-2.511-3.399-1.747-2.427.765-1.519 1.186-1.519 1.186s1.72 1.056 2.825 1.708c1.105.651 2.916 1.211 2.537 1.688-.379.476-1.448.184-2.333-.525-.884-.71-3.421-2.398-3.684-1.769-.262.628-1.169 2.362-1.169 2.362 1.123.171 2.233.417 3.324.735 1.474.463 1.775 1.277.622 1.338-1.154.062-3.24-.803-3.888.298-.648 1.102-.204 3.937-.204 3.937s2.112-1.429 3.188-1.426c1.076.004.389.603-.813 1.381a16.15 16.15 0 0 0-1.513 1.04l1.095 2.809a19.961 19.961 0 0 1 2.527-.182l.716.052s0-2.948.846-3.82c.845-.871.994 1.147 1.172 1.662.179.515-.359 2.058-.359 2.058s2.093-1.144 2.77-1.601l.68-.453s-.784-2.139-1.315-2.751c-.531-.613-1.257-.522-.648-1.053.609-.532 1.526-.25 2.048.505.437.714.817 1.462 1.137 2.236 0 0 .781.126 1.795-1.024 1.014-1.15.648-1.533-.45-2.184Zm-9.591 3.24c-.81-.405 1.115-1.215 1.115-1.215.709-.1-.305 1.623-1.118 1.218l.003-.003Zm1.367-3.784c-.346-.172.69-.519.69-.519 1.504.292-.346.697-.69.522v-.003Z" fill="#fff"/><path d="M176.58 136.475a15.23 15.23 0 0 1-.648.648M180.72 130.17a26.928 26.928 0 0 1-3.492 5.557M181.097 129.36a24.59 24.59 0 0 0 .735-1.804 2.98 2.98 0 0 0 1.782.197 3.394 3.394 0 0 1 1.581-.032M176.903 127.138s3.542 1.759 3.312 1.944M182.088 130.161s1.675.693 2.592 1.762M179.843 131.295a14.031 14.031 0 0 0-2.715-.192 8.759 8.759 0 0 0-2.69.457M180.267 132.403s1.856 1.208 1.821 2.715" stroke="#263238" stroke-linecap="round" stroke-linejoin="round"/><path d="M181.676 110.374s-1.386 1.007-2.268 0c-.881-1.008.379-3.023-.884-3.778-1.264-.755-3.273.629-3.273.629s1.637.379 1.637 1.26-.755 1.257-.882.881c-.126-.376-1.007-2.268-2.268-1.387a3.25 3.25 0 0 0-1.383 2.142s3.019-.505 3.272.629c.253 1.134-1.26-.127-2.517-.127s-2.395.253-2.268 1.008c.068.67.068 1.345 0 2.015a3.739 3.739 0 0 1 2.394-1.007c1.384 0 1.384.881.126.881-1.257 0-2.268 1.26-2.268 1.26s1.261 1.889 2.771 2.77c1.509.882 2.015.506 2.141-.252.127-.758-.379-2.644.502-2.644.882 0-1.257 3.402-.126 3.525 1.131.123 2.015-.249 2.268-1.008l.253-.755s-.506-1.888-.379-2.643c.126-.755.379 0 .628.881.25.881.506 3.023.882 2.896.375-.126 1.513-1.762 1.765-2.391.253-.628-1.765-2.394-1.765-2.77 0-.376 1.513.25 1.765.629.183.285.35.579.503.881 0 0 .881-.629.754-2.394-.126-1.766-1.38-1.131-1.38-1.131Z" fill="#fff"/><path d="M174.636 114.939c.871-1.215 2.161-2.867 3.279-3.684M173.615 116.416s.224-.349.583-.874M178.523 111.505s1.51 1.889 1.889 3.904M177.018 112.752s.375-.253.375 2.268M177.898 110.374s.755-.758.25-2.142M176.891 111.631l-.632-1.008M175.756 112.752s-1.889-1.26-3.023-1.26" stroke="#263238" stroke-linecap="round" stroke-linejoin="round"/><path d="M194.393 138.585h-9.736v14.013h9.736v-14.013Z" fill="#263238" stroke="#263238" stroke-width="2" stroke-linecap="round" stroke-linejoin="round"/><path d="M106.7 30.903s.117-4.14-.03-7.701c-.146-3.561.15-11.195.15-11.195M106.752 16.498l-1.617-1.273M106.731 17.373l.577-.93M106.603 21.057l1.435-1.19M106.819 13.572l-.758-.69M106.589 21.701l-.949-1.017M106.67 25.7l-1.973-1.802" stroke="#263238" stroke-miterlimit="10"/><path d="M106.722 27.92c.503-.196.992-.424 1.464-.685" stroke="#263238" stroke-miterlimit="10"/><path d="M105.624 17.136c-.794-.612-3.458-.505-3.969.768-.512 1.273 1.117 3.35 2.673 3.205.612-.059.878-.1 1.117-.444l-2.187-2.139 2.369 1.905a2.183 2.183 0 0 0 .233-.693c.165-.761.512-2.028-.236-2.602ZM110.778 15.659v.045c-.213.95-1.296 1.487-2.213 1.406a2.027 2.027 0 0 1-.375-.068 2.59 2.59 0 0 0-.234 2.3c.039.108.09.21.153.305.269-.22 3.146-2.676 3.146-2.676l-2.988 2.877c.901.972 3.014.833 3.749-.952.736-1.786-.201-2.981-1.238-3.237Z" fill="#fff"/><path d="M109.314 12.338c-1.549-.324-2.936.363-2.916 1.98a2.608 2.608 0 0 0 .868 1.882l1.597-2.177-1.341 2.375c.301.205.648.33 1.011.363.914.077 1.999-.46 2.213-1.41.223-1.06.116-2.673-1.432-3.013ZM107.506 6.716s-.159.05-1.151.532a2.51 2.51 0 0 0-.991 3.395c.275.544.75.96 1.325 1.16l.399-3.852-.169 3.904c.076.008.152.008.227 0 .648-.065 1.662-.836 1.759-2.414.098-1.578-1.399-2.725-1.399-2.725ZM102.98 10.219l2.99 2.391a.865.865 0 0 0 .029-.324c-.139-1.367-1.503-2.161-2.404-2.446-.9-.285-1.526.223-.946 1.532.58 1.31 2.1 1.944 2.777 1.747a.807.807 0 0 0 .415-.253l-2.861-2.647Z" fill="#fff"/><path d="M105.037 13.284a3.037 3.037 0 0 1-2.297-1.328 1.22 1.22 0 0 0-1.328 1.072c-.305 1.426.726 2.916 2.213 2.735.467-.025.91-.214 1.25-.535l-2.656-2.427 2.844 2.168c.056-.1.091-.21.104-.324.092-.457.047-.93-.13-1.361ZM105.021 21.212a2.307 2.307 0 0 1-.761.182c-.972.09-1.964-.671-2.456-1.565a1.293 1.293 0 0 0-1.189 1.069c-.295 1.669 1.25 3.869 2.812 3.519.406-.08.782-.27 1.085-.551l-3.408-3.279 3.606 3.065c.206-.264.339-.578.385-.91.171-.501.145-1.048-.074-1.53ZM111.88 24.624c-1.147-1.328-2.511-.14-2.511-.14s-.836.276-1.153 1.462c-.097.36-.083.74.042 1.092l3.447-2.009-3.363 2.197c.324.596.998.972 1.944.696 1.51-.414 2.738-1.96 1.594-3.298Z" fill="#fff"/><path d="M109.023 29.652h-4.773v7.067h4.773v-7.067Z" fill="#263238"/><path d="M161.699 36.66H98.752v116.391h62.947V36.661Z" fill="#fff" stroke="#263238" stroke-miterlimit="10"/><path d="M152.821 38.135h-52.76v113.144h52.76V38.135Z" fill="#263238" stroke="#263238" stroke-linecap="round" stroke-linejoin="round"/><path d="M152.821 55.683h-52.76v1.668h52.76v-1.668ZM152.821 74.974h-52.76v1.668h52.76v-1.668ZM135.817 38.154h-1.121V55.68h1.121V38.154ZM117.881 38.154h-1.121V55.68h1.121V38.154ZM135.817 76.662h-1.121v17.525h1.121V76.662ZM117.881 76.662h-1.121v17.525h1.121V76.662ZM126.762 57.445h-1.121V74.97h1.121V57.445ZM152.821 94.19h-52.76v1.669h52.76V94.19ZM152.821 113.416h-52.76v38.453h52.76v-38.453ZM126.762 95.888h-1.121v17.525h1.121V95.888Z" fill="#fff" stroke="#263238" stroke-miterlimit="10"/><path d="M154.114 36.65v116.375l7.588.026v-116.4h-7.588Z" fill="#263238" stroke="#263238" stroke-linecap="round" stroke-linejoin="round"/><path d="M139.303 39.515h-2.708v16.126h2.708V39.514Z" fill="#fff" stroke="#263238" stroke-miterlimit="10"/><path d="M139.303 52.177h-2.708v1.322h2.708v-1.322ZM139.303 41.151h-2.708v1.322h2.708v-1.322ZM142.074 39.515h-2.709v16.126h2.709V39.514Z" fill="#fff" stroke="#263238" stroke-miterlimit="10"/><path d="M142.074 52.177h-2.709v1.322h2.709v-1.322ZM142.074 41.151h-2.709v1.322h2.709v-1.322ZM144.847 39.515h-2.708v16.126h2.708V39.514Z" fill="#fff" stroke="#263238" stroke-miterlimit="10"/><path d="M144.847 52.177h-2.708v1.322h2.708v-1.322ZM144.847 41.151h-2.708v1.322h2.708v-1.322ZM147.618 39.515h-2.709v16.126h2.709V39.514Z" fill="#fff" stroke="#263238" stroke-miterlimit="10"/><path d="M152.131 39.515h-4.536v16.126h4.536V39.514Z" fill="#fff" stroke="#263238" stroke-miterlimit="10"/><path d="M147.618 52.177h-2.709v1.322h2.709v-1.322ZM147.618 41.151h-2.709v1.322h2.709v-1.322ZM121.182 39.515h-2.708v16.126h2.708V39.514Z" fill="#fff" stroke="#263238" stroke-miterlimit="10"/><path d="M121.182 52.177h-2.708v1.322h2.708v-1.322ZM121.182 41.151h-2.708v1.322h2.708v-1.322ZM123.953 39.515h-2.709v16.126h2.709V39.514Z" fill="#fff" stroke="#263238" stroke-miterlimit="10"/><path d="M123.953 52.177h-2.709v1.322h2.709v-1.322ZM123.953 41.151h-2.709v1.322h2.709v-1.322ZM126.726 39.515h-2.708v16.126h2.708V39.514Z" fill="#fff" stroke="#263238" stroke-miterlimit="10"/><path d="M126.726 52.177h-2.708v1.322h2.708v-1.322ZM126.726 41.151h-2.708v1.322h2.708v-1.322ZM129.497 39.515h-2.709v16.126h2.709V39.514Z" fill="#fff" stroke="#263238" stroke-miterlimit="10"/><path d="M134.01 39.515h-4.536v16.126h4.536V39.514Z" fill="#fff" stroke="#263238" stroke-miterlimit="10"/><path d="M129.497 52.177h-2.709v1.322h2.709v-1.322ZM129.497 41.151h-2.709v1.322h2.709v-1.322ZM121.182 78.08h-2.708v16.126h2.708V78.081Z" fill="#fff" stroke="#263238" stroke-miterlimit="10"/><path d="M121.182 90.743h-2.708v1.322h2.708v-1.322ZM121.182 79.72h-2.708v1.322h2.708V79.72ZM123.953 78.08h-2.709v16.126h2.709V78.081Z" fill="#fff" stroke="#263238" stroke-miterlimit="10"/><path d="M123.953 90.743h-2.709v1.322h2.709v-1.322ZM123.953 79.72h-2.709v1.322h2.709V79.72ZM126.726 78.08h-2.708v16.126h2.708V78.081Z" fill="#fff" stroke="#263238" stroke-miterlimit="10"/><path d="M126.726 90.743h-2.708v1.322h2.708v-1.322ZM126.726 79.72h-2.708v1.322h2.708V79.72ZM129.497 78.08h-2.709v16.126h2.709V78.081Z" fill="#fff" stroke="#263238" stroke-miterlimit="10"/><path d="M134.01 78.08h-4.536v16.126h4.536V78.081Z" fill="#fff" stroke="#263238" stroke-miterlimit="10"/><path d="M129.497 90.743h-2.709v1.322h2.709v-1.322ZM129.497 79.72h-2.709v1.322h2.709V79.72ZM139.071 78.08h-2.709v16.126h2.709V78.081Z" fill="#fff" stroke="#263238" stroke-miterlimit="10"/><path d="M139.071 90.743h-2.709v1.322h2.709v-1.322ZM139.071 79.72h-2.709v1.322h2.709V79.72ZM141.844 78.08h-2.708v16.126h2.708V78.081Z" fill="#fff" stroke="#263238" stroke-miterlimit="10"/><path d="M141.844 90.743h-2.708v1.322h2.708v-1.322ZM141.844 79.72h-2.708v1.322h2.708V79.72ZM144.614 78.08h-2.709v16.126h2.709V78.081Z" fill="#fff" stroke="#263238" stroke-miterlimit="10"/><path d="M144.614 90.743h-2.709v1.322h2.709v-1.322ZM144.614 79.72h-2.709v1.322h2.709V79.72ZM147.387 78.08h-2.708v16.126h2.708V78.081Z" fill="#fff" stroke="#263238" stroke-miterlimit="10"/><path d="M151.897 78.08h-4.536v16.126h4.536V78.081Z" fill="#fff" stroke="#263238" stroke-miterlimit="10"/><path d="M147.387 90.743h-2.708v1.322h2.708v-1.322ZM147.387 79.72h-2.708v1.322h2.708V79.72ZM103.408 78.08h-2.709v16.126h2.709V78.081Z" fill="#fff" stroke="#263238" stroke-miterlimit="10"/><path d="M103.408 90.743h-2.709v1.322h2.709v-1.322ZM103.408 79.72h-2.709v1.322h2.709V79.72ZM106.181 78.08h-2.708v16.126h2.708V78.081Z" fill="#fff" stroke="#263238" stroke-miterlimit="10"/><path d="M106.181 90.743h-2.708v1.322h2.708v-1.322ZM106.181 79.72h-2.708v1.322h2.708V79.72ZM108.952 78.08h-2.709v16.126h2.709V78.081Z" fill="#fff" stroke="#263238" stroke-miterlimit="10"/><path d="M108.952 90.743h-2.709v1.322h2.709v-1.322ZM108.952 79.72h-2.709v1.322h2.709V79.72ZM111.725 78.08h-2.708v16.126h2.708V78.081Z" fill="#fff" stroke="#263238" stroke-miterlimit="10"/><path d="M116.235 78.08h-4.536v16.126h4.536V78.081Z" fill="#fff" stroke="#263238" stroke-miterlimit="10"/><path d="M111.725 90.743h-2.708v1.322h2.708v-1.322ZM111.725 79.72h-2.708v1.322h2.708V79.72ZM103.061 39.515h-2.708v16.126h2.708V39.514Z" fill="#fff" stroke="#263238" stroke-miterlimit="10"/><path d="M103.061 52.177h-2.708v1.322h2.708v-1.322ZM103.061 41.151h-2.708v1.322h2.708v-1.322ZM105.832 39.515h-2.709v16.126h2.709V39.514Z" fill="#fff" stroke="#263238" stroke-miterlimit="10"/><path d="M105.832 52.177h-2.709v1.322h2.709v-1.322ZM105.832 41.151h-2.709v1.322h2.709v-1.322ZM108.605 39.515h-2.709v16.126h2.709V39.514Z" fill="#fff" stroke="#263238" stroke-miterlimit="10"/><path d="M108.605 52.177h-2.709v1.322h2.709v-1.322ZM108.605 41.151h-2.709v1.322h2.709v-1.322ZM111.375 39.515h-2.709v16.126h2.709V39.514Z" fill="#fff" stroke="#263238" stroke-miterlimit="10"/><path d="M115.889 39.515h-4.536v16.126h4.536V39.514Z" fill="#fff" stroke="#263238" stroke-miterlimit="10"/><path d="M111.375 52.177h-2.709v1.322h2.709v-1.322ZM111.375 41.151h-2.709v1.322h2.709v-1.322ZM111.077 58.731h-2.709v16.126h2.709V58.731Z" fill="#fff" stroke="#263238" stroke-miterlimit="10"/><path d="M111.077 71.393h-2.709v1.322h2.709v-1.322ZM111.077 60.37h-2.709v1.323h2.709V60.37Z" fill="#fff" stroke="#263238" stroke-miterlimit="10"/><path d="M108.404 58.731h-2.709v16.126h2.709V58.731Z" fill="#fff" stroke="#263238" stroke-miterlimit="10"/><path d="M108.404 71.393h-2.709v1.322h2.709v-1.322ZM108.404 60.37h-2.709v1.323h2.709V60.37Z" fill="#fff" stroke="#263238" stroke-miterlimit="10"/><path d="M105.731 58.731h-2.709v16.126h2.709V58.731Z" fill="#fff" stroke="#263238" stroke-miterlimit="10"/><path d="M105.731 71.393h-2.709v1.322h2.709v-1.322ZM105.731 60.37h-2.709v1.323h2.709V60.37Z" fill="#fff" stroke="#263238" stroke-miterlimit="10"/><path d="M103.061 58.731h-2.708v16.126h2.708V58.731Z" fill="#fff" stroke="#263238" stroke-miterlimit="10"/><path d="M103.061 71.393h-2.708v1.322h2.708v-1.322ZM103.061 60.37h-2.708v1.323h2.708V60.37ZM113.847 58.731h-2.708v16.126h2.708V58.731Z" fill="#fff" stroke="#263238" stroke-miterlimit="10"/><path d="M113.847 71.393h-2.708v1.322h2.708v-1.322ZM113.847 60.37h-2.708v1.323h2.708V60.37ZM116.617 58.731h-2.709v16.126h2.709V58.731Z" fill="#fff" stroke="#263238" stroke-miterlimit="10"/><path d="M116.617 71.393h-2.709v1.322h2.709v-1.322ZM116.617 60.37h-2.709v1.323h2.709V60.37ZM119.39 58.731h-2.708v16.126h2.708V58.731Z" fill="#fff" stroke="#263238" stroke-miterlimit="10"/><path d="M123.904 58.731h-4.536v16.126h4.536V58.731Z" fill="#fff" stroke="#263238" stroke-miterlimit="10"/><path d="M119.39 71.393h-2.708v1.322h2.708v-1.322ZM119.39 60.37h-2.708v1.323h2.708V60.37ZM130.336 58.731h-2.709v16.126h2.709V58.731Z" fill="#fff" stroke="#263238" stroke-miterlimit="10"/><path d="M130.336 71.393h-2.709v1.322h2.709v-1.322ZM130.336 60.37h-2.709v1.323h2.709V60.37ZM133.109 58.731H130.4v16.126h2.709V58.731Z" fill="#fff" stroke="#263238" stroke-miterlimit="10"/><path d="M133.109 71.393H130.4v1.322h2.709v-1.322ZM133.109 60.37H130.4v1.323h2.709V60.37ZM138.654 58.727l-2.525 1.067 6.35 15.04 2.525-1.066-6.35-15.04Z" fill="#fff" stroke="#263238" stroke-miterlimit="10"/><path d="m143.641 70.536-2.525 1.067.521 1.232 2.525-1.066-.521-1.233ZM139.301 60.256l-2.526 1.066.521 1.233 2.525-1.066-.52-1.233ZM142.482 74.828h5.654l2.544-1.06-5.674-.006-2.524 1.066ZM138.656 58.722h5.311l6.713 15.046-5.673-.006-6.351-15.04ZM135.782 58.731h-2.709v16.126h2.709V58.731Z" fill="#fff" stroke="#263238" stroke-miterlimit="10"/><path d="M135.782 71.393h-2.709v1.322h2.709v-1.322ZM135.782 60.37h-2.709v1.323h2.709V60.37ZM135.782 58.731h2.874l-2.527 1.057 6.354 15.04h-6.701V58.73ZM111.077 97.23h-2.709v16.125h2.709V97.229Z" fill="#fff" stroke="#263238" stroke-miterlimit="10"/><path d="M111.077 109.891h-2.709v1.322h2.709v-1.322ZM111.077 98.865h-2.709v1.322h2.709v-1.322Z" fill="#fff" stroke="#263238" stroke-miterlimit="10"/><path d="M108.404 97.23h-2.709v16.125h2.709V97.229Z" fill="#fff" stroke="#263238" stroke-miterlimit="10"/><path d="M108.404 109.891h-2.709v1.322h2.709v-1.322ZM108.404 98.865h-2.709v1.322h2.709v-1.322Z" fill="#fff" stroke="#263238" stroke-miterlimit="10"/><path d="M105.731 97.23h-2.709v16.125h2.709V97.229Z" fill="#fff" stroke="#263238" stroke-miterlimit="10"/><path d="M105.731 109.891h-2.709v1.322h2.709v-1.322ZM105.731 98.865h-2.709v1.322h2.709v-1.322Z" fill="#fff" stroke="#263238" stroke-miterlimit="10"/><path d="M103.061 97.23h-2.708v16.125h2.708V97.229Z" fill="#fff" stroke="#263238" stroke-miterlimit="10"/><path d="M103.061 109.891h-2.708v1.322h2.708v-1.322ZM103.061 98.865h-2.708v1.322h2.708v-1.322ZM113.847 97.23h-2.708v16.125h2.708V97.229Z" fill="#fff" stroke="#263238" stroke-miterlimit="10"/><path d="M113.847 109.891h-2.708v1.322h2.708v-1.322ZM113.847 98.865h-2.708v1.322h2.708v-1.322ZM116.617 97.23h-2.709v16.125h2.709V97.229Z" fill="#fff" stroke="#263238" stroke-miterlimit="10"/><path d="M116.617 109.891h-2.709v1.322h2.709v-1.322ZM116.617 98.865h-2.709v1.322h2.709v-1.322ZM119.39 97.23h-2.708v16.125h2.708V97.229Z" fill="#fff" stroke="#263238" stroke-miterlimit="10"/><path d="M123.904 97.23h-4.536v16.125h4.536V97.229Z" fill="#fff" stroke="#263238" stroke-miterlimit="10"/><path d="M119.39 109.891h-2.708v1.322h2.708v-1.322ZM119.39 98.865h-2.708v1.322h2.708v-1.322ZM130.336 97.23h-2.709v16.125h2.709V97.229Z" fill="#fff" stroke="#263238" stroke-miterlimit="10"/><path d="M130.336 109.891h-2.709v1.322h2.709v-1.322ZM130.336 98.865h-2.709v1.322h2.709v-1.322ZM133.109 97.23H130.4v16.125h2.709V97.229Z" fill="#fff" stroke="#263238" stroke-miterlimit="10"/><path d="M133.109 109.891H130.4v1.322h2.709v-1.322ZM133.109 98.865H130.4v1.322h2.709v-1.322ZM138.652 97.223l-2.525 1.066 6.35 15.041 2.526-1.066-6.351-15.04Z" fill="#fff" stroke="#263238" stroke-miterlimit="10"/><path d="m143.575 108.746-2.521 1.069.522 1.231 2.521-1.069-.522-1.231Z" fill="#fff" stroke="#263238" stroke-width=".999" stroke-miterlimit="10"/><path d="m139.299 98.752-2.526 1.066.521 1.233 2.525-1.066-.52-1.233ZM142.482 113.325h5.654l2.544-1.059-5.674-.01-2.524 1.069ZM138.656 97.216h5.311l6.713 15.05-5.673-.01-6.351-15.04ZM135.782 97.23h-2.709v16.125h2.709V97.229Z" fill="#fff" stroke="#263238" stroke-miterlimit="10"/><path d="M135.782 109.891h-2.709v1.322h2.709v-1.322ZM135.782 98.865h-2.709v1.322h2.709v-1.322ZM135.782 97.23h2.874l-2.527 1.052 6.354 15.043h-6.701V97.229Z" fill="#fff" stroke="#263238" stroke-miterlimit="10"/><path d="M125.641 113.413v37.811M100.488 118.095h52.32" stroke="#263238" stroke-miterlimit="10"/><path d="M111.226 121.293v6.855M113.51 121.293v6.855M137.502 121.293v6.855M139.786 121.293v6.855" stroke="#263238" stroke-width="2" stroke-miterlimit="10"/><path d="M167.392 37.263V25.638h16.906M185.542 25.638h7.122v28.836h-25.272V39.026" stroke="#263238" stroke-miterlimit="10"/><path d="M183.469 50.586h-12.672v-21.06h18.458v21.06h-4.335" stroke="#263238" stroke-miterlimit="10"/><path d="M183.575 36.006h-7.098v8.1h7.098v-8.1ZM194.909 50.703v-7.251h10.546M206.23 43.452h4.442v17.985h-15.763V51.8" stroke="#263238" stroke-miterlimit="10"/><path d="M204.937 59.013h-7.903V45.875h11.512v13.138h-2.706" stroke="#263238" stroke-miterlimit="10"/><path d="M205.005 49.919h-4.429v5.05h4.429v-5.05Z" stroke="#263238" stroke-miterlimit="10"/><path d="M27.8 153.051h182.735" stroke="#263238" stroke-linecap="round" stroke-linejoin="round"/><path d="M40.76 107.691s-1.944-25.92-.972-28.836c.972-2.916 6.966-2.754 8.1-2.754 1.134 0 24.786 0 28.188 1.62 3.402 1.62 3.888 41.472 3.888 41.472H42.38l-1.62-11.502Z" fill="#263238" stroke="#263238" stroke-miterlimit="10"/><path d="M81.257 105.585s-3.888 0-4.666 3.888c-.778 3.888 2.284 19.926 2.511 24.462.227 4.536 1.024 10.854 1.024 10.854h13.77l3.078-39.204H81.257Z" fill="#263238" stroke="#263238" stroke-miterlimit="10"/><path d="M96.973 105.585s-3.888 0-4.86 3.888c-.972 3.888 1.296 19.926 1.296 24.462 0 4.536.486 10.854.486 10.854h4.86s.486-11.664.486-13.284c0-1.62 1.944-18.468.972-21.87-.972-3.402-1.782-3.726-3.24-4.05Z" fill="#636363" stroke="#263238" stroke-miterlimit="10"/><path d="M55.906 77.802s-12.879 5.265-12.879 5.832c0 .567 4.374 15.795 5.994 18.144 1.62 2.349 2.754 4.941 3.24 5.913.486.972 2.592 3.402 4.293 3.402s3.726-2.025 9.153-2.835c5.427-.81 10.287-.729 11.26-1.458.971-.729-.244-2.673-.406-3.078-.162-.405-.81-1.863-.81-1.863s5.265 4.374 7.371 4.536c2.106.162 3.645-.891 3.97-2.268.323-1.377-.892-4.698-1.702-6.48-.81-1.782-4.617-4.617-6.318-6.804-1.7-2.187-3.888-4.779-5.427-6.56a14.733 14.733 0 0 0-4.86-3.727c-1.458-.648-5.184-2.268-7.533-2.51-2.349-.244-5.346-.244-5.346-.244Z" fill="#fff" stroke="#263238" stroke-miterlimit="10"/><path d="M81.15 96.782s-1.834 5.077-1.186 6.373c.648 1.296 2.375 1.727 2.375 1.727M53.963 79.503l10.692 10.368 1.62-7.776" stroke="#263238" stroke-miterlimit="10"/><path d="M81.665 97.404s2.592 1.863 3.483 1.215c.89-.648.648-1.863.08-3.159-.566-1.296-2.43-2.025-3.158-1.458-.73.567-.972 2.835-.405 3.402ZM55.097 74.4l.405 4.86 8.586 8.424 1.296-5.994.567-2.51s-5.59-.973-7.371-2.188c-1.782-1.215-3.483-2.592-3.483-2.592Z" fill="#fff" stroke="#263238" stroke-miterlimit="10"/><path d="M65.95 79.18s-5.588-.973-7.37-2.188c-1.782-1.215-3.483-2.592-3.483-2.592l.405 4.86 2.17 2.129c1.689.476 3.37.706 4.514.265a17.94 17.94 0 0 0 3.616-1.798l.149-.677ZM52.53 70.648s-1.512-6.914-1.512-8.1 4.105-7.238 9.72-6.266c5.615.972 8.748 4.212 8.965 5.184.217.972-.648 2.916-.648 2.916.17.563.28 1.143.324 1.73 0 .648-.972 3.454-.972 3.454l-.324-2.916s-2.7.758-4.212.758c-1.513 0-4.105-.972-4.105-.972s.54 1.727 0 2.592c-.541.865-2.158 1.62-2.158 1.62s-.217 1.727-.865 1.727c-.8-.04-1.594-.149-2.375-.324-.434-.107-1.837-1.403-1.837-1.403Z" fill="#263238" stroke="#263238" stroke-miterlimit="10"/><path d="M55.016 71.403s-.217-2.592-2.378-1.944c-2.161.648-.755 3.023.434 4.212 1.189 1.19 1.51.324 1.51.324s.324 2.485 1.944 3.888c1.62 1.403 4.105 3.995 6.697 3.671 2.592-.324 4.429-3.564 4.753-5.939.324-2.375.538-7.993.538-8.64a12.153 12.153 0 0 0-.431-2.159s-2.268 1.62-4.32 1.186c-2.05-.434-4.211-1.296-5.183-1.296-.972 0-.758 1.406-.434 1.837.324.431 1.189 1.296.217 1.837-.972.541-2.268 1.08-2.268 1.08v2.267l-1.08-.324Z" fill="#fff" stroke="#263238" stroke-miterlimit="10"/><path d="m65.348 70.224-.532 5.854-2.66-.77" stroke="#263238" stroke-miterlimit="10"/><path d="M63.102 75.78s-1.296 0-2.009.062c-.428.07-.863.09-1.296.058-.294-.058-.648-.295-.058.295s2.365 1.296 3.311 1.42c.946.122 1.598-.179 2.304-.649.706-.47 1.296-.946.946-1.063a7.8 7.8 0 0 0-1.477-.12v.299l-1.72-.302Z" fill="#263238" stroke="#263238" stroke-miterlimit="10"/><path d="M61.24 72.233c.213 0 .386-.357.386-.797 0-.44-.173-.798-.386-.798-.213 0-.386.357-.386.797 0 .44.173.798.386.798ZM67.003 71.319c0 .44-.171.797-.382.797-.21 0-.386-.356-.386-.797 0-.44.172-.8.386-.8.214 0 .382.36.382.8Z" fill="#263238"/><path d="M59.791 70.224s1.597-1.125 2.897-.648M65.645 69.634s1.656-.771 2.366-.061M62.276 72.9s-.356.415-1.539.768M65.526 72.647c.35.242.728.44 1.125.593" stroke="#263238" stroke-miterlimit="10"/><path d="m70.567 88.008.567-1.458s.73.73 2.673.73c1.944 0 5.103 1.376 5.103 1.376l.243.405s.567-1.7 1.62-2.025c1.053-.324 2.754-1.458 2.997-1.782l.243-.324 1.134.972-5.022 6.642L70.73 88.9l-.162-.89Z" fill="#fff" stroke="#263238" stroke-miterlimit="10"/><path d="m70.649 87.441-2.43 12.879 8.424 1.944L79.72 89.79l-9.072-2.349Z" fill="#fff" stroke="#263238" stroke-miterlimit="10"/><path d="m79.72 89.79 5.428-3.888-3.24 12.474-5.265 3.888L79.72 89.79ZM60.2 97.971l3.67-1.513s3.24-3.454 3.564-3.778c.324-.324 3.564-.648 3.564-.648l3.564 2.375s.648.541 0 .755c-.648.214-2.05-.43-2.05-.43l-1.407-.866-.862.434 1.834 1.51s.541 1.406.541 2.161a3.51 3.51 0 0 1-.324 1.403l-1.079 1.513-3.24-1.62s-1.944 1.403-2.378 1.62c-.434.217-4.536-.107-4.536-.107l-.862-2.809Z" fill="#fff" stroke="#263238" stroke-miterlimit="10"/><path d="m67.946 94.187 1.147-.217.985.272M66.855 96.319s2.566-.713 2.73-.713c.166 0 2.078 1.967 2.078 1.967l.217 2.132" stroke="#263238" stroke-miterlimit="10"/><path d="m66.965 97.683 2.073.055 1.912 1.257c.194.611.284 1.251.266 1.892" stroke="#263238" stroke-miterlimit="10"/><path d="M45.295 82.095s-2.378.324-2.702 2.375c-.324 2.05-2.482 19.333-1.834 21.277.648 1.944 12.636-1.403 13.067-1.62.431-.217 7.235-2.268 7.345-2.699.11-.431.324-3.998-.648-4.212-.972-.214-10.26.107-10.26.107L48.965 86.09" fill="#fff"/><path d="M45.295 82.095s-2.378.324-2.702 2.375c-.324 2.05-2.482 19.333-1.834 21.277.648 1.944 12.636-1.403 13.067-1.62.431-.217 7.235-2.268 7.345-2.699.11-.431.324-3.998-.648-4.212-.972-.214-10.26.107-10.26.107L48.965 86.09M50.262 97.323l-5.725.972M43.458 97l4.967.647" stroke="#263238" stroke-miterlimit="10"/><path d="M83.69 91.248s-2.188 2.268-2.107 2.835c.081.567 1.215-.324 1.458-.567.243-.243 1.377-.89 1.377-1.539 0-.648-.243-1.377-.729-.729Z" fill="#fff" stroke="#263238" stroke-miterlimit="10"/><path d="M83.933 92.625s.648.648.648 1.215c0 .567-1.377 2.43-2.025 2.43-.648 0-.162-1.296.162-1.863s1.215-1.782 1.215-1.782Z" fill="#fff" stroke="#263238" stroke-miterlimit="10"/><path d="M84.58 93.84s.81.243.81.972c0 .73-1.539 1.944-1.944 2.025-.405.081-.324-.648 0-1.215.324-.567 1.134-1.782 1.134-1.782Z" fill="#fff" stroke="#263238" stroke-miterlimit="10"/><path d="M85.39 94.812c.166.41.222.857.162 1.296-.08.81-1.296 1.296-1.7 1.296-.406 0-.406-.567-.406-.567a24.928 24.928 0 0 0 1.944-2.025ZM59.914 153.051h-1.539l-.768-10.206h3.078l-.77 10.206ZM45.82 153.051h-1.538l-.768-10.206h3.078l-.771 10.206ZM96.689 153.051h-1.54l-.767-10.206h3.078l-.771 10.206ZM82.594 153.051h-1.539l-.768-10.206h3.078l-.771 10.206Z" fill="#fff" stroke="#263238" stroke-miterlimit="10"/><path d="M94.543 123.318H57.77v21.384h36.774v-21.384Z" fill="#263238" stroke="#263238" stroke-miterlimit="10"/><path d="M121.218 119.896s3.888-1.62 4.753-2.268c.865-.648 2.051.755 1.51 2.268-.541 1.513-1.944 4.212-4.102 5.508-2.158 1.296-3.888 2.375-4.322 2.806-.434.431-.324 2.054-2.158 2.702-1.834.648-4.105-.648-5.401-2.702-1.296-2.054-2.161-3.454-2.161-3.454s.11-1.513 2.268-2.268c2.158-.755 5.832-1.082 5.832-1.082l3.781-1.51Z" fill="#fff" stroke="#263238" stroke-miterlimit="10"/><path d="M76.966 106.8s2.563-.622 3.211-.298c.648.324 2.81 2.378 2.81 2.378s13.066.214 14.038.648c.972.434 11.016 8.1 13.177 9.179a207.857 207.857 0 0 1 3.995 2.051l-1.62 7.128v.648l.11 1.082s-5.618-1.73-7.021-2.054c-1.403-.324-7.235-3.347-7.776-3.347-.54 0-4.967-1.296-4.967-1.296s-.648-.431-7.669-1.079c-7.02-.648-14.904-1.406-17.713-1.513-2.809-.107-6.48-.324-7.883-.865-1.403-.541-3.888-4.319-4.319-6.587-.43-2.268 4.102-4.212 6.046-5.077 1.944-.865 9.182-1.944 10.478-1.944 1.296 0 5.103.946 5.103.946Z" fill="#fff" stroke="#263238" stroke-miterlimit="10"/><path d="m79.423 109.959-2.161 3.133 2.916-1.944" fill="#fff"/><path d="m79.423 109.959-2.161 3.133 2.916-1.944" stroke="#263238" stroke-miterlimit="10"/><path d="M112.577 119.355s3.133-2.485 3.781-3.24c.648-.755 2.809-4.86 3.24-6.156.431-1.296 1.513-1.944 2.268-.972.755.972 1.296 2.916 1.727 3.781.431.865-.214 5.074-1.51 6.48-1.296 1.406-3.087 4.812-3.457 5.508-.972 1.834-2.485 2.051-3.457 2.158-.972.107-3.347-2.482-3.347-2.482l.755-5.077Z" fill="#fff" stroke="#263238" stroke-miterlimit="10"/><path d="M64.519 112.12s3.24-.648 6.155-.324c2.916.324 8.855 2.158 11.34 2.806 2.486.648 6.911.972 8.966 1.73 2.054.758 7.451 1.727 11.553 1.727 4.102 0 10.368.541 10.368.541s-.861 6.263-.648 7.452c.213.957.503 1.895.865 2.806 0 0-8.317.648-10.692.972-2.374.324-11.987-1.186-13.608-1.62-1.62-.434-3.995-1.079-5.507-1.079-1.514 0-4.43.648-8.642 1.079-4.212.431-10.15-1.403-10.905-1.51-.755-.107-3.458-1.082-4.106-1.513-.648-.431-4.429-7.128-3.133-9.937 1.296-2.809 2.916-3.24 2.916-3.24" fill="#fff"/><path d="M64.519 112.12s3.24-.648 6.155-.324c2.916.324 8.855 2.158 11.34 2.806 2.486.648 6.911.972 8.966 1.73 2.054.758 7.451 1.727 11.553 1.727 4.102 0 10.368.541 10.368.541s-.861 6.263-.648 7.452c.213.957.503 1.895.865 2.806 0 0-8.317.648-10.692.972-2.374.324-11.987-1.186-13.608-1.62-1.62-.434-3.995-1.079-5.507-1.079-1.514 0-4.43.648-8.642 1.079-4.212.431-10.15-1.403-10.905-1.51-.755-.107-3.458-1.082-4.106-1.513-.648-.431-4.429-7.128-3.133-9.937 1.296-2.809 2.916-3.24 2.916-3.24" stroke="#263238" stroke-miterlimit="10"/><path d="M84.386 123.016c2.083.415 4.29 1.679 7.273 2.848 3.982 1.559 11.953 1.416 12.98 1.559 1.027.142 3.635 0 3.635 0" fill="#fff"/><path d="M84.386 123.016c2.083.415 4.29 1.679 7.273 2.848 3.982 1.559 11.953 1.416 12.98 1.559 1.027.142 3.635 0 3.635 0" stroke="#263238" stroke-miterlimit="10"/><path d="m68.322 124.481 1.19.172c3.46.518 10.043-1.384 12.804-1.731" fill="#fff"/><path d="m68.322 124.481 1.19.172c3.46.518 10.043-1.384 12.804-1.731" stroke="#263238" stroke-miterlimit="10"/><path d="M64.839 124.134s.622 0 2.245.191l-2.245-.191Z" fill="#fff"/><path d="M64.839 124.134s.622 0 2.245.191" stroke="#263238" stroke-miterlimit="10"/><path d="M43.834 105.585s-3.888 0-4.665 3.888c-.778 3.888 2.268 19.926 2.51 24.462.244 4.536 1.024 10.854 1.024 10.854h13.77l3.078-39.204H43.834Z" fill="#263238" stroke="#263238" stroke-miterlimit="10"/><path d="M59.551 105.585s-3.888 0-4.86 3.888c-.972 3.888 1.296 19.926 1.296 24.462 0 4.536.486 10.854.486 10.854h4.86s.486-11.664.486-13.284c0-1.62 1.944-18.468.972-21.87-.972-3.402-1.782-3.726-3.24-4.05Z" fill="#636363" stroke="#263238" stroke-miterlimit="10"/><path d="M91.18 153.051h-1.538l-.768-10.206h3.078l-.771 10.206ZM104.302 153.051h-1.539l-.768-10.206h3.078l-.771 10.206ZM110.458 153.051h-1.539l-.768-10.206h3.078l-.771 10.206ZM123.418 153.051h-1.539l-.768-10.206h3.078l-.771 10.206Z" fill="#fff" stroke="#263238" stroke-miterlimit="10"/><path d="M89.278 129.561h33.842a2.35 2.35 0 0 1 2.349 2.349v16.605H86.913V131.91a2.351 2.351 0 0 1 2.365-2.349Z" fill="#263238" stroke="#263238" stroke-miterlimit="10"/><path d="M123.137 129.561h-12.312a2.35 2.35 0 0 0-2.349 2.349v16.605h17.01V131.91a2.353 2.353 0 0 0-2.349-2.349Z" fill="#636363" stroke="#263238" stroke-miterlimit="10"/></svg>