<svg width="214" height="214" fill="none" xmlns="http://www.w3.org/2000/svg"><path d="M187.605 71.626h-38.229v86.721h38.229V71.626Z" stroke="#263238" stroke-width=".75" stroke-linecap="round" stroke-linejoin="round"/><path d="M184.249 74.981h-31.518v80.011h31.518v-80.01ZM156.314 110.308l-.86 1.494M165.362 94.644l-8.055 13.952M172.754 81.838 166.65 92.41M174.046 79.604l-.65 1.121M158.877 148.336l-.731 1.267M160.573 145.4l-.775 1.348M170.909 127.497l-8.676 15.031M178.591 114.19l-6.792 11.77M180.274 111.28l-.672 1.164M168.491 138.762l-6.258 10.841M176.494 124.899l-7.092 12.284M178.159 122.018l-.839 1.451M155.454 121.531l-.95 1.647M163.77 107.128l-7.554 13.084M174.149 89.152l-9.489 16.431M180.385 78.35l-5.504 9.535M64.624 71.626h-38.23v86.721h38.23V71.626Z" stroke="#263238" stroke-width=".75" stroke-linecap="round" stroke-linejoin="round"/><path d="M61.268 74.981H29.75v80.011h31.518v-80.01ZM33.333 110.308l-.86 1.494M42.376 94.644l-8.055 13.952M49.772 81.838 43.67 92.41M51.06 79.604l-.646 1.121M35.896 148.336l-.732 1.267M37.59 145.4l-.779 1.348M47.927 127.497l-8.68 15.031M55.61 114.19l-6.797 11.77M57.291 111.28l-.676 1.164M45.509 138.762l-6.262 10.841M53.513 124.899l-7.092 12.284M55.173 122.018l-.834 1.451M32.472 121.531l-.954 1.647M40.784 107.128l-7.554 13.084M51.163 89.152l-9.484 16.431M57.399 78.35l-5.505 9.535" stroke="#263238" stroke-width=".75" stroke-linecap="round" stroke-linejoin="round"/><path d="M12.626 194.496h188.748" stroke="#263238" stroke-linecap="round" stroke-linejoin="round"/><path d="M78.191 160.59h-3.274v11.132h3.274V160.59Z" fill="#fff"/><path opacity=".2" d="M78.191 160.59h-3.274v11.132h3.274V160.59Z" fill="#000"/><path d="M81.47 161.814h-3.275v9.908h3.275v-9.908ZM85.557 161.814h-2.31v9.908h2.31v-9.908Z" fill="#fff"/><path opacity=".9" d="M85.557 161.814h-2.31v9.908h2.31v-9.908Z" fill="#fff"/><path d="M83.25 160.77h-2.098v10.956h2.097V160.77Z" fill="#fff"/><path opacity=".1" d="M83.25 160.77h-2.098v10.956h2.097V160.77Z" fill="#000"/><path d="M88.836 160.59H85.56v11.132h3.275V160.59Z" fill="#fff"/><path d="M92.11 161.814h-3.275v9.908h3.274v-9.908Z" fill="#fff"/><path opacity=".2" d="M92.11 161.814h-3.275v9.908h3.274v-9.908Z" fill="#263238"/><path d="M96.202 161.814H93.89v9.908h2.31v-9.908Z" fill="#fff"/><path opacity=".8" d="M96.202 161.814H93.89v9.908h2.31v-9.908Z" fill="#fff"/><path d="M93.89 160.77h-2.097v10.956h2.097V160.77Z" fill="#fff"/><path opacity=".1" d="M93.89 160.77h-2.097v10.956h2.097V160.77Z" fill="#000"/><path d="M111.823 171.726h3.275v-11.132h-3.275v11.132Z" fill="#fff"/><path opacity=".2" d="M111.823 171.726h3.275v-11.132h-3.275v11.132Z" fill="#000"/><path d="M108.545 171.726h3.274v-9.908h-3.274v9.908ZM104.457 171.726h2.312v-9.908h-2.312v9.908Z" fill="#fff"/><path opacity=".9" d="M104.457 171.726h2.312v-9.908h-2.312v9.908Z" fill="#fff"/><path d="M106.764 171.722h2.097v-10.957h-2.097v10.957Z" fill="#fff"/><path opacity=".1" d="M106.764 171.722h2.097v-10.957h-2.097v10.957Z" fill="#000"/><path d="M101.179 171.726h3.274v-11.132h-3.274v11.132ZM97.904 171.726h3.275v-9.908h-3.275v9.908Z" fill="#fff"/><path opacity=".2" d="M97.904 171.726h3.275v-9.908h-3.275v9.908Z" fill="#263238"/><path d="M96.124 171.722h2.098v-10.957h-2.097v10.957Z" fill="#fff"/><path opacity=".1" d="M96.124 171.722h2.098v-10.957h-2.097v10.957Z" fill="#000"/><path d="M130.698 171.726h3.275v-11.132h-3.275v11.132Z" fill="#fff"/><path opacity=".2" d="M130.698 171.726h3.275v-11.132h-3.275v11.132Z" fill="#000"/><path d="M127.42 171.726h3.274v-9.908h-3.274v9.908ZM123.332 171.726h2.312v-9.908h-2.312v9.908Z" fill="#fff"/><path opacity=".9" d="M123.332 171.726h2.312v-9.908h-2.312v9.908Z" fill="#fff"/><path d="M125.639 171.722h2.097v-10.957h-2.097v10.957Z" fill="#fff"/><path opacity=".1" d="M125.639 171.722h2.097v-10.957h-2.097v10.957Z" fill="#000"/><path d="M120.054 171.726h3.274v-11.132h-3.274v11.132ZM136.103 171.333l2.151-.576-2.894-10.799-2.151.577 2.894 10.798ZM116.78 171.726h3.274v-9.908h-3.274v9.908Z" fill="#fff"/><path opacity=".2" d="M116.78 171.726h3.274v-9.908h-3.274v9.908Z" fill="#263238"/><path d="M114.999 171.722h2.098v-10.957h-2.098v10.957Z" fill="#fff"/><path opacity=".1" d="M114.999 171.722h2.098v-10.957h-2.098v10.957Z" fill="#000"/><path d="m137.2 186.187 2.199-.589-2.881-10.753-2.199.589 2.881 10.753Z" fill="#fff"/><path opacity=".2" d="m137.2 186.187 2.199-.589-2.881-10.753-2.199.589 2.881 10.753Z" fill="#000"/><path d="M131.55 186.077h3.274v-9.908h-3.274v9.908ZM127.453 186.077h2.312v-9.908h-2.312v9.908Z" fill="#fff"/><path opacity=".9" d="M127.453 186.077h2.312v-9.908h-2.312v9.908Z" fill="#fff"/><path d="M129.765 186.082h2.097v-10.957h-2.097v10.957Z" fill="#fff"/><path opacity=".1" d="M129.765 186.082h2.097v-10.957h-2.097v10.957Z" fill="#000"/><path d="M124.184 186.082h3.274v-11.133h-3.274v11.133ZM120.905 186.077h3.275v-9.908h-3.275v9.908Z" fill="#fff"/><path opacity=".2" d="M120.905 186.077h3.275v-9.908h-3.275v9.908Z" fill="#263238"/><path d="M116.818 186.077h2.311v-9.908h-2.311v9.908Z" fill="#fff"/><path opacity=".8" d="M116.818 186.077h2.311v-9.908h-2.311v9.908Z" fill="#fff"/><path d="M119.124 186.082h2.098v-10.957h-2.098v10.957Z" fill="#fff"/><path opacity=".1" d="M119.124 186.082h2.098v-10.957h-2.098v10.957Z" fill="#000"/><path d="M101.196 174.949h-3.274v11.132h3.274v-11.132Z" fill="#fff"/><path opacity=".2" d="M101.196 174.949h-3.274v11.132h3.274v-11.132Z" fill="#000"/><path d="M104.47 176.173h-3.274v9.909h3.274v-9.909ZM108.562 176.173h-2.311v9.909h2.311v-9.909Z" fill="#fff"/><path opacity=".9" d="M108.562 176.173h-2.311v9.909h2.311v-9.909Z" fill="#fff"/><path d="M106.251 175.125h-2.098v10.957h2.098v-10.957Z" fill="#fff"/><path opacity=".1" d="M106.251 175.125h-2.098v10.957h2.098v-10.957Z" fill="#000"/><path d="M111.836 174.949h-3.274v11.132h3.274v-11.132ZM115.11 176.173h-3.274v9.909h3.274v-9.909Z" fill="#fff"/><path opacity=".2" d="M115.11 176.173h-3.274v9.909h3.274v-9.909Z" fill="#263238"/><path d="M116.89 175.125h-2.097v10.957h2.097v-10.957Z" fill="#fff"/><path opacity=".1" d="M116.89 175.125h-2.097v10.957h2.097v-10.957Z" fill="#000"/><path d="M82.321 174.949h-3.274v11.133h3.274v-11.133Z" fill="#fff"/><path opacity=".2" d="M82.321 174.949h-3.274v11.133h3.274v-11.133Z" fill="#000"/><path d="M85.596 176.173H82.32v9.909h3.275v-9.909ZM89.687 176.173h-2.311v9.909h2.311v-9.909Z" fill="#fff"/><path opacity=".9" d="M89.687 176.173h-2.311v9.909h2.311v-9.909Z" fill="#fff"/><path d="M87.376 175.125H85.28v10.957h2.097v-10.957Z" fill="#fff"/><path opacity=".1" d="M87.376 175.125H85.28v10.957h2.097v-10.957Z" fill="#000"/><path d="M92.962 174.949h-3.275v11.133h3.275v-11.133ZM79.04 175.425l-2.14-.574-2.882 10.753 2.142.574 2.88-10.753ZM96.236 176.173h-3.274v9.909h3.274v-9.909Z" fill="#fff"/><path opacity=".2" d="M96.236 176.173h-3.274v9.909h3.274v-9.909Z" fill="#263238"/><path d="M98.016 175.125H95.92v10.957h2.097v-10.957Z" fill="#fff"/><path opacity=".1" d="M98.016 175.125H95.92v10.957h2.097v-10.957Z" fill="#000"/><path d="M77.433 194.496H74.16l-.449-6.334h4.173l-.45 6.334ZM139.84 194.496h-3.274l-.45-6.334h4.173l-.449 6.334Z" fill="#263238"/><path d="M143.448 156.387H70.551a1.569 1.569 0 0 0-1.57 1.571v29.78a1.573 1.573 0 0 0 1.57 1.571h72.897a1.574 1.574 0 0 0 1.571-1.571v-29.78a1.574 1.574 0 0 0-1.571-1.571Zm-1.575 3.146v12.193H72.109v-12.193h69.764ZM72.126 186.18v-12.207h69.764v12.207H72.126Z" fill="#fff" stroke="#263238" stroke-width=".75" stroke-linecap="round" stroke-linejoin="round"/><path d="M132.671 93.835h-50.44a2.936 2.936 0 0 0-2.936 2.936v10.828a2.936 2.936 0 0 0 2.936 2.936h50.44a2.936 2.936 0 0 0 2.936-2.936V96.771a2.936 2.936 0 0 0-2.936-2.936Z" fill="#263238" stroke="#263238" stroke-linecap="round" stroke-linejoin="round"/><path d="M131.772 92.936h-50.44a2.936 2.936 0 0 0-2.935 2.936V106.7a2.937 2.937 0 0 0 2.936 2.937h50.439a2.936 2.936 0 0 0 2.936-2.937V95.872a2.936 2.936 0 0 0-2.936-2.936Z" fill="#fff" stroke="#263238" stroke-linecap="round" stroke-linejoin="round"/><path d="M131.772 92.936h-50.44a2.936 2.936 0 0 0-2.935 2.936V106.7a2.937 2.937 0 0 0 2.936 2.937h50.439a2.936 2.936 0 0 0 2.936-2.937V95.872a2.936 2.936 0 0 0-2.936-2.936Z" stroke="#263238" stroke-linecap="round" stroke-linejoin="round"/><path d="M90.865 106.217h-7.418v-9.382h4.944l2.474 2.474v6.908Z" fill="#fff"/><path opacity=".5" d="M90.865 106.217h-7.418v-9.382h4.944l2.474 2.474v6.908Z" fill="#fff"/><path d="M90.865 106.217h-7.418v-9.382h4.944l2.474 2.474v6.908Z" stroke="#263238" stroke-linecap="round" stroke-linejoin="round"/><path d="M88.39 99.309h2.475l-2.474-2.474v2.474Z" fill="#fff" stroke="#263238" stroke-linecap="round" stroke-linejoin="round"/><path d="M85.095 101.813a.473.473 0 0 1-.426-.469.473.473 0 0 1 .426-.469h4.121a.472.472 0 0 1 0 .938h-4.121ZM85.095 103.786a.473.473 0 0 1-.426-.469.473.473 0 0 1 .426-.469h3.223a.472.472 0 0 1 0 .938h-3.223Z" fill="#858585" stroke="#263238" stroke-width=".75" stroke-linecap="round" stroke-linejoin="round"/><path d="M109.614 102.352H95.811a.97.97 0 0 0 0 1.939h13.803v-1.939Z" fill="#fff"/><path d="M95.811 104.291a.975.975 0 0 1-.907-.97.97.97 0 0 1 .907-.969h32.871a.979.979 0 0 1 .728.26.978.978 0 0 1 .308.709.972.972 0 0 1-1.036.97h-32.87Z" stroke="#263238" stroke-linecap="round" stroke-linejoin="round"/><path d="M109.927 99.724h-1.04v-.492l.988-2.341h.595v2.34h.257v.493h-.257v.629h-.543v-.629Zm0-.492v-1.348l-.535 1.352.535-.004ZM110.98 99.536v-.27h.514v.308c0 .249.107.338.283.338.175 0 .282-.09.282-.338V98.8c0-.249-.111-.343-.282-.343-.172 0-.283.094-.283.343v.03h-.514l.099-1.935h1.434v.496h-.95l-.043.826a.515.515 0 0 1 .471-.252c.398 0 .603.282.603.792v.779c0 .556-.278.856-.813.856-.535 0-.801-.3-.801-.856ZM112.941 98.265v-.856a.525.525 0 1 1 1.048 0v.856a.525.525 0 1 1-1.048 0Zm.702.025v-.916c0-.15-.069-.214-.176-.214-.107 0-.18.065-.18.214v.916c0 .154.064.218.18.218.116 0 .176-.068.176-.218Zm1.078-1.395h.347l-1.34 3.463h-.347l1.34-3.463Zm-.261 2.958v-.856a.525.525 0 0 1 1.023-.216c.024.07.032.143.026.215v.857a.526.526 0 0 1-.525.573.533.533 0 0 1-.388-.171.53.53 0 0 1-.136-.402Zm.702.025v-.916c0-.154-.069-.218-.18-.218-.111 0-.175.064-.175.218v.916c0 .154.064.218.175.218.111 0 .18-.064.18-.218Z" fill="#263238"/><path d="M132.671 113.215h-50.44a2.936 2.936 0 0 0-2.936 2.936v10.828a2.936 2.936 0 0 0 2.936 2.936h50.44a2.936 2.936 0 0 0 2.936-2.936v-10.828a2.936 2.936 0 0 0-2.936-2.936Z" fill="#263238" stroke="#263238" stroke-linecap="round" stroke-linejoin="round"/><path d="M131.772 112.316h-50.44a2.936 2.936 0 0 0-2.935 2.936v10.828a2.936 2.936 0 0 0 2.936 2.936h50.439a2.935 2.935 0 0 0 2.936-2.936v-10.828a2.935 2.935 0 0 0-2.936-2.936Z" fill="#fff" stroke="#263238" stroke-linecap="round" stroke-linejoin="round"/><path d="M120.503 121.612H95.811a.97.97 0 0 0 0 1.939h24.692v-1.939Z" fill="#fff"/><path d="M95.811 123.551a.975.975 0 0 1-.907-.97.97.97 0 0 1 .907-.969h32.871a.979.979 0 0 1 .728.26.978.978 0 0 1 .308.709.972.972 0 0 1-1.036.97h-32.87Z" stroke="#263238" stroke-linecap="round" stroke-linejoin="round"/><path d="M108.951 118.813v-.308a.716.716 0 0 1 .355-.706.685.685 0 0 1-.334-.681v-.141c0-.22.088-.432.244-.587a.827.827 0 0 1 1.174 0 .828.828 0 0 1 .243.587v.141a.7.7 0 0 1-.338.681.714.714 0 0 1 .359.706v.308a.856.856 0 1 1-1.712 0h.009Zm1.16-.03v-.334c0-.261-.107-.389-.308-.389-.202 0-.308.128-.308.389v.334c0 .261.106.389.308.389.201 0 .308-.128.308-.389Zm0-1.562v-.274c0-.227-.099-.347-.287-.347-.188 0-.287.12-.287.347v.274c0 .227.099.346.287.346.188 0 .265-.119.265-.346h.022ZM110.98 118.796v-.27h.514v.308c0 .248.107.338.283.338.175 0 .282-.09.282-.338v-.774c0-.249-.111-.343-.282-.343-.172 0-.283.094-.283.343v.03h-.514l.099-1.935h1.434v.496h-.95l-.043.826a.513.513 0 0 1 .471-.252c.398 0 .603.282.603.792v.779a.82.82 0 0 1-.216.612.803.803 0 0 1-.595.26.81.81 0 0 1-.767-.543.82.82 0 0 1-.044-.329h.008ZM112.941 117.525v-.856a.526.526 0 1 1 1.048 0v.856a.524.524 0 0 1-.524.573.53.53 0 0 1-.389-.171.528.528 0 0 1-.135-.402Zm.702.025v-.916c0-.149-.069-.218-.176-.218-.107 0-.18.069-.18.218v.916c0 .154.064.219.18.219.116 0 .176-.069.176-.219Zm1.078-1.395h.347l-1.34 3.462h-.347l1.34-3.462Zm-.261 2.957v-.856a.524.524 0 0 1 .524-.573.53.53 0 0 1 .525.573v.856a.527.527 0 1 1-1.049 0Zm.702.026v-.916c0-.154-.069-.218-.18-.218-.111 0-.175.064-.175.218v.916c0 .154.064.218.175.218.111 0 .18-.064.18-.218Z" fill="#263238"/><path d="M90.865 125.477h-7.418v-9.382h4.944l2.474 2.474v6.908Z" fill="#fff"/><path opacity=".5" d="M90.865 125.477h-7.418v-9.382h4.944l2.474 2.474v6.908Z" fill="#fff" stroke="#263238" stroke-linecap="round" stroke-linejoin="round"/><path d="M90.865 125.477h-7.418v-9.382h4.944l2.474 2.474v6.908Z" stroke="#263238" stroke-linecap="round" stroke-linejoin="round"/><path d="M85.095 121.073a.473.473 0 0 1-.426-.469.473.473 0 0 1 .426-.469h4.121a.472.472 0 0 1 0 .938h-4.121ZM85.095 123.046a.473.473 0 0 1-.426-.469.473.473 0 0 1 .426-.469h3.223a.472.472 0 0 1 0 .938h-3.223Z" fill="#858585" stroke="#263238" stroke-width=".75" stroke-linecap="round" stroke-linejoin="round"/><path d="M88.39 118.569h2.475l-2.474-2.474v2.474Z" fill="#fff" stroke="#263238" stroke-linecap="round" stroke-linejoin="round"/><path d="M139.567 67.958H75.333a2.936 2.936 0 0 0-2.936 2.936v14.924a2.936 2.936 0 0 0 2.936 2.936h64.234a2.936 2.936 0 0 0 2.936-2.936V70.894a2.936 2.936 0 0 0-2.936-2.936Z" fill="#263238" stroke="#263238" stroke-linecap="round" stroke-linejoin="round"/><path d="M138.667 67.06H74.433a2.936 2.936 0 0 0-2.936 2.935V84.92a2.936 2.936 0 0 0 2.936 2.937h64.234a2.937 2.937 0 0 0 2.937-2.936V69.995a2.937 2.937 0 0 0-2.937-2.936Z" fill="#fff" stroke="#263238" stroke-linecap="round" stroke-linejoin="round"/><path d="M95.966 86.144H82.231V68.77h9.155l4.58 4.575v12.798Z" fill="#fff"/><path opacity=".7" d="M95.966 86.144H82.231V68.77h9.155l4.58 4.575v12.798Z" fill="#fff"/><path d="M95.966 86.144H82.231V68.77h9.155l4.58 4.575v12.798Z" stroke="#263238" stroke-linecap="round" stroke-linejoin="round"/><path d="M91.387 73.346h4.58l-4.58-4.575v4.575Z" fill="#fff" stroke="#263238" stroke-linecap="round" stroke-linejoin="round"/><path d="M86.284 75.486h-2.696v2.697h2.696v-2.697ZM89.058 75.486H86.36v2.697h2.697v-2.697ZM91.835 75.486H89.14v2.697h2.696v-2.697ZM94.61 75.487h-2.697v2.696h2.697v-2.697ZM86.284 78.183h-2.696v2.696h2.696v-2.696ZM89.058 78.183H86.36v2.696h2.697v-2.696ZM91.835 78.183H89.14v2.696h2.696v-2.696ZM94.61 78.183h-2.697v2.696h2.697v-2.696Z" stroke="#fff" stroke-width=".75" stroke-linecap="round" stroke-linejoin="round"/><path d="M86.284 80.88h-2.696v2.696h2.696v-2.697ZM89.058 80.88H86.36v2.696h2.697v-2.697ZM91.835 80.88H89.14v2.696h2.696v-2.697ZM94.61 80.88h-2.697v2.696h2.697v-2.697Z" stroke="#fff" stroke-width=".75" stroke-linecap="round" stroke-linejoin="round"/><path d="m83.64 83.314 2.722-2.499 1.348.064 1.472-2.658 1.306 1.31 1.463-1.537 1.31-2.508" stroke="#fff" stroke-width="2" stroke-linecap="round" stroke-linejoin="round"/><path d="m91.716 76.27 1.545-.783.312 1.686" stroke="#fff" stroke-width="2" stroke-linecap="round" stroke-linejoin="round"/><path d="M101.368 76.903h-.788v-.522c.625 0 .856-.137 1.019-.595h.496v4.708h-.74l.013-3.59ZM102.972 79.385v-2.482a1.125 1.125 0 1 1 2.251 0v2.482a1.126 1.126 0 0 1-2.251 0Zm1.511.048v-2.568c0-.334-.15-.463-.386-.463-.235 0-.385.129-.385.463v2.568c0 .338.15.466.385.466.236 0 .386-.128.386-.466ZM105.669 79.385v-2.482a1.126 1.126 0 0 1 2.251 0v2.482a1.125 1.125 0 1 1-2.251 0Zm1.511.048v-2.568c0-.334-.15-.463-.385-.463-.236 0-.386.129-.386.463v2.568c0 .338.15.466.386.466.235 0 .385-.128.385-.466ZM108.378 77.652v-1.177a.714.714 0 1 1 1.429 0v1.177a.715.715 0 1 1-1.429 0Zm.959.034v-1.245c0-.21-.095-.3-.244-.3-.15 0-.244.09-.244.3v1.245c0 .21.09.296.244.296s.244-.086.244-.296Zm1.468-1.9h.475l-1.828 4.708h-.471l1.824-4.708Zm-.36 4.032v-1.181a.714.714 0 0 1 1.43 0v1.18a.714.714 0 0 1-.715.716.718.718 0 0 1-.66-.442.714.714 0 0 1-.055-.273Zm.959.034v-1.25c0-.21-.094-.295-.244-.295s-.24.085-.24.295v1.25c0 .205.086.295.24.295s.244-.09.244-.295ZM113.073 79.03v-1.862a.801.801 0 0 1 1.601 0v.368h-.514v-.402c0-.227-.111-.32-.274-.32-.162 0-.269.093-.269.32v1.935c0 .227.107.316.269.316.163 0 .274-.09.274-.316v-.531h.514v.492a.8.8 0 1 1-1.601 0ZM114.969 79.009v-1.82a.826.826 0 1 1 1.652 0v1.82a.826.826 0 1 1-1.652 0Zm1.108.034v-1.887c0-.249-.107-.343-.282-.343-.176 0-.283.094-.283.343v1.887c0 .248.112.342.283.342.171 0 .282-.094.282-.342ZM116.985 76.368h.779l.347 2.478.347-2.478h.774v3.463h-.513v-2.62l-.398 2.62h-.454l-.394-2.62v2.62h-.475l-.013-3.463ZM119.647 76.368h.801c.543 0 .809.304.809.856v.343c0 .552-.266.856-.809.856h-.257v1.408h-.544v-3.463Zm.801 1.558c.171 0 .265-.077.265-.325v-.428c0-.249-.094-.326-.265-.326h-.257v1.062l.257.017ZM121.552 76.368h.543v2.966h.895v.497h-1.438v-3.463ZM123.264 76.368h1.481v.497h-.938v.911h.741v.497h-.745v1.061h.937v.497h-1.476v-3.463ZM125.472 76.865h-.565v-.497h1.678v.497h-.569v2.966h-.544v-2.966ZM126.851 76.368h1.48v.497h-.937v.911h.745v.497h-.745v1.061h.937v.497h-1.48v-3.463ZM128.644 76.368h.83c.543 0 .809.304.809.856v1.75c0 .553-.266.857-.809.857h-.83v-3.463Zm.817 2.966c.176 0 .278-.09.278-.334v-1.802c0-.243-.102-.333-.278-.333h-.274v2.47h.274Z" fill="#263238"/><path d="M132.671 132.599h-50.44a2.936 2.936 0 0 0-2.936 2.936v10.828a2.936 2.936 0 0 0 2.936 2.936h50.44a2.936 2.936 0 0 0 2.936-2.936v-10.828a2.936 2.936 0 0 0-2.936-2.936Z" fill="#263238" stroke="#263238" stroke-linecap="round" stroke-linejoin="round"/><path d="M131.772 131.7h-50.44a2.936 2.936 0 0 0-2.935 2.936v10.828a2.937 2.937 0 0 0 2.936 2.937h50.439a2.936 2.936 0 0 0 2.936-2.937v-10.828a2.935 2.935 0 0 0-2.936-2.936Z" fill="#fff" stroke="#263238" stroke-linecap="round" stroke-linejoin="round"/><path d="M118.761 140.876H95.812a.966.966 0 0 0-.967.967.966.966 0 0 0 .967.968h22.949v-1.935Z" fill="#fff"/><path d="M95.812 142.811a.966.966 0 0 1-.967-.968.965.965 0 0 1 .967-.967h32.87a.967.967 0 0 1 0 1.935h-32.87Z" stroke="#263238" stroke-linecap="round" stroke-linejoin="round"/><path d="M90.865 144.741h-7.418v-9.382h4.944l2.474 2.47v6.912Z" fill="#fff"/><path opacity=".5" d="M90.865 144.741h-7.418v-9.382h4.944l2.474 2.47v6.912Z" fill="#fff"/><path d="M90.865 144.741h-7.418v-9.382h4.944l2.474 2.47v6.912Z" stroke="#263238" stroke-linecap="round" stroke-linejoin="round"/><path d="M85.095 140.337a.469.469 0 0 1-.426-.469.468.468 0 0 1 .426-.468h4.121a.469.469 0 0 1 .427.468.472.472 0 0 1-.427.469h-4.121ZM85.094 142.306a.465.465 0 0 1-.466-.467.467.467 0 0 1 .466-.466h3.223a.468.468 0 0 1 .467.466.465.465 0 0 1-.467.467h-3.222Z" fill="#858585" stroke="#263238" stroke-width=".75" stroke-linecap="round" stroke-linejoin="round"/><path d="M88.39 137.829h2.475l-2.474-2.47v2.47Z" fill="#fff" stroke="#263238" stroke-linecap="round" stroke-linejoin="round"/><path d="M110.081 135.911h-1.1v-.492h1.631v.475l-.856 2.996h-.556l.881-2.979ZM110.954 138.06v-1.819a.826.826 0 0 1 1.652 0v1.819a.826.826 0 0 1-1.652 0Zm1.109.034v-1.887c0-.249-.112-.343-.283-.343-.171 0-.282.094-.282.343v1.887c0 .248.111.338.282.338.171 0 .283-.09.283-.338ZM112.941 136.789v-.856a.528.528 0 0 1 .312-.529.514.514 0 0 1 .424 0 .526.526 0 0 1 .312.529v.856a.522.522 0 0 1-.312.529.534.534 0 0 1-.424 0 .52.52 0 0 1-.312-.529Zm.702.026v-.916c0-.154-.069-.219-.176-.219-.107 0-.18.065-.18.219v.916c0 .149.064.214.18.214.116 0 .176-.069.176-.214Zm1.061-1.396h.347l-1.34 3.459h-.347l1.34-3.459Zm-.261 2.958v-.856a.528.528 0 0 1 .312-.529.518.518 0 0 1 .425 0 .522.522 0 0 1 .311.529v.856a.522.522 0 0 1-.311.529.539.539 0 0 1-.425 0 .53.53 0 0 1-.312-.529Zm.702.021v-.911c0-.155-.069-.219-.18-.219-.111 0-.175.064-.175.219v.911c0 .154.064.218.175.218.111 0 .197-.064.197-.218h-.017Z" fill="#263238"/><path d="m50.692 47.166 11.295-8.732 11.295 8.732h-22.59Z" fill="#263238" stroke="#263238" stroke-linecap="round" stroke-linejoin="round"/><path d="M64.94 37.75h-5.906v5.05h5.907v-5.05Z" fill="#263238" stroke="#263238" stroke-linecap="round" stroke-linejoin="round"/><path d="M61.987 25.2v17.6" stroke="#263238" stroke-width=".75" stroke-linecap="round" stroke-linejoin="round"/><path d="m140.714 47.166 11.299-8.732 11.295 8.732h-22.594Z" fill="#263238" stroke="#263238" stroke-linecap="round" stroke-linejoin="round"/><path d="M154.966 37.75h-5.906v5.05h5.906v-5.05Z" fill="#263238" stroke="#263238" stroke-linecap="round" stroke-linejoin="round"/><path d="M152.013 24.345V42.8" stroke="#263238" stroke-width=".75" stroke-linecap="round" stroke-linejoin="round"/><path d="m156.421 183.437-.239 7.061 3.655.176 1.331-7.237h-4.747Z" fill="#fff" stroke="#263238" stroke-linecap="round" stroke-linejoin="round"/><path d="M149.269 192.664c1.233-.428 3.364-1.155 4.164-1.656.642-.402 1.537-1.712 2.2-2.08a1.096 1.096 0 0 1 .882 0c.108.12.178.268.201.428a.363.363 0 0 0 .663.094 1.52 1.52 0 0 1 .428-.514c.565-.316 2.093-.406 2.594 0 .83.681 1.13 3.026 1.284 4.083.039.232 0 1.516 0 1.516h-13.336v-.587a1.34 1.34 0 0 1 .92-1.284Z" fill="#fff" stroke="#263238" stroke-linecap="round" stroke-linejoin="round"/><path d="M161.694 194.526h-13.345v-.586a1.27 1.27 0 0 1 .072-.428h13.29c0 .449-.017 1.014-.017 1.014Z" fill="#858585" stroke="#263238" stroke-linecap="round" stroke-linejoin="round"/><path d="m158.727 128.687-2.803 57.437 5.136.856s3.236-16.623 3.629-22.067c.094-1.284 0-5.158 0-5.158l3.634-17.886s2.393-2.208 2.671-12.724l-12.267-.458Z" fill="#263238" stroke="#263238" stroke-linecap="round" stroke-linejoin="round"/><path opacity=".7" d="M166.33 150.917c.197-.83.428-1.648.706-2.461.043-.115.094-.222.145-.329.128-1.216.324-2.423.587-3.617.09-.446.33-.848.68-1.139.1-.225.249-.426.437-.586.187-.161.408-.278.646-.342a22.234 22.234 0 0 0-.719-3.266c-.325-1.121-.856-2.196-1.014-3.355-.043-.3-.214-.613-.159-.647a10.875 10.875 0 0 1-1.078-.488l-.064-.051a161.939 161.939 0 0 0-.167 16.281Z" fill="#000"/><path d="M158.483 161.54a5.14 5.14 0 0 0 2.414-1.314" stroke="#7F7F7F" stroke-width=".75" stroke-linecap="round" stroke-linejoin="round"/><path d="m155.248 187.216 6.21.509.463-2.012-6.673-.522v2.025ZM173.182 182.568l1.322 8.256 3.381-.266-.111-8.453-4.592.463Z" fill="#fff" stroke="#263238" stroke-linecap="round" stroke-linejoin="round"/><path d="M167.518 192.664c1.237-.428 3.369-1.155 4.165-1.656.642-.402 1.541-1.712 2.2-2.08a1.106 1.106 0 0 1 .886 0c.077.08.132.179.158.287a.43.43 0 0 0 .609.264.425.425 0 0 0 .179-.175c.087-.147.203-.275.342-.376.565-.317 2.093-.407 2.594 0 .83.68 1.13 3.026 1.284 4.083.034.231 0 1.515 0 1.515h-13.332v-.586a1.342 1.342 0 0 1 .915-1.276Z" fill="#fff" stroke="#263238" stroke-linecap="round" stroke-linejoin="round"/><path d="M179.948 194.526h-13.345v-.586a1.266 1.266 0 0 1 .068-.428h13.29c0 .449-.013 1.014-.013 1.014Z" fill="#858585" stroke="#263238" stroke-linecap="round" stroke-linejoin="round"/><path d="M165.875 130.42s1.284 7.435 2.465 13.67c.805 4.229.856 16.722.856 16.722l4.101 25.796 5.054-.681s.06-15.878-.509-20.972c-.129-1.134-.338-4.502-.338-4.502s.192-13.474 1.232-17.976c.745-3.21 2.226-6.583.428-13.161l-13.289 1.104Z" fill="#263238" stroke="#263238" stroke-linecap="round" stroke-linejoin="round"/><path d="M170.306 161.54a3.479 3.479 0 0 0 2.14 1.374" stroke="#7F7F7F" stroke-width=".75" stroke-linecap="round" stroke-linejoin="round"/><path d="m172.449 185.448.291 1.892 6.266-.672-.043-2.037-6.514.817Z" fill="#fff" stroke="#263238" stroke-linecap="round" stroke-linejoin="round"/><path d="m142.023 96.03-1.382-2.324s-.334-3.796-1.105-4.537c-.77-.74-2.482-2.918-2.726-2.49-.385.684 1.04 1.904 1.04 1.904l.261 1.413s-2.307-1.661-2.957-1.661c0 0-1.841-2.179-2.491-2.183-.651-.004.265 1.507.265 1.507s-.621-.475-.74-.18c-.12.295.8 1.305.8 1.305s-.355.385.18 1.212a1.505 1.505 0 0 0 .428 1.51c.71.565 4.528 2.727 4.528 2.727l1.284 3.021 2.615-1.224Z" fill="#858585" stroke="#263238" stroke-linecap="round" stroke-linejoin="round"/><path d="M133.493 88.844s.505.206.295.946c.202.286.315.626.326.976.051.65 3.347.33 4.237 1.712M133.493 88.044l1.344 1.42" stroke="#263238" stroke-width=".75" stroke-linecap="round" stroke-linejoin="round"/><path d="m156.292 95.444-8.821 6.874-6.043-8.235-3.077 1.54s4.836 13.363 8.495 13.363c3.891 0 11.287-6.249 11.287-6.249s.466-1.194-1.841-7.293Z" fill="#fff" stroke="#263238" stroke-linecap="round" stroke-linejoin="round"/><path d="M147.805 102.973c.206.438.36.899.458 1.373" stroke="#263238" stroke-width=".75" stroke-linecap="round" stroke-linejoin="round"/><path d="m156.292 95.444 1.879 24.871v10.332s10.824 1.284 21.503-.274l-.368-10.636 1.082-23.707s-4.956-3.582-12.566-3.582-11.53 2.996-11.53 2.996Z" fill="#fff" stroke="#263238" stroke-linecap="round" stroke-linejoin="round"/><path opacity=".2" d="m179.675 130.373-.343-9.532c-.184 4.593-5.251 2.868-6.398 2.654-1.229-.231-2.641 3.818-2.641 3.818s-4.708.809-8.393.522c-3.685-.287-3.741-3.651-3.741-3.651v6.463s10.837 1.301 21.516-.274Z" fill="#000"/><path d="M163.243 120.075a28.568 28.568 0 0 0 12.703-4.575l-12.703 4.575Z" fill="#fff"/><path d="M163.243 120.075a28.568 28.568 0 0 0 12.703-4.575" stroke="#263238" stroke-width=".75" stroke-linecap="round" stroke-linejoin="round"/><path d="M161.355 120.204s.364 0 1.006-.047l-1.006.047Z" fill="#fff"/><path d="M161.355 120.204s.364 0 1.006-.047" stroke="#263238" stroke-width=".75" stroke-linecap="round" stroke-linejoin="round"/><path d="m165.019 96.642-1.874-.68-1.79 1.729 1.31-5.35 1.579-1.241.805.51 3.595-.138 2.795.227 1.331-.41 1.421 1.42-3.163 6.048-1.327-2.29-2.927.364-1.755-.189Z" fill="#fff"/><path opacity=".5" d="m165.019 96.642-1.874-.68-1.79 1.729 1.31-5.35 1.579-1.241.805.51 3.595-.138 2.795.227 1.331-.41 1.421 1.42-3.163 6.048-1.327-2.29-2.927.364-1.755-.189Z" fill="#fff"/><path d="m165.019 96.642-1.874-.68-1.79 1.729 1.31-5.35 1.579-1.241.805.51 3.595-.138 2.795.227 1.331-.41 1.421 1.42-3.163 6.048-1.327-2.29-2.927.364-1.755-.189Z" stroke="#263238" stroke-linecap="round" stroke-linejoin="round"/><path d="m171.246 92.692-.428-6.54-4.134.732-.856 3.073-.856 2.662-.407.043 1.126 6.112 5.966-5.992-.411-.09Z" fill="#858585"/><path d="M161.082 86.606c0 1.66.257 5.376 2.538 5.808 2.363.45 5.072-2.239 6.043-3.313.244-.267.434-.578.561-.916l.518-1.374c.338.026.677-.045.976-.205h-10.636Z" fill="#263238" stroke="#263238" stroke-width=".5" stroke-linecap="round" stroke-linejoin="round"/><path d="m171.246 92.692-.428-6.54-4.134.732-.856 3.073-.856 2.662-.407.043 1.126 6.112 5.966-5.992-.411-.09Z" stroke="#263238" stroke-linecap="round" stroke-linejoin="round"/><path d="M163.838 78.208s-1.956-1.489-.997-2.662c.5-.608 1.151.193 1.151.193s-.347-1.866 1.044-2.14c1.284-.24 1.233 1.233 1.233 1.233s.663-1.263 1.823-.98c.925.222.569 1.532.569 1.532s1.233-1.533 2.509-.856c1.099.578.192 1.964.192 1.964s1.31-.462 2.042.274c.732.736 0 1.712 0 1.712s1.442 0 1.506 1.079c.064 1.078-1.117 1.284-1.117 1.284s1.669.539 1.682 1.849c.013 1.31-1.104.89-1.104.89s.693 1.233.116 1.887a.701.701 0 0 1-.875.208.701.701 0 0 1-.247-.208s.723 1.554-.192 2.008c-.655.32-1.04-.467-1.04-.467s-.553 1.344-1.22.522c-.668-.822-3.981-7.152-3.981-7.152l-3.094-2.17Z" fill="#263238" stroke="#263238" stroke-width=".75" stroke-linecap="round" stroke-linejoin="round"/><path d="m163.273 78.268-1.232 2.568c-.127.268-.193.56-.193.856v.805l-.681 1.712c-.035.09-.063.18-.085.274-.218.912-1.259 5.808 1.284 6.805 2.243.882 5.401-1.245 6.561-2.118a2.79 2.79 0 0 0 .719-.8l.771-1.25a1.615 1.615 0 0 0 1.793-.63c.689-.988 1.485-1.523.539-2.414-.946-.89-1.819.535-1.819.535l.129-2.512-1.096-1.926-.056-1.211s-3.586-.398-5.992-1.712l-.642 1.018Z" fill="#fff" stroke="#263238" stroke-width=".75" stroke-linecap="round" stroke-linejoin="round"/><path d="m163.273 78.268-1.232 2.568c-.127.268-.193.56-.193.856v.805l-.681 1.712c-.035.09-.063.18-.085.274-.218.912-1.259 5.808 1.284 6.805 2.243.882 5.401-1.245 6.561-2.118a2.79 2.79 0 0 0 .719-.8l.771-1.25a1.615 1.615 0 0 0 1.793-.63c.689-.988 1.485-1.523.539-2.414-.946-.89-1.819.535-1.819.535l.129-2.512-1.096-1.926-.056-1.211s-3.586-.398-5.992-1.712l-.642 1.018Z" fill="#858585" stroke="#263238" stroke-linecap="round" stroke-linejoin="round"/><path d="M165.456 87.038c-.693 1.34-1.635 1.117-2.226.783" stroke="#263238" stroke-width=".75" stroke-linecap="round" stroke-linejoin="round"/><path d="M165.469 83.995c-.095.304-.287.514-.428.47-.142-.042-.189-.329-.095-.633.095-.303.287-.517.428-.47.142.047.189.33.095.633ZM162.61 83.109c-.094.308-.287.518-.428.47-.141-.046-.188-.329-.094-.633.094-.303.291-.513.428-.466.137.047.188.325.094.629Z" fill="#263238"/><path d="M162.404 81.132a.857.857 0 0 1 1.07.655M164.865 82.3s.997-1.049 1.669.064M163.496 83.379a2.457 2.457 0 0 1-1.584 1.793l.779 1.237" stroke="#263238" stroke-width=".75" stroke-linecap="round" stroke-linejoin="round"/><path d="m168.465 132.449-.218 1.322a.859.859 0 0 0 .689.963l13.726 2.252a.857.857 0 0 0 .963-.689l.214-1.323-15.374-2.525Z" fill="#fff" stroke="#263238" stroke-width=".75" stroke-linecap="round" stroke-linejoin="round"/><path d="m184.453 126.64-13.882-2.278a.757.757 0 0 0-.87.625l-1.376 8.384a.758.758 0 0 0 .625.87l13.882 2.278a.757.757 0 0 0 .87-.625l1.376-8.383a.758.758 0 0 0-.625-.871Z" fill="#fff"/><path opacity=".5" d="m184.453 126.64-13.882-2.278a.757.757 0 0 0-.87.625l-1.376 8.384a.758.758 0 0 0 .625.87l13.882 2.278a.757.757 0 0 0 .87-.625l1.376-8.383a.758.758 0 0 0-.625-.871Z" fill="#fff"/><path d="m184.453 126.64-13.882-2.278a.757.757 0 0 0-.87.625l-1.376 8.384a.758.758 0 0 0 .625.87l13.882 2.278a.757.757 0 0 0 .87-.625l1.376-8.383a.758.758 0 0 0-.625-.871Z" stroke="#263238" stroke-linecap="round" stroke-linejoin="round"/><path d="m179.096 128.203-.757 2.568-2.568 1.836a30.44 30.44 0 0 1-1.284 3.3.4.4 0 0 0 .334.595c.355 0 .77-.167.997-.856 0 0 .098 1.353.933.526 0 0 .509 1.31 1.305.279 0 0 1.845.274 2.14-1.057.296-1.332.732-3.677.732-3.677l1.173-2.752-3.005-.762Z" fill="#858585" stroke="#263238" stroke-linecap="round" stroke-linejoin="round"/><path d="m175.801 135.12.291-1.982M176.259 135.248s.201.655.655.548c.453-.107 1.1.398 2.512-.197" stroke="#263238" stroke-width=".75" stroke-linecap="round" stroke-linejoin="round"/><path d="M180.389 96.03s6.42 17.839 6.3 20.446c-.12 2.606-4.687 13.944-4.687 13.944l-3.526-1.121 2.354-13.298-2.11-9.241s-.48-6.775 1.669-10.73Z" fill="#fff" stroke="#263238" stroke-linecap="round" stroke-linejoin="round"/><path d="M181.621 115.706a1.994 1.994 0 0 1 1.686-.356" stroke="#263238" stroke-width=".75" stroke-linecap="round" stroke-linejoin="round"/><path d="M177.449 129.581a1.713 1.713 0 0 1-.282-.565.976.976 0 1 0 .553 1.769.978.978 0 0 0 .397-.635 1.458 1.458 0 0 1-.668-.569ZM52.19 91.93l.779 3.84-8.654.363 1.502-10.64 5.83.676.543 5.761Z" fill="#fff"/><path d="m56.069 86.105-7.238 2.14c.09.83.262 1.648.514 2.444.428 1.233 3.034 3.424 4.708 3.398 1.673-.026 1.861-5.358 1.861-5.358l1.01-.561a.469.469 0 0 0 .146-.69l-1.002-1.373Z" fill="#263238" stroke="#263238" stroke-width=".75" stroke-linecap="round" stroke-linejoin="round"/><path d="m52.19 91.93.779 3.84-8.654.363 1.502-10.64 5.83.676.543 5.761Z" stroke="#263238" stroke-linecap="round" stroke-linejoin="round"/><path d="M52.588 78.405s2.102.428 1.888-1.853c-.214-2.281-4.13-.886-6.172-.63-2.042.258-8.633 2.719-6.3 6.605 0 0-1.374 2.191 3.574 5.868 0 0 2.35-1.104 3.637.51l1.006-1.961 2.568-4.511-.2-4.028Z" fill="#263238" stroke="#263238" stroke-linecap="round" stroke-linejoin="round"/><path d="M52.434 78.063s2.011 1.121 3.167-.282c0 0 .128 2.995-3.167.282Z" fill="#263238" stroke="#263238" stroke-linecap="round" stroke-linejoin="round"/><path d="M52.644 77.75s2.996 3.155 2.893 5.316v1.973l1.584 1.78a.43.43 0 0 1-.077.66l-.92.638s.27 5.05-1.315 5.23c-1.583.18-4.22-1.712-4.746-2.825a15.466 15.466 0 0 1-.856-3.163 2.392 2.392 0 0 1-1.75-2.029c-.185-1.66 1.489-1.613 1.921-.526l.351.886 1.087-.039s-.62-1.566-.252-2.028c.368-.463 1.815-1.588 1.151-2.663-.663-1.074-.44-2.901.929-3.21Z" fill="#fff" stroke="#263238" stroke-linecap="round" stroke-linejoin="round"/><path d="M54.355 89.105a1.211 1.211 0 0 0 1.285.595" stroke="#263238" stroke-width=".75" stroke-linecap="round" stroke-linejoin="round"/><path d="M53.568 83.079s.68-.946 1.327-.081" stroke="#263238" stroke-linecap="round" stroke-linejoin="round"/><path d="M54.643 85.052c0 .295-.116.54-.274.544-.159.004-.296-.231-.304-.527-.009-.295.115-.539.274-.543.158-.005.295.218.304.526Z" fill="#263238"/><path d="m40.917 179.863-1.25 10.755 3.72.574 2.05-10.632-4.52-.697Z" fill="#fff" stroke="#263238" stroke-linecap="round" stroke-linejoin="round"/><path d="M39.166 132.338s.15 6.231 2.35 10.614l.5 16.538-2.538 26.647 5.646.539 5.136-27.871 1.712-25.252-12.806-1.215Z" fill="#fff" stroke="#263238" stroke-linecap="round" stroke-linejoin="round"/><path opacity=".2" d="m51.176 145.695-.47-2.966-2.14-9.334-.394-.201-8.988-.856s0 1.022.2 2.533l4.44 2.517c.104 1.58.46 3.134 1.056 4.601a.81.81 0 0 1-.813 1.117c-.458-.034-.856 0-.856.3 0 .693 3.347 2.931 3.347 2.931s3.377 10.914 3.257 14.946l.458-2.482.903-13.106Z" fill="#000"/><path d="m52.268 180.569.406 10.82h3.762l.403-10.82h-4.571Z" fill="#fff" stroke="#263238" stroke-linecap="round" stroke-linejoin="round"/><path d="M62.428 192.912a23.34 23.34 0 0 1-3.613-1.438c-.556-.346-1.335-1.481-1.909-1.802a.977.977 0 0 0-.761 0c-.274.223-.287 1.383-.287 1.383s-.484-1.181-.835-1.383c-.488-.273-1.815-.355-2.247 0-.719.587-.98 2.624-1.121 3.54-.034.201 0 1.314 0 1.314H63.21v-.509a1.165 1.165 0 0 0-.783-1.105Z" fill="#263238" stroke="#263238" stroke-linecap="round" stroke-linejoin="round"/><path d="m60.138 132.851-.924 25-1.545 28.543h-5.881s-1.233-21.909-.925-28.248l-3.085-14.659s-3.24-4.323-2.47-9.566l14.83-1.07Z" fill="#fff" stroke="#263238" stroke-linecap="round" stroke-linejoin="round"/><path d="m51.266 184.271.192 3.433H57.9l.5-3.433h-7.134ZM39.008 183.976l-.133 3.432 6.411.612.826-3.368-7.104-.676ZM69.888 116.395l-8.898-5.659 9.378-9.377 8.902 5.658-9.382 9.378Z" fill="#fff" stroke="#263238" stroke-linecap="round" stroke-linejoin="round"/><path d="m70.397 114.46-7.156-4.55 7.542-7.541 7.156 4.55-7.542 7.541Z" fill="#fff" stroke="#263238" stroke-width=".75" stroke-linecap="round" stroke-linejoin="round"/><path d="m70.92 106.649 1.25-1.25-1.606-1.018-1.25 1.245 1.606 1.023ZM68.981 108.592l1.25-1.25-1.61-1.023-1.245 1.25 1.605 1.023ZM66.974 110.599l1.245-1.249-1.605-1.023-1.25 1.25 1.61 1.022Z" stroke="#263238" stroke-width=".75" stroke-linecap="round" stroke-linejoin="round"/><path d="m73.98 102.818-1.182 1.186a.525.525 0 0 0 .09.817l1.712 1.1a.981.981 0 0 0 1.224-.132l1.092-1.096-2.936-1.875ZM42.316 95.512l1.545-3.394s8.95-1.001 11.338 6.48l-12.883-3.086ZM37.236 98.406s-2.209 16.919-1.622 22.915c.462 4.742 3.586 8.757 3.586 8.757l4.631-1.815-2.354-6.942s.732-12.498 1.426-15.408l-5.667-7.507Z" fill="#858585" stroke="#263238" stroke-linecap="round" stroke-linejoin="round"/><path d="m37.86 129.247 1.306 1.563 5.35-2.085-.694-2.084-5.962 2.606Z" fill="#858585" stroke="#263238" stroke-linecap="round" stroke-linejoin="round"/><path d="M37.235 98.406s-.697 9.72 1.284 16.55c1.982 6.831 0 18.049 0 18.049s9.121 5.902 23.112 1.387c0 0-1.733-33.213-4.049-35.062-2.315-1.849-15.382-8.906-20.347-.924Z" fill="#858585" stroke="#263238" stroke-linecap="round" stroke-linejoin="round"/><path opacity=".2" d="M61.631 134.392s-.595-11.385-1.549-21.195c-2.024-4.913-5.333-11.457-5.508-2.268-.257 13.289 7.922 12.506 1.442 14.822a10.543 10.543 0 0 1-8.937-.694.529.529 0 0 0-.772.467.53.53 0 0 0 .113.334c1.627 2.067 4.096 3.355 5.992 4.096a.829.829 0 0 1-.171 1.596c-6.103.903-10.888-2.341-13.084-4.229-.257 3.27-.68 5.684-.68 5.684s9.163 5.902 23.154 1.387Z" fill="#000"/><path d="M57.592 99.335a5.442 5.442 0 0 1 3.124 4.22c.463 3.184 3.424 12.964 3.424 12.964l.985-.638a4.091 4.091 0 0 1 2.362 4.387s-2.405 4.708-5.033 3.822c-2.7-.916-4.212-3.124-5.564-6.737-.715-1.926-2.778-7.729-2.778-7.729" fill="#858585"/><path d="M57.592 99.335a5.442 5.442 0 0 1 3.124 4.22c.463 3.184 3.424 12.964 3.424 12.964l.985-.638a4.091 4.091 0 0 1 2.362 4.387s-2.405 4.708-5.033 3.822c-2.7-.916-4.212-3.124-5.564-6.737-.715-1.926-2.778-7.729-2.778-7.729" stroke="#263238" stroke-linecap="round" stroke-linejoin="round"/><path d="M65.321 119.352c.016.252.004.504-.034.753M63.554 121.321s.809-1.284.693-4.053c.389.294.686.694.856 1.151" stroke="#263238" stroke-width=".75" stroke-linecap="round" stroke-linejoin="round"/><path d="m65.77 115.611 3.086-2.2a3.895 3.895 0 0 1 2.74-2.893s1.425-2.354 2.234-2.08c.809.274-.963 1.233-1.117 2.465l.655.878s2.14-.377 2.662-1.07c0 0-.116 1.468-.963 1.712 0 0 0 1.117-.578 1.078l-4.246 1.199-2.47 4.609-2.002-3.698Z" fill="#fff" stroke="#263238" stroke-linecap="round" stroke-linejoin="round"/><path d="M53.136 126.311a9.449 9.449 0 0 0 1.446-.248M41.007 119.296s4.55 6.96 11.128 7.054" stroke="#263238" stroke-width=".75" stroke-linecap="round" stroke-linejoin="round"/><path d="M64.44 115.688s3.218 2.431 2.91 5.363l1.16-2.221s-.039-1.87-2.7-3.852l-1.37.71Z" fill="#858585" stroke="#263238" stroke-linecap="round" stroke-linejoin="round"/><path d="M51.656 194.526h11.556v-.509c0-.125-.02-.25-.06-.368H51.639c0 .389.017.877.017.877Z" fill="#fff" stroke="#263238" stroke-width=".75" stroke-linecap="round" stroke-linejoin="round"/><path d="M49.22 192.912a23.34 23.34 0 0 1-3.613-1.438c-.556-.346-1.335-1.481-1.904-1.802a.988.988 0 0 0-.766 0c-.274.223-.287 1.383-.287 1.383s-.48-1.181-.835-1.383c-.488-.273-1.814-.355-2.247 0-.719.587-.98 2.624-1.121 3.54-.034.201 0 1.314 0 1.314h11.556v-.509a1.165 1.165 0 0 0-.783-1.105Z" fill="#263238" stroke="#263238" stroke-linecap="round" stroke-linejoin="round"/><path d="M38.439 194.526h11.556v-.509c0-.125-.02-.25-.06-.368H38.422c0 .389.017.877.017.877Z" fill="#fff" stroke="#263238" stroke-width=".75" stroke-linecap="round" stroke-linejoin="round"/><path d="M55.486 158.313s-1.228 2.118-3.218 1.31M46.921 159.058s-2.204 1.883-4.027.565" stroke="#263238" stroke-width=".75" stroke-linecap="round" stroke-linejoin="round"/><path d="m69.922 104.231.308 1.532h2.73l-2.22-.518.106-1.044-.924.03Z" fill="#fff"/></svg>