<svg width="260" height="260" fill="none" xmlns="http://www.w3.org/2000/svg"><path d="M227.931 87.022h-46.446v105.362h46.446V87.022Z" stroke="#263238" stroke-width=".75" stroke-linecap="round" stroke-linejoin="round"/><path d="M223.855 91.099h-38.293v97.209h38.293v-97.21ZM189.914 134.02l-1.045 1.814M200.907 114.988l-9.786 16.952M209.887 99.43l-7.415 12.843M211.458 96.715l-.791 1.362M193.029 180.222l-.889 1.539M195.088 176.654l-.941 1.638M207.646 154.903l-10.54 18.262M216.98 138.736l-8.252 14.3M219.024 135.2l-.816 1.414M204.708 168.589l-7.602 13.172M214.432 151.746l-8.616 14.924M216.455 148.247l-1.019 1.763M188.869 147.654l-1.154 2.002M198.973 130.156l-9.178 15.896M211.583 108.316l-11.529 19.963M219.159 95.191l-6.687 11.586M78.515 87.022H32.068v105.362h46.447V87.022Z" stroke="#263238" stroke-width=".75" stroke-linecap="round" stroke-linejoin="round"/><path d="M74.438 91.099H36.145v97.209h38.293v-97.21ZM40.498 134.02l-1.045 1.814M51.485 114.988 41.7 131.94M60.47 99.43l-7.414 12.843M62.036 96.715l-.785 1.362M43.612 180.222l-.889 1.539M45.672 176.654l-.947 1.638M58.23 154.903l-10.546 18.262M67.564 138.736l-8.258 14.3M69.607 135.2l-.821 1.414M55.292 168.589l-7.608 13.172M65.015 151.746 56.4 166.67M67.033 148.247l-1.014 1.763M39.452 147.654l-1.16 2.002M49.55 130.156l-9.177 15.896M62.16 108.316l-11.522 19.963M69.737 95.191l-6.687 11.586" stroke="#263238" stroke-width=".75" stroke-linecap="round" stroke-linejoin="round"/><path d="M15.34 236.304h229.32" stroke="#263238" stroke-linecap="round" stroke-linejoin="round"/><path d="M94.999 195.109H91.02v13.525h3.978v-13.525Z" fill="#fff"/><path opacity=".2" d="M94.999 195.109H91.02v13.525h3.978v-13.525Z" fill="#000"/><path d="M98.982 196.596h-3.978v12.038h3.978v-12.038ZM103.948 196.596h-2.808v12.038h2.808v-12.038Z" fill="#fff"/><path opacity=".9" d="M103.948 196.596h-2.808v12.038h2.808v-12.038Z" fill="#fff"/><path d="M101.145 195.328h-2.548v13.312h2.548v-13.312Z" fill="#fff"/><path opacity=".1" d="M101.145 195.328h-2.548v13.312h2.548v-13.312Z" fill="#000"/><path d="M107.931 195.109h-3.978v13.525h3.978v-13.525ZM111.909 196.596h-3.978v12.038h3.978v-12.038Z" fill="#fff"/><path opacity=".2" d="M111.909 196.596h-3.978v12.038h3.978v-12.038Z" fill="#263238"/><path d="M116.88 196.596h-2.808v12.038h2.808v-12.038Z" fill="#fff"/><path opacity=".8" d="M116.88 196.596h-2.808v12.038h2.808v-12.038Z" fill="#fff"/><path d="M114.072 195.328h-2.548v13.312h2.548v-13.312Z" fill="#fff"/><path opacity=".1" d="M114.072 195.328h-2.548v13.312h2.548v-13.312Z" fill="#000"/><path d="M135.86 208.64h3.978v-13.526h-3.978v13.526Z" fill="#fff"/><path opacity=".2" d="M135.86 208.64h3.978v-13.526h-3.978v13.526Z" fill="#000"/><path d="M131.877 208.64h3.978v-12.038h-3.978v12.038ZM126.911 208.64h2.808v-12.038h-2.808v12.038Z" fill="#fff"/><path opacity=".9" d="M126.911 208.64h2.808v-12.038h-2.808v12.038Z" fill="#fff"/><path d="M129.714 208.634h2.548v-13.312h-2.548v13.312Z" fill="#fff"/><path opacity=".1" d="M129.714 208.634h2.548v-13.312h-2.548v13.312Z" fill="#000"/><path d="M122.928 208.64h3.978v-13.526h-3.978v13.526ZM118.95 208.64h3.978v-12.038h-3.978v12.038Z" fill="#fff"/><path opacity=".2" d="M118.95 208.64h3.978v-12.038h-3.978v12.038Z" fill="#263238"/><path d="M116.786 208.634h2.548v-13.312h-2.548v13.312Z" fill="#fff"/><path opacity=".1" d="M116.786 208.634h2.548v-13.312h-2.548v13.312Z" fill="#000"/><path d="M158.792 208.64h3.978v-13.526h-3.978v13.526Z" fill="#fff"/><path opacity=".2" d="M158.792 208.64h3.978v-13.526h-3.978v13.526Z" fill="#000"/><path d="M154.809 208.64h3.978v-12.038h-3.978v12.038ZM149.843 208.64h2.808v-12.038h-2.808v12.038Z" fill="#fff"/><path opacity=".9" d="M149.843 208.64h2.808v-12.038h-2.808v12.038Z" fill="#fff"/><path d="M152.646 208.634h2.548v-13.312h-2.548v13.312Z" fill="#fff"/><path opacity=".1" d="M152.646 208.634h2.548v-13.312h-2.548v13.312Z" fill="#000"/><path d="M145.86 208.64h3.978v-13.526h-3.978v13.526ZM165.36 208.162l2.613-.701-3.517-13.119-2.613.7 3.517 13.12ZM141.882 208.64h3.978v-12.038h-3.978v12.038Z" fill="#fff"/><path opacity=".2" d="M141.882 208.64h3.978v-12.038h-3.978v12.038Z" fill="#263238"/><path d="M139.719 208.634h2.548v-13.312h-2.548v13.312Z" fill="#fff"/><path opacity=".1" d="M139.719 208.634h2.548v-13.312h-2.548v13.312Z" fill="#000"/><path d="m166.692 226.209 2.672-.716-3.501-13.065-2.672.716 3.501 13.065Z" fill="#fff"/><path opacity=".2" d="m166.692 226.209 2.672-.716-3.501-13.065-2.672.716 3.501 13.065Z" fill="#000"/><path d="M159.827 226.075h3.978v-12.038h-3.978v12.038ZM154.85 226.075h2.808v-12.038h-2.808v12.038Z" fill="#fff"/><path opacity=".9" d="M154.85 226.075h2.808v-12.038h-2.808v12.038Z" fill="#fff"/><path d="M157.659 226.08h2.548v-13.312h-2.548v13.312Z" fill="#fff"/><path opacity=".1" d="M157.659 226.08h2.548v-13.312h-2.548v13.312Z" fill="#000"/><path d="M150.877 226.08h3.978v-13.525h-3.978v13.525ZM146.895 226.075h3.978v-12.038h-3.978v12.038Z" fill="#fff"/><path opacity=".2" d="M146.895 226.075h3.978v-12.038h-3.978v12.038Z" fill="#263238"/><path d="M141.928 226.075h2.808v-12.038h-2.808v12.038Z" fill="#fff"/><path opacity=".8" d="M141.928 226.075h2.808v-12.038h-2.808v12.038Z" fill="#fff"/><path d="M144.731 226.08h2.548v-13.312h-2.548v13.312Z" fill="#fff"/><path opacity=".1" d="M144.731 226.08h2.548v-13.312h-2.548v13.312Z" fill="#000"/><path d="M122.949 212.555h-3.978v13.525h3.978v-13.525Z" fill="#fff"/><path opacity=".2" d="M122.949 212.555h-3.978v13.525h3.978v-13.525Z" fill="#000"/><path d="M126.926 214.042h-3.978v12.038h3.978v-12.038ZM131.898 214.042h-2.808v12.038h2.808v-12.038Z" fill="#fff"/><path opacity=".9" d="M131.898 214.042h-2.808v12.038h2.808v-12.038Z" fill="#fff"/><path d="M129.09 212.768h-2.548v13.312h2.548v-13.312Z" fill="#fff"/><path opacity=".1" d="M129.09 212.768h-2.548v13.312h2.548v-13.312Z" fill="#000"/><path d="M135.875 212.555h-3.978v13.525h3.978v-13.525ZM139.854 214.042h-3.978v12.038h3.978v-12.038Z" fill="#fff"/><path opacity=".2" d="M139.854 214.042h-3.978v12.038h3.978v-12.038Z" fill="#263238"/><path d="M142.017 212.768h-2.548v13.312h2.548v-13.312Z" fill="#fff"/><path opacity=".1" d="M142.017 212.768h-2.548v13.312h2.548v-13.312Z" fill="#000"/><path d="M100.017 212.555h-3.978v13.525h3.978v-13.525Z" fill="#fff"/><path opacity=".2" d="M100.017 212.555h-3.978v13.525h3.978v-13.525Z" fill="#000"/><path d="M103.995 214.042h-3.978v12.038h3.978v-12.038ZM108.966 214.042h-2.808v12.038h2.808v-12.038Z" fill="#fff"/><path opacity=".9" d="M108.966 214.042h-2.808v12.038h2.808v-12.038Z" fill="#fff"/><path d="M106.158 212.768h-2.548v13.312h2.548v-13.312Z" fill="#fff"/><path opacity=".1" d="M106.158 212.768h-2.548v13.312h2.548v-13.312Z" fill="#000"/><path d="M112.944 212.555h-3.978v13.525h3.978v-13.525ZM96.03 213.133l-2.601-.697-3.5 13.064 2.6.698 3.502-13.065ZM116.922 214.042h-3.978v12.038h3.978v-12.038Z" fill="#fff"/><path opacity=".2" d="M116.922 214.042h-3.978v12.038h3.978v-12.038Z" fill="#263238"/><path d="M119.085 212.768h-2.548v13.312h2.548v-13.312Z" fill="#fff"/><path opacity=".1" d="M119.085 212.768h-2.548v13.312h2.548v-13.312Z" fill="#000"/><path d="M94.078 236.304H90.1l-.546-7.696h5.07l-.546 7.696ZM169.899 236.304h-3.978l-.546-7.696h5.07l-.546 7.696Z" fill="#263238"/><path d="M174.283 190.003H85.717a1.908 1.908 0 0 0-1.909 1.908v36.182a1.908 1.908 0 0 0 1.908 1.908h88.567a1.907 1.907 0 0 0 1.908-1.908v-36.182a1.907 1.907 0 0 0-1.908-1.908Zm-1.914 3.822v14.815h-84.76v-14.815h84.76ZM87.63 226.2v-14.83h84.76v14.83H87.63Z" fill="#fff" stroke="#263238" stroke-width=".75" stroke-linecap="round" stroke-linejoin="round"/><path d="M161.189 114.005H99.907a3.567 3.567 0 0 0-3.567 3.567v13.156a3.567 3.567 0 0 0 3.567 3.567h61.282a3.567 3.567 0 0 0 3.567-3.567v-13.156a3.567 3.567 0 0 0-3.567-3.567Z" fill="#263238" stroke="#263238" stroke-linecap="round" stroke-linejoin="round"/><path d="M160.097 112.913H98.815a3.567 3.567 0 0 0-3.567 3.567v13.156a3.567 3.567 0 0 0 3.567 3.567h61.282a3.567 3.567 0 0 0 3.567-3.567V116.48a3.567 3.567 0 0 0-3.567-3.567Z" fill="#fff" stroke="#263238" stroke-linecap="round" stroke-linejoin="round"/><path d="M160.097 112.913H98.815a3.567 3.567 0 0 0-3.567 3.567v13.156a3.567 3.567 0 0 0 3.567 3.567h61.282a3.567 3.567 0 0 0 3.567-3.567V116.48a3.567 3.567 0 0 0-3.567-3.567Z" stroke="#263238" stroke-linecap="round" stroke-linejoin="round"/><path d="M110.396 129.049h-9.012V117.65h6.006l3.006 3.006v8.393Z" fill="#fff"/><path opacity=".5" d="M110.396 129.049h-9.012V117.65h6.006l3.006 3.006v8.393Z" fill="#fff"/><path d="M110.396 129.048h-9.012V117.65h6.006l3.006 3.006v8.392Z" stroke="#263238" stroke-linecap="round" stroke-linejoin="round"/><path d="M107.39 120.656h3.006l-3.006-3.006v3.006Z" fill="#fff" stroke="#263238" stroke-linecap="round" stroke-linejoin="round"/><path d="M103.386 123.698a.573.573 0 0 1 0-1.139h5.008a.57.57 0 0 1 .517.569.573.573 0 0 1-.517.57h-5.008ZM103.386 126.095a.573.573 0 0 1 0-1.139h3.916a.574.574 0 0 1 .369.954.579.579 0 0 1-.369.185h-3.916Z" fill="#858585" stroke="#263238" stroke-width=".75" stroke-linecap="round" stroke-linejoin="round"/><path d="M133.177 124.353h-16.77a1.18 1.18 0 0 0 0 2.355h16.77v-2.355Z" fill="#fff"/><path d="M116.407 126.708a1.176 1.176 0 0 1-1.102-1.177 1.18 1.18 0 0 1 1.102-1.178h39.936a1.18 1.18 0 1 1 0 2.355h-39.936Z" stroke="#263238" stroke-linecap="round" stroke-linejoin="round"/><path d="M133.557 121.16h-1.264v-.598l1.201-2.844h.723v2.844h.312v.598h-.312v.764h-.66v-.764Zm0-.598v-1.638l-.65 1.643.65-.005ZM134.836 120.931v-.327h.624v.374c0 .302.13.411.343.411.213 0 .343-.109.343-.411v-.941c0-.302-.135-.416-.343-.416-.208 0-.343.114-.343.416v.036h-.624l.12-2.35h1.742v.603h-1.155l-.052 1.004a.621.621 0 0 1 .572-.307c.484 0 .733.343.733.962v.946c0 .676-.338 1.04-.988 1.04-.65 0-.972-.364-.972-1.04ZM137.217 119.387v-1.04a.645.645 0 0 1 .379-.643.642.642 0 0 1 .895.643v1.04a.647.647 0 0 1-.164.489.648.648 0 0 1-.473.208.642.642 0 0 1-.606-.435.647.647 0 0 1-.031-.262Zm.853.031v-1.113c0-.182-.083-.26-.213-.26s-.218.078-.218.26v1.113c0 .187.078.265.218.265s.213-.083.213-.265Zm1.311-1.695h.421l-1.628 4.207h-.421l1.628-4.207Zm-.318 3.593v-1.04a.647.647 0 0 1 .165-.489.64.64 0 0 1 1.109.489v1.04a.645.645 0 0 1-.164.489.634.634 0 0 1-.473.208.642.642 0 0 1-.606-.435.645.645 0 0 1-.031-.262Zm.853.031v-1.113c0-.187-.083-.265-.218-.265s-.213.078-.213.265v1.113c0 .187.078.265.213.265s.218-.078.218-.265Z" fill="#263238"/><path d="M161.189 137.55H99.907a3.568 3.568 0 0 0-3.567 3.568v13.156a3.567 3.567 0 0 0 3.567 3.567h61.282a3.567 3.567 0 0 0 3.567-3.567v-13.156a3.568 3.568 0 0 0-3.567-3.568Z" fill="#263238" stroke="#263238" stroke-linecap="round" stroke-linejoin="round"/><path d="M160.097 136.458H98.815a3.568 3.568 0 0 0-3.567 3.568v13.156a3.567 3.567 0 0 0 3.567 3.567h61.282a3.567 3.567 0 0 0 3.567-3.567v-13.156a3.568 3.568 0 0 0-3.567-3.568Z" fill="#fff" stroke="#263238" stroke-linecap="round" stroke-linejoin="round"/><path d="M146.406 147.753h-29.999a1.18 1.18 0 0 0 0 2.355h29.999v-2.355Z" fill="#fff"/><path d="M116.407 150.108a1.176 1.176 0 0 1-1.102-1.177 1.18 1.18 0 0 1 1.102-1.178h39.936a1.18 1.18 0 1 1 0 2.355h-39.936Z" stroke="#263238" stroke-linecap="round" stroke-linejoin="round"/><path d="M132.371 144.352v-.374a.865.865 0 0 1 .431-.858.832.832 0 0 1-.405-.827v-.172a1.009 1.009 0 1 1 2.017 0v.172a.844.844 0 0 1-.41.827.87.87 0 0 1 .436.858v.374a1.038 1.038 0 0 1-1.775.735 1.04 1.04 0 0 1-.305-.735h.011Zm1.409-.036v-.406c0-.317-.13-.473-.374-.473-.245 0-.375.156-.375.473v.406c0 .317.13.473.375.473.244 0 .374-.156.374-.473Zm0-1.898v-.333c0-.276-.12-.421-.348-.421-.229 0-.349.145-.349.421v.333c0 .275.12.421.349.421.228 0 .322-.146.322-.421h.026ZM134.836 144.331v-.327h.624v.374c0 .302.13.411.343.411.213 0 .343-.109.343-.411v-.941c0-.302-.135-.416-.343-.416-.208 0-.343.114-.343.416v.036h-.624l.119-2.35h1.742v.603h-1.154l-.052 1.004a.621.621 0 0 1 .572-.307c.484 0 .733.343.733.962v.946a.987.987 0 0 1-1.917.4 1.005 1.005 0 0 1-.054-.4h.011ZM137.217 142.787v-1.04a.645.645 0 0 1 .379-.643.642.642 0 0 1 .895.643v1.04a.649.649 0 0 1-.03.262.653.653 0 0 1-.349.381.635.635 0 0 1-.516 0 .654.654 0 0 1-.348-.381.65.65 0 0 1-.031-.262Zm.853.031v-1.113c0-.182-.083-.265-.213-.265s-.218.083-.218.265v1.113c0 .187.078.265.218.265s.213-.083.213-.265Zm1.311-1.695h.421l-1.628 4.207h-.421l1.628-4.207Zm-.318 3.593v-1.04a.647.647 0 0 1 .165-.489.64.64 0 0 1 1.109.489v1.04a.647.647 0 0 1-.164.489.634.634 0 0 1-.473.208.642.642 0 0 1-.606-.435.647.647 0 0 1-.031-.262Zm.853.031v-1.113c0-.187-.083-.265-.218-.265s-.213.078-.213.265v1.113c0 .187.078.265.213.265s.218-.078.218-.265Z" fill="#263238"/><path d="M110.396 152.448h-9.012V141.05h6.006l3.006 3.006v8.392Z" fill="#fff"/><path opacity=".5" d="M110.396 152.448h-9.012V141.05h6.006l3.006 3.006v8.392Z" fill="#fff" stroke="#263238" stroke-linecap="round" stroke-linejoin="round"/><path d="M110.396 152.448h-9.012V141.05h6.006l3.006 3.006v8.392Z" stroke="#263238" stroke-linecap="round" stroke-linejoin="round"/><path d="M103.386 147.098a.573.573 0 0 1 0-1.139h5.008a.57.57 0 0 1 .517.569.573.573 0 0 1-.517.57h-5.008ZM103.386 149.495a.573.573 0 0 1 0-1.139h3.916a.574.574 0 0 1 .369.954.579.579 0 0 1-.369.185h-3.916Z" fill="#858585" stroke="#263238" stroke-width=".75" stroke-linecap="round" stroke-linejoin="round"/><path d="M107.39 144.056h3.006l-3.006-3.006v3.006Z" fill="#fff" stroke="#263238" stroke-linecap="round" stroke-linejoin="round"/><path d="M169.567 82.566H91.525a3.567 3.567 0 0 0-3.567 3.567v18.132a3.567 3.567 0 0 0 3.567 3.567h78.042a3.567 3.567 0 0 0 3.567-3.567V86.133a3.567 3.567 0 0 0-3.567-3.567Z" fill="#263238" stroke="#263238" stroke-linecap="round" stroke-linejoin="round"/><path d="M168.475 81.474H90.433a3.567 3.567 0 0 0-3.567 3.567v18.132a3.567 3.567 0 0 0 3.567 3.567h78.042a3.567 3.567 0 0 0 3.567-3.567V85.041a3.567 3.567 0 0 0-3.567-3.567Z" fill="#fff" stroke="#263238" stroke-linecap="round" stroke-linejoin="round"/><path d="M116.594 104.66H99.907V83.554h11.123l5.564 5.558v15.548Z" fill="#fff"/><path opacity=".7" d="M116.594 104.66H99.907V83.554h11.123l5.564 5.558v15.548Z" fill="#fff"/><path d="M116.594 104.66H99.907V83.554h11.123l5.564 5.558v15.548Z" stroke="#263238" stroke-linecap="round" stroke-linejoin="round"/><path d="M111.03 89.112h5.564l-5.564-5.558v5.558Z" fill="#fff" stroke="#263238" stroke-linecap="round" stroke-linejoin="round"/><path d="M104.832 91.712h-3.276v3.276h3.276v-3.276ZM108.201 91.713h-3.276v3.276h3.276v-3.276ZM111.576 91.712H108.3v3.276h3.276v-3.276ZM114.946 91.713h-3.276v3.276h3.276v-3.276ZM104.832 94.989h-3.276v3.275h3.276V94.99ZM108.201 94.989h-3.276v3.275h3.276V94.99ZM111.576 94.989H108.3v3.275h3.276V94.99ZM114.946 94.989h-3.276v3.275h3.276V94.99Z" stroke="#fff" stroke-width=".75" stroke-linecap="round" stroke-linejoin="round"/><path d="M104.832 98.264h-3.276v3.276h3.276v-3.276ZM108.201 98.264h-3.276v3.276h3.276v-3.276ZM111.576 98.264H108.3v3.276h3.276v-3.276ZM114.946 98.264h-3.276v3.276h3.276v-3.276Z" stroke="#fff" stroke-width=".75" stroke-linecap="round" stroke-linejoin="round"/><path d="m101.618 101.223 3.307-3.037 1.638.078 1.789-3.229 1.586 1.591 1.779-1.866 1.591-3.048" stroke="#fff" stroke-width="2" stroke-linecap="round" stroke-linejoin="round"/><path d="m111.431 92.664 1.877-.951.379 2.048" stroke="#fff" stroke-width="2" stroke-linecap="round" stroke-linejoin="round"/><path d="M123.157 93.434h-.957v-.635c.759 0 1.04-.166 1.237-.723h.603v5.72h-.899l.016-4.362ZM125.106 96.45v-3.016a1.37 1.37 0 0 1 1.368-1.368 1.366 1.366 0 0 1 1.368 1.368v3.016a1.366 1.366 0 0 1-1.368 1.367 1.366 1.366 0 0 1-1.368-1.367Zm1.836.057v-3.12c0-.406-.182-.562-.468-.562-.286 0-.468.156-.468.562v3.12c0 .41.182.567.468.567.286 0 .468-.156.468-.567ZM128.383 96.45v-3.016a1.369 1.369 0 0 1 1.367-1.368 1.366 1.366 0 0 1 1.368 1.368v3.016a1.366 1.366 0 0 1-1.368 1.367 1.37 1.37 0 0 1-1.367-1.367Zm1.835.057v-3.12c0-.406-.182-.562-.468-.562-.286 0-.468.156-.468.562v3.12c0 .41.182.567.468.567.286 0 .468-.156.468-.567ZM131.674 94.344v-1.43a.867.867 0 1 1 1.737 0v1.43a.869.869 0 0 1-1.737 0Zm1.165.041v-1.513c0-.255-.115-.364-.297-.364s-.296.11-.296.364v1.513c0 .255.109.359.296.359s.297-.104.297-.359Zm1.783-2.309h.577l-2.22 5.72h-.572l2.215-5.72Zm-.437 4.899V95.54a.863.863 0 0 1 .255-.614.862.862 0 0 1 .946-.189.877.877 0 0 1 .47.47.862.862 0 0 1 .066.333v1.435a.861.861 0 0 1-.254.614.877.877 0 0 1-.614.254.873.873 0 0 1-.614-.254.862.862 0 0 1-.255-.614Zm1.165.041v-1.518c0-.255-.114-.359-.296-.359s-.291.104-.291.359v1.518c0 .25.104.36.291.36s.296-.11.296-.36ZM137.378 96.018v-2.262a.974.974 0 0 1 1.66-.688.97.97 0 0 1 .285.688v.447h-.624v-.489c0-.275-.135-.39-.333-.39-.197 0-.327.115-.327.39v2.35c0 .276.13.386.327.386.198 0 .333-.11.333-.385v-.645h.624v.598a.97.97 0 0 1-.972.972.974.974 0 0 1-.973-.972ZM139.682 95.992v-2.21a1.005 1.005 0 0 1 2.007 0v2.21a1 1 0 0 1-1.003 1.004 1.004 1.004 0 0 1-1.004-1.004Zm1.347.042V93.74c0-.301-.13-.416-.343-.416-.213 0-.343.115-.343.416v2.294c0 .301.135.416.343.416.208 0 .343-.115.343-.416ZM142.131 92.784h.947l.421 3.01.421-3.01h.941v4.206h-.624v-3.182l-.483 3.182h-.551l-.479-3.182v3.182h-.577l-.016-4.206ZM145.366 92.784h.972c.661 0 .983.369.983 1.04v.416c0 .67-.322 1.04-.983 1.04h-.312v1.71h-.66v-4.206Zm.972 1.892c.208 0 .323-.093.323-.395v-.52c0-.301-.115-.395-.323-.395h-.312v1.29l.312.02ZM147.68 92.784h.66v3.603h1.087v.603h-1.747v-4.206ZM149.76 92.784h1.799v.603h-1.139v1.107h.9v.604h-.905v1.29h1.139v.602h-1.794v-4.206ZM152.443 93.387h-.686v-.603h2.038v.603h-.691v3.603h-.661v-3.603ZM154.117 92.784h1.799v.603h-1.138v1.107h.904v.604h-.904v1.29h1.138v.602h-1.799v-4.206ZM156.296 92.784h1.009c.66 0 .982.369.982 1.04v2.126c0 .671-.322 1.04-.982 1.04h-1.009v-4.206Zm.993 3.603c.213 0 .338-.109.338-.405v-2.19c0-.296-.125-.405-.338-.405h-.333v3h.333Z" fill="#263238"/><path d="M161.189 161.101H99.907a3.567 3.567 0 0 0-3.567 3.567v13.156a3.567 3.567 0 0 0 3.567 3.568h61.282a3.567 3.567 0 0 0 3.567-3.568v-13.156a3.567 3.567 0 0 0-3.567-3.567Z" fill="#263238" stroke="#263238" stroke-linecap="round" stroke-linejoin="round"/><path d="M160.097 160.009H98.815a3.567 3.567 0 0 0-3.567 3.567v13.156a3.567 3.567 0 0 0 3.567 3.568h61.282a3.567 3.567 0 0 0 3.567-3.568v-13.156a3.567 3.567 0 0 0-3.567-3.567Z" fill="#fff" stroke="#263238" stroke-linecap="round" stroke-linejoin="round"/><path d="M144.289 171.158h-27.882a1.175 1.175 0 1 0 0 2.35h27.882v-2.35Z" fill="#fff"/><path d="M116.407 173.508a1.172 1.172 0 0 1-.831-2.006c.22-.22.519-.344.831-.344h39.936a1.171 1.171 0 0 1 1.085.725 1.181 1.181 0 0 1 0 .9 1.167 1.167 0 0 1-1.085.725h-39.936Z" stroke="#263238" stroke-linecap="round" stroke-linejoin="round"/><path d="M110.396 175.854h-9.012v-11.399h6.006l3.006 3.001v8.398Z" fill="#fff"/><path opacity=".5" d="M110.396 175.854h-9.012v-11.399h6.006l3.006 3.001v8.398Z" fill="#fff"/><path d="M110.396 175.854h-9.012v-11.399h6.006l3.006 3.001v8.398Z" stroke="#263238" stroke-linecap="round" stroke-linejoin="round"/><path d="M103.386 170.503a.573.573 0 0 1 0-1.139h5.008a.574.574 0 0 1 .369.954.579.579 0 0 1-.369.185h-5.008ZM103.386 172.895a.57.57 0 0 1-.567-.567.57.57 0 0 1 .567-.567h3.916a.57.57 0 0 1 .567.567.569.569 0 0 1-.567.567h-3.916Z" fill="#858585" stroke="#263238" stroke-width=".75" stroke-linecap="round" stroke-linejoin="round"/><path d="M107.39 167.456h3.006l-3.006-3.001v3.001Z" fill="#fff" stroke="#263238" stroke-linecap="round" stroke-linejoin="round"/><path d="M133.744 165.126h-1.337v-.598h1.981v.577l-1.04 3.64h-.676l1.072-3.619ZM134.805 167.736v-2.21a1.003 1.003 0 1 1 2.007 0v2.21a1.004 1.004 0 1 1-2.007 0Zm1.346.042v-2.293c0-.302-.135-.416-.343-.416-.208 0-.343.114-.343.416v2.293c0 .302.135.411.343.411.208 0 .343-.109.343-.411ZM137.217 166.192v-1.04a.647.647 0 0 1 .165-.489.64.64 0 0 1 1.109.489v1.04a.645.645 0 0 1-.164.489.634.634 0 0 1-.473.208.642.642 0 0 1-.606-.435.645.645 0 0 1-.031-.262Zm.853.031v-1.113c0-.187-.083-.265-.213-.265s-.218.078-.218.265v1.113c0 .182.078.26.218.26s.213-.083.213-.26Zm1.29-1.695h.421l-1.628 4.202h-.421l1.628-4.202Zm-.317 3.593v-1.04a.632.632 0 0 1 .164-.489.648.648 0 0 1 .473-.208.66.66 0 0 1 .258.054.654.654 0 0 1 .348.381.65.65 0 0 1 .031.262v1.04a.645.645 0 0 1-.379.643.642.642 0 0 1-.895-.643Zm.852.026v-1.107c0-.188-.083-.266-.218-.266s-.213.078-.213.266v1.107c0 .187.078.265.213.265s.239-.078.239-.265h-.021Z" fill="#263238"/><path d="m61.589 57.304 13.723-10.608 13.722 10.608H61.59Z" fill="#263238" stroke="#263238" stroke-linecap="round" stroke-linejoin="round"/><path d="M78.9 45.864h-7.176V52H78.9v-6.136Z" fill="#263238" stroke="#263238" stroke-linecap="round" stroke-linejoin="round"/><path d="M75.311 30.618V52" stroke="#263238" stroke-width=".75" stroke-linecap="round" stroke-linejoin="round"/><path d="m170.96 57.304 13.728-10.608 13.723 10.608H170.96Z" fill="#263238" stroke="#263238" stroke-linecap="round" stroke-linejoin="round"/><path d="M188.277 45.864h-7.176V52h7.176v-6.136Z" fill="#263238" stroke="#263238" stroke-linecap="round" stroke-linejoin="round"/><path d="M184.688 29.578V52" stroke="#263238" stroke-width=".75" stroke-linecap="round" stroke-linejoin="round"/><path d="m190.045 222.867-.292 8.58 4.441.213 1.617-8.793h-5.766Z" fill="#fff" stroke="#263238" stroke-linecap="round" stroke-linejoin="round"/><path d="M181.355 234.078c1.497-.52 4.087-1.404 5.059-2.012.78-.489 1.867-2.08 2.673-2.528a1.354 1.354 0 0 1 1.071 0c.131.146.216.327.245.52a.444.444 0 0 0 .365.325.446.446 0 0 0 .441-.21c.124-.244.302-.458.52-.624.686-.385 2.543-.494 3.151 0 1.009.827 1.373 3.676 1.56 4.961.047.28 0 1.84 0 1.84h-16.203v-.712a1.642 1.642 0 0 1 .305-.962c.201-.28.486-.489.813-.598Z" fill="#fff" stroke="#263238" stroke-linecap="round" stroke-linejoin="round"/><path d="M196.45 236.34h-16.213v-.712c0-.177.029-.353.088-.52h16.146c0 .546-.021 1.232-.021 1.232Z" fill="#858585" stroke="#263238" stroke-linecap="round" stroke-linejoin="round"/><path d="m192.847 156.348-3.406 69.784 6.24 1.04s3.931-20.196 4.41-26.811c.114-1.56 0-6.266 0-6.266l4.414-21.731s2.907-2.683 3.245-15.459l-14.903-.557Z" fill="#263238" stroke="#263238" stroke-linecap="round" stroke-linejoin="round"/><path opacity=".7" d="M202.083 183.357c.239-1.009.52-2.002.858-2.99.052-.14.114-.27.176-.4.155-1.477.393-2.944.713-4.394.11-.542.402-1.03.827-1.383.121-.275.302-.518.53-.713.227-.196.496-.338.785-.416a27.023 27.023 0 0 0-.873-3.967c-.396-1.363-1.04-2.668-1.233-4.077-.052-.364-.26-.744-.192-.785a13.657 13.657 0 0 1-1.311-.593l-.078-.063a197.157 197.157 0 0 0-.202 19.781Z" fill="#000"/><path d="M192.551 196.264a6.245 6.245 0 0 0 2.933-1.597" stroke="#7F7F7F" stroke-width=".75" stroke-linecap="round" stroke-linejoin="round"/><path d="m188.62 227.458 7.545.619.561-2.444-8.106-.634v2.459ZM210.408 221.811l1.607 10.031 4.108-.322-.136-10.27-5.579.561Z" fill="#fff" stroke="#263238" stroke-linecap="round" stroke-linejoin="round"/><path d="M203.528 234.078c1.503-.52 4.092-1.404 5.059-2.012.78-.489 1.872-2.08 2.673-2.528a1.364 1.364 0 0 1 1.077 0c.094.097.16.218.192.349a.52.52 0 0 0 .957.109 1.53 1.53 0 0 1 .416-.458c.686-.384 2.543-.494 3.151 0 1.009.827 1.373 3.677 1.56 4.961.042.281 0 1.841 0 1.841h-16.198v-.712a1.634 1.634 0 0 1 1.113-1.55Z" fill="#fff" stroke="#263238" stroke-linecap="round" stroke-linejoin="round"/><path d="M218.629 236.34h-16.214v-.712a1.556 1.556 0 0 1 .083-.52h16.146c0 .546-.015 1.232-.015 1.232Z" fill="#858585" stroke="#263238" stroke-linecap="round" stroke-linejoin="round"/><path d="M201.531 158.454s1.56 9.033 2.995 16.609c.978 5.138 1.04 20.317 1.04 20.317l4.982 31.34 6.141-.827s.073-19.292-.619-25.48c-.156-1.378-.41-5.47-.41-5.47s.234-16.37 1.497-21.84c.905-3.9 2.704-7.998.52-15.99l-16.146 1.341Z" fill="#263238" stroke="#263238" stroke-linecap="round" stroke-linejoin="round"/><path d="M206.913 196.264a4.232 4.232 0 0 0 2.6 1.669" stroke="#7F7F7F" stroke-width=".75" stroke-linecap="round" stroke-linejoin="round"/><path d="m209.518 225.311.354 2.298 7.612-.816-.052-2.475-7.914.993Z" fill="#fff" stroke="#263238" stroke-linecap="round" stroke-linejoin="round"/><path d="m172.552 116.672-1.68-2.823s-.406-4.613-1.342-5.512c-.936-.9-3.016-3.547-3.312-3.027-.468.832 1.264 2.314 1.264 2.314l.317 1.716s-2.803-2.017-3.593-2.017c0 0-2.236-2.647-3.027-2.652-.79-.005.323 1.83.323 1.83s-.754-.577-.9-.218c-.146.359.972 1.586.972 1.586s-.431.468.219 1.471a1.833 1.833 0 0 0 .52 1.836c.863.686 5.501 3.312 5.501 3.312l1.56 3.672 3.178-1.488Z" fill="#858585" stroke="#263238" stroke-linecap="round" stroke-linejoin="round"/><path d="M162.188 107.942s.614.249.359 1.149c.245.348.382.76.395 1.185.062.791 4.066.401 5.148 2.08M162.188 106.969l1.633 1.727" stroke="#263238" stroke-width=".75" stroke-linecap="round" stroke-linejoin="round"/><path d="m189.888 115.96-10.717 8.351-7.342-10.005-3.739 1.872s5.876 16.235 10.322 16.235c4.727 0 13.712-7.592 13.712-7.592s.567-1.451-2.236-8.861Z" fill="#fff" stroke="#263238" stroke-linecap="round" stroke-linejoin="round"/><path d="M179.577 125.107a7.49 7.49 0 0 1 .556 1.669" stroke="#263238" stroke-width=".75" stroke-linecap="round" stroke-linejoin="round"/><path d="m189.888 115.96 2.283 30.217v12.553s13.151 1.56 26.125-.333l-.447-12.922 1.315-28.803s-6.021-4.352-15.267-4.352c-9.246 0-14.009 3.64-14.009 3.64Z" fill="#fff" stroke="#263238" stroke-linecap="round" stroke-linejoin="round"/><path opacity=".2" d="m218.296 158.397-.416-11.58c-.223 5.579-6.38 3.484-7.774 3.224-1.492-.281-3.208 4.638-3.208 4.638s-5.72.983-10.197.635c-4.478-.349-4.545-4.436-4.545-4.436v7.852s13.166 1.581 26.14-.333Z" fill="#000"/><path d="M198.333 145.886a34.704 34.704 0 0 0 15.434-5.559l-15.434 5.559Z" fill="#fff"/><path d="M198.333 145.886a34.704 34.704 0 0 0 15.434-5.559" stroke="#263238" stroke-width=".75" stroke-linecap="round" stroke-linejoin="round"/><path d="M196.04 146.042s.442 0 1.222-.057l-1.222.057Z" fill="#fff"/><path d="M196.04 146.042s.442 0 1.222-.057" stroke="#263238" stroke-width=".75" stroke-linecap="round" stroke-linejoin="round"/><path d="m200.491 117.416-2.277-.827-2.174 2.101 1.591-6.5 1.919-1.508.978.619 4.368-.167 3.395.276 1.617-.499 1.727 1.726-3.843 7.348-1.612-2.782-3.557.442-2.132-.229Z" fill="#fff"/><path opacity=".5" d="m200.491 117.416-2.277-.827-2.174 2.101 1.591-6.5 1.919-1.508.978.619 4.368-.167 3.395.276 1.617-.499 1.727 1.726-3.843 7.348-1.612-2.782-3.557.442-2.132-.229Z" fill="#fff"/><path d="m200.491 117.416-2.277-.827-2.174 2.101 1.591-6.5 1.919-1.508.978.619 4.368-.167 3.395.276 1.617-.499 1.727 1.726-3.843 7.348-1.612-2.782-3.557.442-2.132-.229Z" stroke="#263238" stroke-linecap="round" stroke-linejoin="round"/><path d="m208.057 112.616-.52-7.945-5.023.889-1.04 3.734-1.04 3.234-.494.052 1.368 7.426 7.248-7.28-.499-.11Z" fill="#858585"/><path d="M195.707 105.222c0 2.018.312 6.531 3.084 7.056 2.87.546 6.162-2.719 7.342-4.024a3.45 3.45 0 0 0 .681-1.113l.629-1.669c.411.031.823-.056 1.186-.25h-12.922Z" fill="#263238" stroke="#263238" stroke-width=".5" stroke-linecap="round" stroke-linejoin="round"/><path d="m208.057 112.616-.52-7.945-5.023.889-1.04 3.734-1.04 3.234-.494.052 1.368 7.426 7.248-7.28-.499-.11Z" stroke="#263238" stroke-linecap="round" stroke-linejoin="round"/><path d="M199.056 95.02s-2.377-1.81-1.212-3.235c.609-.738 1.399.234 1.399.234s-.421-2.267 1.269-2.6c1.56-.291 1.497 1.498 1.497 1.498s.806-1.534 2.216-1.191c1.123.27.691 1.862.691 1.862s1.498-1.862 3.047-1.04c1.337.702.234 2.386.234 2.386s1.592-.561 2.481.333c.889.895 0 2.08 0 2.08s1.752 0 1.83 1.31c.078 1.311-1.357 1.56-1.357 1.56s2.028.656 2.044 2.247c.015 1.591-1.342 1.082-1.342 1.082s.842 1.497.14 2.293a.837.837 0 0 1-.681.343.842.842 0 0 1-.681-.343s.879 1.887-.234 2.439c-.796.39-1.264-.567-1.264-.567s-.67 1.633-1.482.634c-.811-.998-4.836-8.689-4.836-8.689l-3.759-2.636Z" fill="#263238" stroke="#263238" stroke-width=".75" stroke-linecap="round" stroke-linejoin="round"/><path d="m198.37 95.092-1.498 3.12a2.46 2.46 0 0 0-.234 1.04v.978l-.827 2.08a2.57 2.57 0 0 0-.104.333c-.265 1.107-1.528 7.056 1.56 8.268 2.725 1.071 6.563-1.513 7.972-2.574.351-.265.648-.595.874-.973l.936-1.518a1.962 1.962 0 0 0 2.178-.764c.838-1.202 1.805-1.852.656-2.933-1.15-1.082-2.21.65-2.21.65l.156-3.053-1.332-2.34-.067-1.471s-4.358-.484-7.28-2.08l-.78 1.237Z" fill="#fff" stroke="#263238" stroke-width=".75" stroke-linecap="round" stroke-linejoin="round"/><path d="m198.37 95.092-1.498 3.12a2.46 2.46 0 0 0-.234 1.04v.978l-.827 2.08a2.57 2.57 0 0 0-.104.333c-.265 1.107-1.528 7.056 1.56 8.268 2.725 1.071 6.563-1.513 7.972-2.574.351-.265.648-.595.874-.973l.936-1.518a1.962 1.962 0 0 0 2.178-.764c.838-1.202 1.805-1.852.656-2.933-1.15-1.082-2.21.65-2.21.65l.156-3.053-1.332-2.34-.067-1.471s-4.358-.484-7.28-2.08l-.78 1.237Z" fill="#858585" stroke="#263238" stroke-linecap="round" stroke-linejoin="round"/><path d="M201.021 105.747c-.842 1.628-1.986 1.357-2.704.952" stroke="#263238" stroke-width=".75" stroke-linecap="round" stroke-linejoin="round"/><path d="M201.037 102.05c-.114.369-.348.624-.52.572-.171-.052-.229-.4-.114-.77.114-.369.348-.629.52-.572.171.058.229.401.114.77ZM197.564 100.974c-.115.374-.349.629-.52.572-.172-.058-.229-.401-.115-.77.115-.369.354-.624.52-.567.167.057.229.395.115.765Z" fill="#263238"/><path d="M197.314 98.571a1.043 1.043 0 0 1 1.133.406c.082.117.139.25.167.39M200.304 99.99s1.212-1.273 2.028.079M198.64 101.301a2.987 2.987 0 0 1-1.924 2.179l.946 1.503" stroke="#263238" stroke-width=".75" stroke-linecap="round" stroke-linejoin="round"/><path d="m204.677 160.919-.265 1.607a1.04 1.04 0 0 0 .837 1.17l16.677 2.735a1.04 1.04 0 0 0 1.17-.837l.26-1.607-18.679-3.068Z" fill="#fff" stroke="#263238" stroke-width=".75" stroke-linecap="round" stroke-linejoin="round"/><path d="m224.103 153.862-16.867-2.768a.92.92 0 0 0-1.057.759l-1.672 10.186a.92.92 0 0 0 .759 1.057l16.867 2.768a.919.919 0 0 0 1.057-.759l1.672-10.185a.922.922 0 0 0-.759-1.058Z" fill="#fff"/><path opacity=".5" d="m224.103 153.862-16.867-2.768a.92.92 0 0 0-1.057.759l-1.672 10.186a.92.92 0 0 0 .759 1.057l16.867 2.768a.919.919 0 0 0 1.057-.759l1.672-10.185a.922.922 0 0 0-.759-1.058Z" fill="#fff"/><path d="m224.103 153.862-16.867-2.768a.92.92 0 0 0-1.057.759l-1.672 10.186a.92.92 0 0 0 .759 1.057l16.867 2.768a.919.919 0 0 0 1.057-.759l1.672-10.185a.922.922 0 0 0-.759-1.058Z" stroke="#263238" stroke-linecap="round" stroke-linejoin="round"/><path d="m217.594 155.761-.92 3.12-3.12 2.231a37.145 37.145 0 0 1-1.56 4.009.493.493 0 0 0 .171.65.487.487 0 0 0 .234.073c.432 0 .936-.203 1.212-1.04 0 0 .119 1.643 1.133.639 0 0 .619 1.591 1.586.338 0 0 2.242.333 2.6-1.284.359-1.617.89-4.467.89-4.467l1.424-3.344-3.65-.925Z" fill="#858585" stroke="#263238" stroke-linecap="round" stroke-linejoin="round"/><path d="m213.59 164.164.353-2.408M214.146 164.32s.245.796.796.666 1.336.483 3.052-.24" stroke="#263238" stroke-width=".75" stroke-linecap="round" stroke-linejoin="round"/><path d="M219.164 116.672s7.8 21.674 7.655 24.841c-.146 3.167-5.694 16.941-5.694 16.941l-4.285-1.362 2.86-16.156-2.564-11.227s-.582-8.232 2.028-13.037Z" fill="#fff" stroke="#263238" stroke-linecap="round" stroke-linejoin="round"/><path d="M220.662 140.577a2.42 2.42 0 0 1 2.048-.432" stroke="#263238" stroke-width=".75" stroke-linecap="round" stroke-linejoin="round"/><path d="M215.592 157.435a2.125 2.125 0 0 1-.343-.686 1.184 1.184 0 0 0-.96 1.912 1.194 1.194 0 0 0 1.633.237 1.19 1.19 0 0 0 .481-.771 1.785 1.785 0 0 1-.811-.692ZM63.409 111.691l.946 4.664-10.514.442 1.825-12.927 7.082.822.66 6.999Z" fill="#fff"/><path d="m68.12 104.614-8.793 2.6c.11 1.007.319 2.002.624 2.969.52 1.497 3.687 4.16 5.72 4.129 2.033-.032 2.262-6.511 2.262-6.511l1.227-.681a.564.564 0 0 0 .277-.379.573.573 0 0 0-.1-.458l-1.217-1.669Z" fill="#263238" stroke="#263238" stroke-width=".75" stroke-linecap="round" stroke-linejoin="round"/><path d="m63.409 111.691.946 4.664-10.514.442 1.825-12.927 7.082.822.66 6.999Z" stroke="#263238" stroke-linecap="round" stroke-linejoin="round"/><path d="M63.893 95.259s2.553.52 2.293-2.252c-.26-2.771-5.018-1.076-7.499-.764-2.48.312-10.488 3.302-7.654 8.023 0 0-1.67 2.663 4.342 7.13 0 0 2.855-1.342 4.42.618l1.222-2.381 3.12-5.481-.244-4.893Z" fill="#263238" stroke="#263238" stroke-linecap="round" stroke-linejoin="round"/><path d="M63.705 94.843s2.444 1.362 3.848-.343c0 0 .156 3.64-3.848.343Z" fill="#263238" stroke="#263238" stroke-linecap="round" stroke-linejoin="round"/><path d="M63.96 94.463s3.64 3.833 3.515 6.459v2.397l1.924 2.163a.517.517 0 0 1 .068.638.521.521 0 0 1-.161.163l-1.118.775s.327 6.136-1.597 6.354c-1.924.218-5.127-2.08-5.766-3.432a18.796 18.796 0 0 1-1.04-3.843 2.904 2.904 0 0 1-2.127-2.465c-.224-2.017 1.81-1.96 2.334-.639l.427 1.076 1.32-.047s-.753-1.903-.306-2.464c.447-.562 2.205-1.93 1.399-3.235s-.536-3.525 1.128-3.9Z" fill="#fff" stroke="#263238" stroke-linecap="round" stroke-linejoin="round"/><path d="M66.04 108.259a1.473 1.473 0 0 0 1.56.723" stroke="#263238" stroke-width=".75" stroke-linecap="round" stroke-linejoin="round"/><path d="M65.083 100.937s.827-1.149 1.612-.099" stroke="#263238" stroke-linecap="round" stroke-linejoin="round"/><path d="M66.389 103.334c0 .359-.14.656-.333.661-.193.005-.36-.281-.37-.64-.01-.359.14-.655.333-.66.193-.005.36.265.37.639Z" fill="#263238"/><path d="m49.712 218.525-1.519 13.067 4.52.697 2.49-12.917-5.491-.847Z" fill="#fff" stroke="#263238" stroke-linecap="round" stroke-linejoin="round"/><path d="M47.585 160.784s.182 7.571 2.855 12.896l.608 20.093-3.083 32.375 6.858.655 6.24-33.862 2.08-30.68-15.558-1.477Z" fill="#fff" stroke="#263238" stroke-linecap="round" stroke-linejoin="round"/><path opacity=".2" d="m62.176 177.013-.572-3.603-2.6-11.342-.478-.244-10.92-1.04s0 1.243.244 3.078l5.393 3.058c.127 1.92.56 3.807 1.284 5.59a.984.984 0 0 1-.988 1.357c-.556-.041-1.04 0-1.04.364 0 .843 4.067 3.562 4.067 3.562s4.102 13.26 3.957 18.159l.556-3.016 1.097-15.923Z" fill="#000"/><path d="m63.502 219.383.494 13.145h4.571l.489-13.145h-5.554Z" fill="#fff" stroke="#263238" stroke-linecap="round" stroke-linejoin="round"/><path d="M75.847 234.38a28.388 28.388 0 0 1-4.389-1.748c-.676-.421-1.622-1.799-2.319-2.189a1.169 1.169 0 0 0-.925 0c-.333.271-.349 1.68-.349 1.68s-.587-1.435-1.014-1.68c-.593-.333-2.205-.431-2.73 0-.873.713-1.19 3.188-1.362 4.301-.042.244 0 1.596 0 1.596h14.04v-.619a1.412 1.412 0 0 0-.952-1.341Z" fill="#263238" stroke="#263238" stroke-linecap="round" stroke-linejoin="round"/><path d="m73.065 161.408-1.123 30.373-1.877 34.679H62.92s-1.498-26.619-1.123-34.32l-3.75-17.81s-3.936-5.252-3-11.622l18.018-1.3Z" fill="#fff" stroke="#263238" stroke-linecap="round" stroke-linejoin="round"/><path d="m62.286 223.881.234 4.17h7.826l.608-4.17h-8.668ZM47.393 223.522l-.162 4.17 7.79.744 1.004-4.092-8.632-.822ZM84.91 141.414 74.1 134.54l11.393-11.394 10.816 6.875-11.398 11.393Z" fill="#fff" stroke="#263238" stroke-linecap="round" stroke-linejoin="round"/><path d="m85.53 139.064-8.695-5.528 9.162-9.162 8.695 5.527-9.163 9.163Z" fill="#fff" stroke="#263238" stroke-width=".75" stroke-linecap="round" stroke-linejoin="round"/><path d="m86.164 129.574 1.518-1.519-1.95-1.237-1.518 1.513 1.95 1.243ZM83.808 131.934l1.519-1.518-1.955-1.243-1.514 1.519 1.95 1.242ZM81.37 134.373l1.513-1.518-1.95-1.243-1.518 1.518 1.955 1.243Z" stroke="#263238" stroke-width=".75" stroke-linecap="round" stroke-linejoin="round"/><path d="m89.882 124.92-1.435 1.44a.645.645 0 0 0-.184.523.637.637 0 0 0 .293.47l2.08 1.337a1.199 1.199 0 0 0 1.487-.162l1.326-1.331-3.567-2.277ZM51.413 116.043l1.877-4.123s10.873-1.217 13.775 7.872l-15.652-3.749ZM45.24 119.558s-2.683 20.556-1.97 27.841c.56 5.762 4.357 10.639 4.357 10.639l5.626-2.204-2.86-8.435s.89-15.184 1.732-18.72l-6.885-9.121Z" fill="#858585" stroke="#263238" stroke-linecap="round" stroke-linejoin="round"/><path d="m45.999 157.03 1.586 1.898 6.5-2.533-.842-2.532-7.244 3.167Z" fill="#858585" stroke="#263238" stroke-linecap="round" stroke-linejoin="round"/><path d="M45.24 119.558s-.848 11.81 1.56 20.109c2.408 8.299 0 21.928 0 21.928s11.081 7.171 28.08 1.685c0 0-2.106-40.352-4.92-42.598-2.813-2.247-18.688-10.822-24.72-1.124Z" fill="#858585" stroke="#263238" stroke-linecap="round" stroke-linejoin="round"/><path opacity=".2" d="M74.88 163.28s-.723-13.832-1.882-25.75c-2.46-5.97-6.48-13.921-6.693-2.756-.312 16.146 9.625 15.194 1.753 18.007a12.803 12.803 0 0 1-10.858-.842.643.643 0 0 0-.8.972c1.975 2.512 4.976 4.077 7.28 4.977a1.005 1.005 0 0 1 .642 1.05 1.009 1.009 0 0 1-.85.889c-7.416 1.097-13.23-2.844-15.897-5.137-.312 3.972-.827 6.905-.827 6.905s11.133 7.171 28.132 1.685Z" fill="#000"/><path d="M69.971 120.687a6.613 6.613 0 0 1 3.796 5.127c.562 3.869 4.16 15.751 4.16 15.751l1.196-.775a4.968 4.968 0 0 1 2.87 5.33s-2.922 5.72-6.114 4.644c-3.282-1.113-5.117-3.796-6.76-8.185-.869-2.34-3.375-9.391-3.375-9.391" fill="#858585"/><path d="M69.971 120.687a6.613 6.613 0 0 1 3.796 5.127c.562 3.869 4.16 15.751 4.16 15.751l1.196-.775a4.968 4.968 0 0 1 2.87 5.33s-2.922 5.72-6.114 4.644c-3.282-1.113-5.117-3.796-6.76-8.185-.869-2.34-3.375-9.391-3.375-9.391" stroke="#263238" stroke-linecap="round" stroke-linejoin="round"/><path d="M79.362 145.007c.02.306.005.613-.041.915M77.215 147.399s.983-1.56.842-4.924c.473.358.834.843 1.04 1.399" stroke="#263238" stroke-width=".75" stroke-linecap="round" stroke-linejoin="round"/><path d="m79.908 140.462 3.75-2.672a4.735 4.735 0 0 1 3.327-3.516s1.732-2.86 2.715-2.527c.983.333-1.17 1.498-1.357 2.995l.795 1.066s2.6-.457 3.235-1.3c0 0-.14 1.784-1.17 2.08 0 0 0 1.358-.702 1.311l-5.159 1.456-3 5.6-2.434-4.493Z" fill="#fff" stroke="#263238" stroke-linecap="round" stroke-linejoin="round"/><path d="M64.558 153.462c.593-.054 1.18-.155 1.758-.301M49.821 144.94s5.528 8.455 13.52 8.569" stroke="#263238" stroke-width=".75" stroke-linecap="round" stroke-linejoin="round"/><path d="M78.291 140.556s3.91 2.954 3.536 6.516l1.41-2.699s-.048-2.273-3.282-4.68l-1.664.863Z" fill="#858585" stroke="#263238" stroke-linecap="round" stroke-linejoin="round"/><path d="M62.76 236.34H76.8v-.619c-.001-.152-.026-.303-.074-.447H62.738c0 .473.021 1.066.021 1.066Z" fill="#fff" stroke="#263238" stroke-width=".75" stroke-linecap="round" stroke-linejoin="round"/><path d="M59.8 234.38a28.388 28.388 0 0 1-4.389-1.748c-.676-.421-1.622-1.799-2.314-2.189a1.18 1.18 0 0 0-.93 0c-.333.271-.349 1.68-.349 1.68s-.582-1.435-1.014-1.68c-.593-.333-2.205-.431-2.73 0-.873.713-1.19 3.188-1.362 4.301-.042.244 0 1.596 0 1.596h14.04v-.619a1.412 1.412 0 0 0-.952-1.341Z" fill="#263238" stroke="#263238" stroke-linecap="round" stroke-linejoin="round"/><path d="M46.702 236.34h14.04v-.619c0-.152-.025-.303-.073-.447H46.68c0 .473.02 1.066.02 1.066Z" fill="#fff" stroke="#263238" stroke-width=".75" stroke-linecap="round" stroke-linejoin="round"/><path d="M67.413 192.343s-1.493 2.574-3.91 1.591M57.008 193.248s-2.678 2.288-4.894.686" stroke="#263238" stroke-width=".75" stroke-linecap="round" stroke-linejoin="round"/><path d="m84.952 126.636.374 1.861h3.318l-2.699-.629.13-1.269-1.123.037Z" fill="#fff"/></svg>