<svg width="205" height="205" fill="none" xmlns="http://www.w3.org/2000/svg"><path d="m175.045 132.721-.319 2.87 5.58-6.523c.667.07 1.338.105 2.009.107M168.055 112.926a8.374 8.374 0 0 0-1.341 3.69c-.529 4.769 3.211 9.279 8.86 11.365l-.287 2.563M170.224 110.552c-.364.295-.709.611-1.034.947M191.15 110.552a18.425 18.425 0 0 0-8.565-3.132 18.2 18.2 0 0 0-9.536 1.402M186.197 128.789c5.33-1.103 9.369-4.51 9.84-8.93.345-3.091-1.103-6.072-3.69-8.359" stroke="#263238" stroke-linecap="round" stroke-linejoin="round"/><path d="M173.053 113.722a3.474 3.474 0 0 0 2.616-.558l1.992 1.546c-.139.045-.127-.25.021-.259.147-.008.258.128.36.234.468.496 1.255.513 1.923.369.669-.143 1.321-.41 2.001-.385.405.042.803.134 1.185.274 2.739.849 5.588 1.276 8.426 1.694M170.699 116.637c.41-.025 2.694 0 3.022-.275l.558.972.615-.595c.106.41.213.82.315 1.206.464.11.41-.783.82-1.05a.555.555 0 0 1 .726.217c.134.252.199.535.189.82l2.804.23.545.045c.195-.297.484-.521.82-.635-.102.647.714 1.016 1.361 1.148 3.19.65 6.396 1.212 9.619 1.685M171.946 121.089c.258.181.574-.155.889-.196.316-.041.575.196.853.34.279.143.738.082.755-.23.065.41.574.558.988.615l10.766 1.513M27.88 107.084l4.313 5.805-.865-7.597a19.999 19.999 0 0 0 2.948-1.759c4.42-3.198 6.2-8.343 4.58-12.488-1.136-2.895-3.797-4.863-7.159-5.679M10.845 97.924a8.345 8.345 0 0 0 .524 3.875c1.747 4.469 7.15 6.724 13.12 5.945M11.66 94.813c-.183.43-.34.87-.471 1.32M30.192 85.087a18.396 18.396 0 0 0-9.044 1.197 18.196 18.196 0 0 0-7.79 5.675" stroke="#263238" stroke-linecap="round" stroke-linejoin="round"/><path d="M15.637 96.3a3.493 3.493 0 0 0 2.05-1.705l2.46.443c-.106.103-.23-.164-.102-.242.127-.078.287 0 .41.041.648.221 1.349-.127 1.873-.566.525-.438.976-.984 1.595-1.27a5.034 5.034 0 0 1 1.177-.312c2.82-.517 5.54-1.468 8.25-2.415M14.908 99.978c.365-.217 2.386-1.254 2.55-1.64l.947.603c.09-.27.18-.545.267-.82l.84.923c.463-.115 0-.882.221-1.3a.554.554 0 0 1 .742-.144c.235.158.423.374.546.628l2.587-1.099.508-.213c.03-.352.174-.685.41-.947.213.627 1.107.57 1.739.385a168.02 168.02 0 0 0 9.303-2.977M18.081 103.34c.316.041.439-.41.697-.59.258-.18.603-.086.914-.094.312-.008.693-.267.562-.55.25.332.77.226 1.16.086l10.25-3.67" stroke="#263238" stroke-linecap="round" stroke-linejoin="round"/><path d="M152.901 36.744H50.671a3.604 3.604 0 0 0-3.603 3.604v92.094a3.604 3.604 0 0 0 3.604 3.604H152.9a3.603 3.603 0 0 0 3.604-3.604V40.348a3.604 3.604 0 0 0-3.604-3.604Z" fill="#fff"/><path opacity=".2" d="M156.505 91.139v41.41a3.495 3.495 0 0 1-3.493 3.497H50.565a3.496 3.496 0 0 1-3.497-3.497v-8.2h.217v5.527a3.993 3.993 0 0 0 2.47 3.694 3.983 3.983 0 0 0 1.532.303h98.97a3.985 3.985 0 0 0 2.829-1.169 3.998 3.998 0 0 0 1.172-2.828V97.281a2.784 2.784 0 0 0-2.784-2.784H47.068v-3.358h109.437Z" fill="#000"/><path d="M152.901 36.744H50.671a3.604 3.604 0 0 0-3.603 3.604v92.094a3.604 3.604 0 0 0 3.604 3.604H152.9a3.603 3.603 0 0 0 3.604-3.604V40.348a3.604 3.604 0 0 0-3.604-3.604Z" stroke="#263238" stroke-linecap="round" stroke-linejoin="round"/><path d="M146.977 102.93v-4.743a1.761 1.761 0 0 0-.513-1.242 1.753 1.753 0 0 0-1.242-.513H58.351a1.755 1.755 0 0 0-1.755 1.755v4.743a1.754 1.754 0 0 1-1.755 1.755 1.762 1.762 0 0 0-1.758 1.759v9.36a8.138 8.138 0 0 0 8.138 8.139 1.309 1.309 0 0 1 1.308 1.308v2.804a3.904 3.904 0 0 0 3.903 3.903h70.709a3.903 3.903 0 0 0 3.903-3.903v-2.804a1.309 1.309 0 0 1 1.308-1.308 8.134 8.134 0 0 0 5.755-2.384 8.145 8.145 0 0 0 2.383-5.755v-9.36a1.758 1.758 0 0 0-1.754-1.759 1.76 1.76 0 0 1-1.759-1.755Z" fill="#263238"/><path d="M63.25 99.118h-3.037a1.402 1.402 0 0 0-1.403 1.402v.779c0 1.615 1.308 3.665 2.924 3.665 1.615 0 2.923-2.05 2.923-3.665v-.779a1.406 1.406 0 0 0-1.406-1.402ZM70.52 99.118h-3.038a1.406 1.406 0 0 0-1.406 1.402v.779c0 1.615 1.308 3.665 2.923 3.665s2.923-2.05 2.923-3.665v-.779a1.402 1.402 0 0 0-1.402-1.402ZM77.818 99.118H74.78a1.402 1.402 0 0 0-1.402 1.402v.779c0 1.615 1.308 3.665 2.92 3.665 1.61 0 2.922-2.05 2.922-3.665v-.779a1.402 1.402 0 0 0-1.402-1.402ZM85.1 99.118H82.06a1.402 1.402 0 0 0-1.402 1.402v.779c0 1.615 1.308 3.665 2.923 3.665 1.616 0 2.92-2.05 2.92-3.665v-.779a1.403 1.403 0 0 0-1.402-1.402ZM92.381 99.118h-3.038a1.402 1.402 0 0 0-1.402 1.402v.779c0 1.615 1.308 3.665 2.923 3.665 1.616 0 2.923-2.05 2.923-3.665v-.779a1.406 1.406 0 0 0-1.406-1.402ZM99.667 99.118H96.63a1.406 1.406 0 0 0-1.406 1.402v.779c0 1.615 1.308 3.665 2.923 3.665s2.923-2.05 2.923-3.665v-.779a1.402 1.402 0 0 0-1.402-1.402ZM106.949 99.118h-3.038a1.403 1.403 0 0 0-1.403 1.402v.779c0 1.615 1.308 3.665 2.92 3.665 1.611 0 2.923-2.05 2.923-3.665v-.779a1.403 1.403 0 0 0-1.402-1.402ZM114.23 99.118h-3.038a1.4 1.4 0 0 0-1.402 1.402v.779c0 1.615 1.308 3.665 2.923 3.665 1.616 0 2.92-2.05 2.92-3.665v-.779a1.403 1.403 0 0 0-1.403-1.402ZM121.512 99.118h-3.022a1.407 1.407 0 0 0-.991.41 1.394 1.394 0 0 0-.411.992v.779c0 1.615 1.308 3.665 2.923 3.665 1.616 0 2.923-2.05 2.923-3.665v-.779a1.395 1.395 0 0 0-.419-.998 1.404 1.404 0 0 0-1.003-.404ZM128.797 99.118h-3.038a1.408 1.408 0 0 0-1.406 1.402v.779c0 1.615 1.308 3.665 2.923 3.665 1.616 0 2.924-2.05 2.924-3.665v-.779a1.403 1.403 0 0 0-1.403-1.402ZM136.079 99.118h-3.038a1.403 1.403 0 0 0-1.402 1.402v.779c0 1.615 1.308 3.665 2.919 3.665s2.923-2.05 2.923-3.665v-.779a1.403 1.403 0 0 0-1.402-1.402ZM143.361 99.118h-3.038a1.403 1.403 0 0 0-1.403 1.402v.779c0 1.611 1.3 3.661 2.94 3.661s2.919-2.05 2.919-3.665v-.779a1.386 1.386 0 0 0-.418-.995 1.4 1.4 0 0 0-1-.403ZM63.25 114.55h-3.037a1.403 1.403 0 0 0-1.403 1.402v.779c0 1.615 1.308 3.665 2.924 3.665 1.615 0 2.923-2.05 2.923-3.665v-.779a1.407 1.407 0 0 0-1.406-1.402ZM70.52 114.55h-3.038a1.405 1.405 0 0 0-1.406 1.402v.779c0 1.615 1.308 3.665 2.923 3.665s2.923-2.05 2.923-3.665v-.779a1.4 1.4 0 0 0-1.402-1.402ZM77.818 114.55H74.78a1.402 1.402 0 0 0-1.402 1.402v.779c0 1.615 1.308 3.665 2.92 3.665 1.61 0 2.922-2.05 2.922-3.665v-.779a1.4 1.4 0 0 0-1.402-1.402ZM85.1 114.55H82.06a1.402 1.402 0 0 0-1.402 1.402v.779c0 1.615 1.308 3.665 2.923 3.665 1.616 0 2.92-2.05 2.92-3.665v-.779a1.407 1.407 0 0 0-.411-.991 1.393 1.393 0 0 0-.991-.411ZM92.381 114.55h-3.038a1.402 1.402 0 0 0-1.402 1.402v.779c0 1.615 1.308 3.665 2.923 3.665 1.616 0 2.923-2.05 2.923-3.665v-.779a1.408 1.408 0 0 0-1.406-1.402ZM99.667 114.55H96.63a1.405 1.405 0 0 0-1.406 1.402v.779c0 1.615 1.308 3.665 2.923 3.665s2.923-2.05 2.923-3.665v-.779a1.4 1.4 0 0 0-1.402-1.402ZM106.949 114.55h-3.038a1.403 1.403 0 0 0-1.403 1.402v.779c0 1.615 1.308 3.665 2.92 3.665 1.611 0 2.923-2.05 2.923-3.665v-.779a1.401 1.401 0 0 0-1.402-1.402ZM114.23 114.55h-3.038a1.401 1.401 0 0 0-1.402 1.402v.779c0 1.615 1.308 3.665 2.923 3.665 1.616 0 2.92-2.05 2.92-3.665v-.779a1.401 1.401 0 0 0-1.403-1.402ZM121.512 114.55h-3.022a1.398 1.398 0 0 0-1.295.865 1.398 1.398 0 0 0-.107.537v.779c0 1.615 1.308 3.665 2.923 3.665 1.616 0 2.923-2.05 2.923-3.665v-.779a1.398 1.398 0 0 0-.88-1.3 1.396 1.396 0 0 0-.542-.102ZM128.797 114.55h-3.038a1.406 1.406 0 0 0-1.406 1.402v.779c0 1.615 1.308 3.665 2.923 3.665 1.616 0 2.924-2.05 2.924-3.665v-.779a1.401 1.401 0 0 0-1.403-1.402ZM136.079 114.55h-3.038a1.403 1.403 0 0 0-1.402 1.402v.779c0 1.615 1.308 3.665 2.919 3.665s2.923-2.05 2.923-3.665v-.779a1.401 1.401 0 0 0-1.402-1.402ZM143.361 114.55h-3.038a1.403 1.403 0 0 0-1.403 1.402v.779c0 1.615 1.308 3.665 2.924 3.665 1.615 0 2.919-2.05 2.919-3.665v-.779a1.401 1.401 0 0 0-1.402-1.402ZM59.61 107.084h-3.03a1.403 1.403 0 0 0-1.402 1.402v.779c0 1.611 1.308 3.665 2.923 3.665s2.92-2.05 2.92-3.665v-.779a1.405 1.405 0 0 0-.872-1.298 1.403 1.403 0 0 0-.54-.104ZM66.891 107.084h-3.038a1.401 1.401 0 0 0-1.402 1.402v.779c0 1.611 1.308 3.665 2.923 3.665 1.616 0 2.924-2.05 2.924-3.665v-.779a1.408 1.408 0 0 0-1.407-1.402ZM74.177 107.084H71.14a1.405 1.405 0 0 0-1.406 1.402v.779c0 1.611 1.312 3.665 2.923 3.665s2.923-2.05 2.923-3.665v-.779a1.403 1.403 0 0 0-1.402-1.402ZM81.459 107.084H78.42a1.402 1.402 0 0 0-1.402 1.402v.779c0 1.611 1.307 3.665 2.919 3.665 1.611 0 2.923-2.05 2.923-3.665v-.779a1.404 1.404 0 0 0-1.402-1.402ZM88.74 107.084h-3.05a1.401 1.401 0 0 0-1.402 1.402v.779c0 1.611 1.308 3.665 2.923 3.665s2.92-2.05 2.92-3.665v-.779a1.4 1.4 0 0 0-1.39-1.402ZM96.022 107.084h-3.038a1.402 1.402 0 0 0-1.402 1.402v.779c0 1.611 1.307 3.665 2.923 3.665 1.615 0 2.923-2.05 2.923-3.665v-.779a1.407 1.407 0 0 0-1.406-1.402ZM103.32 107.084h-3.038a1.405 1.405 0 0 0-1.406 1.402v.779c0 1.611 1.311 3.665 2.923 3.665 1.611 0 2.923-2.05 2.923-3.665v-.779a1.403 1.403 0 0 0-1.402-1.402ZM110.589 107.084h-3.038a1.4 1.4 0 0 0-1.402 1.402v.779c0 1.611 1.308 3.665 2.919 3.665s2.923-2.05 2.923-3.665v-.779a1.402 1.402 0 0 0-1.402-1.402ZM117.871 107.084h-3.038a1.402 1.402 0 0 0-1.402 1.402v.779c0 1.611 1.308 3.665 2.923 3.665s2.919-2.05 2.919-3.665v-.779a1.403 1.403 0 0 0-1.402-1.402ZM125.153 107.084h-3.038a1.402 1.402 0 0 0-1.403 1.402v.779c0 1.611 1.308 3.665 2.924 3.665 1.615 0 2.923-2.05 2.923-3.665v-.779a1.406 1.406 0 0 0-1.406-1.402ZM132.43 107.084h-3.038a1.406 1.406 0 0 0-1.406 1.402v.779c0 1.611 1.312 3.665 2.923 3.665s2.923-2.05 2.923-3.665v-.779a1.402 1.402 0 0 0-1.402-1.402ZM139.72 107.084h-3.039a1.399 1.399 0 0 0-1.381 1.402v.779c0 1.611 1.308 3.665 2.919 3.665s2.923-2.05 2.923-3.665v-.779a1.412 1.412 0 0 0-.418-.999 1.396 1.396 0 0 0-1.004-.403ZM147.001 107.084h-3.038a1.4 1.4 0 0 0-1.402 1.402v.779c0 1.611 1.308 3.665 2.923 3.665 1.616 0 2.92-2.05 2.92-3.665v-.779a1.403 1.403 0 0 0-1.403-1.402ZM129.601 122.323H73.972c-.726 0-1.316.59-1.316 1.317v3.993c0 .727.59 1.316 1.316 1.316h55.629c.727 0 1.316-.589 1.316-1.316v-3.993c0-.727-.589-1.317-1.316-1.317ZM137.051 122.713h-3.038a1.403 1.403 0 0 0-1.403 1.402v.779c0 1.616 1.308 3.666 2.924 3.666 1.615 0 2.919-2.05 2.919-3.666v-.779a1.401 1.401 0 0 0-1.402-1.402ZM69.56 122.713h-3.038a1.402 1.402 0 0 0-1.402 1.402v.779c0 1.616 1.308 3.666 2.923 3.666 1.616 0 2.924-2.05 2.924-3.666v-.779a1.408 1.408 0 0 0-1.407-1.402Z" fill="#fff" stroke="#263238" stroke-linecap="round" stroke-linejoin="round"/><path opacity=".2" d="M63.419 101.344c.147 0 .294.014.438.041v-.865a.612.612 0 0 0-.61-.607h-3.039a.61.61 0 0 0-.606.607v.779c0 1.119.82 2.529 1.787 2.812-.3-1.242.373-2.767 2.03-2.767ZM70.864 101.135c.093-.007.186-.007.279 0v-.632a.613.613 0 0 0-.607-.606h-3.038a.61.61 0 0 0-.61.606v.779c0 1.23.97 2.768 2.05 2.87-.497-1.271.155-3.017 1.926-3.017ZM78.363 101.028h.062v-.512a.61.61 0 0 0-.607-.607H74.78a.611.611 0 0 0-.611.607v.779c0 1.25 1.033 2.87 2.128 2.87.053.004.106.004.16 0-.55-1.296.086-3.137 1.906-3.137ZM85.182 100.819c.17-.005.34.009.508.041v-.357a.607.607 0 0 0-.607-.606h-3.038a.607.607 0 0 0-.606.606v.779c0 1.173.902 2.665 1.918 2.87-.697-1.287-.094-3.333 1.825-3.333ZM92.836 100.819h.156v-.308a.611.611 0 0 0-.61-.606h-3.039a.61.61 0 0 0-.607.606v.779c0 1.251 1.033 2.87 2.128 2.87.056.004.112.004.168 0-.717-1.291-.114-3.341 1.804-3.341ZM100.18 100.86h.094v-.357a.61.61 0 0 0-.607-.606H96.63a.611.611 0 0 0-.61.606v.779c0 1.251 1.032 2.87 2.127 2.87.067.006.134.006.2 0-.672-1.291-.06-3.292 1.834-3.292ZM107.207 100.819c.116.002.233.01.348.025v-.324a.608.608 0 0 0-.606-.607h-3.038a.608.608 0 0 0-.607.607v.779c0 1.23 1.017 2.845 2.103 2.87-.726-1.288-.127-3.35 1.8-3.35ZM114.837 100.926v-.41a.609.609 0 0 0-.607-.607h-3.038a.607.607 0 0 0-.607.607v.779c0 1.25 1.029 2.87 2.128 2.87.11-.002.219-.02.324-.054-.591-1.263.012-3.128 1.8-3.185ZM121.524 100.766a2.25 2.25 0 0 1 .599.078v-.324a.61.61 0 0 0-.611-.607h-3.022a.612.612 0 0 0-.607.607v.779c0 1.156.878 2.616 1.874 2.837-.767-1.283-.172-3.37 1.767-3.37ZM128.97 100.766c.145 0 .291.014.434.041v-.287a.607.607 0 0 0-.607-.607h-3.038a.61.61 0 0 0-.611.607v.779c0 1.23.984 2.792 2.05 2.87-.77-1.288-.18-3.403 1.772-3.403ZM136.366 100.975c.107.002.214.01.32.024v-.479a.605.605 0 0 0-.607-.607h-3.038a.602.602 0 0 0-.429.178.605.605 0 0 0-.178.429v.779c0 1.23.984 2.788 2.05 2.87-.594-1.296.033-3.194 1.882-3.194ZM143.968 100.881v-.361a.605.605 0 0 0-.607-.607h-3.038a.604.604 0 0 0-.607.607v.779c0 1.25 1.029 2.87 2.128 2.87.158-.003.314-.036.459-.099-.582-1.238-.033-3.05 1.665-3.189ZM63.628 116.03c.078-.004.156-.004.234 0v-.086a.61.61 0 0 0-.611-.607h-3.038a.609.609 0 0 0-.607.607v.779c0 1.25 1.033 2.87 2.128 2.87.076-.002.151-.01.225-.025-.918-1.246-.36-3.538 1.67-3.538ZM70.762 116.03c.127 0 .255.011.381.033v-.107a.613.613 0 0 0-.607-.607h-3.038a.61.61 0 0 0-.61.607v.779c0 1.251 1.032 2.87 2.127 2.87h.09c-.939-1.263-.385-3.575 1.657-3.575ZM77.999 116.132c.137.001.274.013.41.037v-.217a.602.602 0 0 0-.178-.429.616.616 0 0 0-.43-.178h-3.037a.61.61 0 0 0-.611.607v.779c0 1.23 1.017 2.841 2.103 2.87-.816-1.275-.246-3.469 1.743-3.469ZM85.39 116.186c.106 0 .212.007.316.02v-.254a.602.602 0 0 0-.177-.429.616.616 0 0 0-.43-.178h-3.038a.616.616 0 0 0-.429.178.6.6 0 0 0-.177.429v.779c0 1.251 1.029 2.87 2.127 2.87h.05c-.788-1.283-.201-3.415 1.759-3.415ZM92.525 116.03c.157 0 .313.015.467.045v-.119a.611.611 0 0 0-.61-.607h-3.039a.613.613 0 0 0-.607.607v.779c0 1.251 1.033 2.87 2.128 2.87-.935-1.254-.385-3.575 1.66-3.575ZM99.917 116.079c.12.001.239.011.357.029v-.156a.61.61 0 0 0-.607-.607H96.63a.61.61 0 0 0-.61.607v.779c0 1.251 1.032 2.87 2.127 2.87h.078c-.886-1.271-.32-3.522 1.693-3.522ZM107.469 116.235h.086v-.287a.61.61 0 0 0-.606-.607h-3.038a.609.609 0 0 0-.607.607v.779c0 1.25 1.029 2.87 2.124 2.87.08-.001.159-.011.237-.029-.705-1.279-.119-3.333 1.804-3.333ZM114.8 116.079h.024v-.127a.593.593 0 0 0-.177-.429.62.62 0 0 0-.429-.178h-3.026a.611.611 0 0 0-.561.375.611.611 0 0 0-.046.232v.779c0 1.251 1.029 2.87 2.128 2.87.126-.002.25-.024.369-.066-.832-1.271-.254-3.456 1.718-3.456ZM121.889 115.923h.23a.612.612 0 0 0-.607-.586h-3.022a.61.61 0 0 0-.607.607v.779c0 1.25 1.034 2.87 2.128 2.87.1-.003.199-.018.295-.045-1.029-1.222-.496-3.625 1.583-3.625ZM129.392 116.03v-.074a.61.61 0 0 0-.607-.607h-3.038a.609.609 0 0 0-.611.607v.779c0 1.251 1.033 2.87 2.128 2.87.14-.002.278-.027.41-.074-.857-1.271-.291-3.501 1.718-3.501ZM136.53 116.03h.164v-.082a.611.611 0 0 0-.375-.561.611.611 0 0 0-.232-.046h-3.038a.606.606 0 0 0-.607.607v.779c0 1.25 1.029 2.87 2.124 2.87.097-.001.194-.015.287-.041-.914-1.255-.352-3.526 1.677-3.526ZM143.705 116.342h.263v-.41a.609.609 0 0 0-.607-.607h-3.038a.608.608 0 0 0-.607.607v.779c0 1.25 1.029 2.87 2.128 2.87-.636-1.271-.021-3.239 1.861-3.239ZM60.167 108.687h.054v-.201a.61.61 0 0 0-.611-.607h-3.03a.606.606 0 0 0-.607.607v.779c0 1.251 1.03 2.87 2.128 2.87.106-.003.21-.019.312-.049-.788-1.279-.193-3.399 1.754-3.399ZM67.297 108.687h.205v-.209a.612.612 0 0 0-.61-.607h-3.039a.609.609 0 0 0-.606.607v.779c0 1.25 1.033 2.87 2.127 2.87.06.004.12.004.18 0-.807-1.284-.225-3.44 1.743-3.44ZM74.747 108.687h.037v-.201a.611.611 0 0 0-.607-.607H71.14a.612.612 0 0 0-.619.607v.779c0 1.25 1.033 2.87 2.128 2.87.11-.001.22-.019.324-.053-.767-1.275-.18-3.395 1.775-3.395ZM81.877 108.65h.189v-.156a.607.607 0 0 0-.607-.607H78.42a.606.606 0 0 0-.607.607v.779c0 1.251 1.03 2.87 2.124 2.87.074-.001.148-.01.221-.024-.849-1.276-.275-3.469 1.718-3.469ZM88.97 108.687c.13 0 .26.011.39.033v-.234a.607.607 0 0 0-.608-.607H85.69a.606.606 0 0 0-.607.607v.779c0 1.251 1.03 2.87 2.128 2.87-.812-1.275-.234-3.448 1.759-3.448ZM96.3 108.425c.11 0 .22.007.329.02a.612.612 0 0 0-.607-.566h-3.038a.613.613 0 0 0-.607.607v.779c0 1.251 1.033 2.87 2.128 2.87.079-.001.157-.011.234-.029-1.066-1.217-.546-3.681 1.562-3.681ZM103.64 108.736h.274v-.266a.61.61 0 0 0-.606-.607h-3.038a.613.613 0 0 0-.611.607v.779c0 1.25 1.033 2.87 2.128 2.87h.082c-.767-1.271-.189-3.383 1.771-3.383ZM111.196 108.486a.606.606 0 0 0-.607-.607h-3.038a.615.615 0 0 0-.429.178.596.596 0 0 0-.131.197.594.594 0 0 0-.047.232v.779c0 1.251 1.029 2.87 2.124 2.87.219-.005.433-.065.623-.172-.828-1.222-.328-3.313 1.505-3.477ZM118.49 108.65v-.156a.606.606 0 0 0-.607-.607h-3.038a.606.606 0 0 0-.607.607v.779c0 1.251 1.029 2.87 2.128 2.87a1.23 1.23 0 0 0 .509-.119c-.751-1.25-.214-3.272 1.615-3.374ZM125.509 108.527h.255v-.053a.61.61 0 0 0-.611-.607h-3.038a.607.607 0 0 0-.607.607v.779c0 1.25 1.033 2.87 2.128 2.87a1.04 1.04 0 0 0 .229-.029c-.951-1.234-.406-3.567 1.644-3.567ZM133.045 108.794v-.308a.61.61 0 0 0-.607-.607H129.4a.613.613 0 0 0-.611.607v.779c0 1.251 1.033 2.87 2.128 2.87.124-.002.247-.023.365-.061-.668-1.271-.082-3.231 1.763-3.28ZM139.982 108.58c.116.002.231.01.345.025v-.119a.606.606 0 0 0-.607-.607h-3.038a.611.611 0 0 0-.561.375.611.611 0 0 0-.046.232v.779c0 1.25 1.029 2.87 2.124 2.87.038.002.077.002.115 0-.919-1.267-.361-3.555 1.668-3.555ZM147.325 108.896c.094-.006.189-.006.283 0v-.41a.606.606 0 0 0-.607-.607h-3.038a.606.606 0 0 0-.607.607v.779c0 1.23 1.021 2.87 2.116 2.87-.64-1.291-.02-3.239 1.853-3.239ZM130.122 127.658v-4.043a.497.497 0 0 0-.497-.496H73.948a.496.496 0 0 0-.497.496v4.043c0 .274.223.496.497.496h55.677a.497.497 0 0 0 .497-.496ZM137.657 124.521v-.41a.593.593 0 0 0-.177-.429.62.62 0 0 0-.429-.178h-3.038a.62.62 0 0 0-.43.178.596.596 0 0 0-.177.429v.779c0 1.251 1.029 2.87 2.128 2.87.091-.002.182-.015.27-.037-.607-1.279.013-3.19 1.853-3.202ZM69.815 124.259c.12.001.238.01.356.028v-.172a.611.611 0 0 0-.61-.607h-3.039a.613.613 0 0 0-.607.607v.779c0 1.251 1.034 2.87 2.128 2.87h.07c-.873-1.271-.3-3.505 1.702-3.505ZM51.537 38.745h100.499a2.602 2.602 0 0 1 2.604 2.604v22.96H48.934v-22.96a2.604 2.604 0 0 1 2.603-2.604Z" fill="#000"/><path d="M143.82 43.075H59.77a95.53 95.53 0 0 0-3.69-17.159h91.446a91.57 91.57 0 0 0-3.706 17.159Z" fill="#fff"/><path opacity=".2" d="M144.648 37.544c-.611 3.337-.82 5.53-.82 5.53h-84.05s-.213-2.152-.84-5.53h85.71Z" fill="#000"/><path d="M143.82 43.075H59.77a95.53 95.53 0 0 0-3.69-17.159h91.446a91.57 91.57 0 0 0-3.706 17.159v0Z" stroke="#263238" stroke-linecap="round" stroke-linejoin="round"/><path d="M142.676 57.523H60.221v33.923h82.455V57.523Z" fill="#263238"/><g opacity=".4" fill="#fff"><path opacity=".4" d="m99.393 88.445.434.02c.547-8.459 1.093-16.932 1.64-25.42-.697 8.49-1.388 16.957-2.074 25.4ZM97.99 88.339l.435.037c.948-8.406 1.895-16.847 2.841-25.326a12438.55 12438.55 0 0 1-3.276 25.289ZM96.625 88.183c.144 0 .291.033.435.049 1.344-8.315 2.697-16.71 4.059-25.186a8384.682 8384.682 0 0 1-4.494 25.137ZM95.243 87.974l.439.07c1.744-8.2 3.501-16.537 5.272-25.01a3840.55 3840.55 0 0 1-5.71 24.94ZM93.866 87.715l.442.09a4309.932 4309.932 0 0 0 6.483-24.763 2389.984 2389.984 0 0 1-6.925 24.673ZM92.496 87.404l.443.11a2105.251 2105.251 0 0 0 7.687-24.476c-2.743 8.458-5.477 16.576-8.13 24.366ZM91.13 87.035l.448.131c2.87-7.642 5.875-15.687 8.884-24.137-3.16 8.45-6.31 16.45-9.331 24.006ZM89.79 86.617l.447.143c3.243-7.38 6.646-15.297 10.074-23.735-3.596 8.438-7.155 16.298-10.521 23.592ZM88.43 86.137l.45.164c3.592-7.101 7.409-14.859 11.255-23.284-4.006 8.425-7.983 16.113-11.706 23.12ZM87.1 85.596l.452.188c3.92-6.781 8.15-14.35 12.418-22.775-4.44 8.409-8.823 15.936-12.87 22.587ZM85.785 84.989l.45.217c4.232-6.416 8.877-13.817 13.572-22.205-4.863 8.388-9.668 15.719-14.022 21.988ZM84.489 84.317l.45.246c4.51-6.015 9.583-13.207 14.703-21.575A246.757 246.757 0 0 1 84.49 84.317Z"/><path opacity=".4" d="M83.23 83.579c.148.094.304.18.456.27a214.34 214.34 0 0 0 15.81-20.869A195.027 195.027 0 0 1 83.23 83.58Z"/><path opacity=".4" d="m81.972 82.763.447.307a170.47 170.47 0 0 0 16.896-20.09 155.911 155.911 0 0 1-17.343 19.783Z"/><path opacity=".4" d="M99.15 62.956c-6.597 8.261-13.05 14.563-18.38 18.917l.439.34A138.033 138.033 0 0 0 99.15 62.956Z"/><path opacity=".4" d="M98.986 62.943c-7.027 8.2-13.895 14.194-19.384 17.966l.434.373c5.416-4.01 12.108-10.118 18.95-18.339Z"/><path opacity=".4" d="M98.81 62.93c-7.45 8.14-14.706 13.781-20.32 16.93.136.14.271.279.41.41 5.56-3.403 12.657-9.18 19.91-17.34Z"/><path opacity=".4" d="M98.659 62.914c-7.856 8.057-15.49 13.326-21.193 15.826l.41.447c5.645-2.775 13.108-8.191 20.783-16.273Z"/><path opacity=".4" d="M76.522 77.543c.12.164.242.328.365.488 5.72-2.111 13.53-7.15 21.612-15.129-8.246 7.942-16.224 12.817-21.977 14.641Z"/><path opacity=".4" d="M75.686 76.297c.107.172.217.344.328.517 5.74-1.444 13.89-6.08 22.32-13.94-8.593 7.814-16.888 12.279-22.648 13.423Z"/><path opacity=".4" d="M74.973 75.03c.09.18.184.357.278.537 5.74-.779 14.17-5.006 22.92-12.69-8.893 7.61-17.458 11.661-23.198 12.153Z"/><path opacity=".4" d="M74.39 73.734c.074.18.152.365.23.546 5.707-.14 14.35-3.949 23.37-11.431-9.122 7.405-17.9 11.029-23.6 10.885ZM100.782 88.503h.431c.131-8.474.268-16.958.41-25.453-.287 8.49-.567 16.974-.841 25.453ZM102.168 88.51h.435c-.274-8.473-.547-16.957-.82-25.452l.385 25.453ZM103.554 88.474h.434c-.683-8.446-1.366-16.92-2.05-25.42.539 8.49 1.077 16.963 1.616 25.42ZM104.96 88.388l.435-.033c-1.094-8.383-2.187-16.818-3.28-25.305a8320.77 8320.77 0 0 0 2.845 25.338ZM106.325 88.257l.435-.054c-1.487-8.284-2.99-16.67-4.51-25.157 1.369 8.487 2.728 16.89 4.075 25.21ZM107.707 88.072l.439-.066a6814.78 6814.78 0 0 1-5.72-24.96 5865.867 5865.867 0 0 0 5.281 25.026ZM109.085 87.838l.438-.082a3512.428 3512.428 0 0 1-6.933-24.714 2876.954 2876.954 0 0 0 6.495 24.796ZM110.454 87.551l.447-.102a1729.575 1729.575 0 0 1-8.147-24.411 1838.72 1838.72 0 0 0 7.7 24.513ZM111.824 87.215l.442-.127c-3.025-7.573-6.178-15.58-9.348-24.059 3.014 8.47 6.015 16.511 8.906 24.186ZM113.181 86.817l.451-.147c-3.391-7.306-6.97-15.17-10.549-23.645 3.435 8.459 6.847 16.384 10.098 23.792ZM114.53 86.362l.451-.168c-3.731-7.007-7.716-14.727-11.734-23.177 3.858 8.45 7.683 16.224 11.283 23.345ZM115.866 85.85c.152-.066.308-.123.456-.189-4.059-6.666-8.463-14.214-12.911-22.652 4.284 8.438 8.519 16.043 12.455 22.84ZM117.19 85.28l.455-.217c-4.366-6.286-9.192-13.637-14.071-22.058 4.711 8.413 9.369 15.838 13.616 22.275ZM118.49 84.636c.152-.078.304-.164.451-.246a248.15 248.15 0 0 1-15.211-21.402c5.15 8.405 10.25 15.617 14.76 21.648ZM119.778 83.927l.459-.27a195.504 195.504 0 0 1-16.335-20.677 214.14 214.14 0 0 0 15.876 20.947Z"/><path opacity=".4" d="M104.066 62.968a170.738 170.738 0 0 0 16.97 20.18l.455-.307a156.233 156.233 0 0 1-17.425-19.873Z"/><path opacity=".4" d="M104.23 62.956a137.612 137.612 0 0 0 18.04 19.335c.152-.11.296-.225.443-.34-5.346-4.354-11.849-10.685-18.483-18.995Z"/><path opacity=".4" d="M104.395 62.943c6.888 8.27 13.62 14.404 19.052 18.413.148-.123.3-.246.443-.373-5.51-3.764-12.423-9.774-19.495-18.04Z"/><path opacity=".4" d="M104.55 62.93c7.319 8.2 14.453 14.019 20.029 17.418.143-.136.279-.28.41-.41-5.617-3.145-12.928-8.807-20.439-17.007Z"/><path opacity=".4" d="M104.723 62.914c7.736 8.143 15.256 13.584 20.91 16.339l.41-.451c-5.703-2.472-13.399-7.761-21.32-15.888Z"/><path opacity=".4" d="M126.645 78.089c.127-.164.246-.328.369-.496-5.76-1.784-13.813-6.675-22.14-14.69 8.151 8.048 16.039 13.103 21.771 15.186Z"/><path opacity=".4" d="m127.535 76.855.336-.525c-5.769-1.087-14.141-5.564-22.825-13.444 8.524 7.925 16.724 12.574 22.489 13.968Z"/><path opacity=".4" d="M128.33 75.58c.098-.181.193-.361.287-.546-5.74-.41-14.395-4.465-23.37-12.165 8.807 7.766 17.343 12.001 23.083 12.71Z"/><path opacity=".4" d="M105.37 62.849c9.119 7.569 17.876 11.377 23.575 11.435.082-.185.16-.37.238-.554-5.691.234-14.563-3.395-23.813-10.881Z"/></g><path opacity=".2" d="M89.79 63.66c-1.554 3.986.127 15.58 11.34 15.58 11.214 0 15.285-8.146 14.83-13.18l14.969-2.412s4.588 12.678-5.153 21.546c-9.742 8.868-43.51 8.294-50.648 1.554-7.138-6.74-3.177-20.057-3.177-20.057l17.839-3.03Z" fill="#000"/><path d="M155.488 46.465V43.67a.487.487 0 0 1 .341-.463l2.05-.64V39.77a1.263 1.263 0 0 1 1.262-1.263h2.46a.468.468 0 0 1 .476.443v.902a.47.47 0 0 1-.463.467h-3.129v2.735a.484.484 0 0 1-.233.41l-1.747 1.058v1.947l-1.017-.004Z" fill="#999" stroke="#263238" stroke-linecap="round" stroke-linejoin="round"/><path d="M158.186 46.465h-2.698v8.07h2.698v-8.07Z" fill="#263238"/><path d="M161.56 45.78h-3.374v9.439h3.374V45.78Z" fill="#757575"/><path opacity=".2" d="M161.552 51.529h-3.366v3.69h3.366v-3.69Z" fill="#000"/><path d="M161.56 45.78h-3.374v9.439h3.374V45.78Z" stroke="#263238" stroke-linecap="round" stroke-linejoin="round"/><path d="M45.387 54.53h2.698v-8.069h-2.698v8.069Z" fill="#263238"/><path d="M42.013 55.215h3.374v-9.439h-3.374v9.439Z" fill="#757575"/><path opacity=".2" d="M45.39 51.529h-3.373v3.6h3.374v-3.6Z" fill="#000"/><path d="M42.013 55.215h3.374v-9.439h-3.374v9.439Z" stroke="#263238" stroke-linecap="round" stroke-linejoin="round"/><path d="M47.679 50.98a3.28 3.28 0 0 0-.968-3.69l-1.984-1.64a1.2 1.2 0 0 0-1.747.213l-7.868 10.852c-.15.203-.23.45-.23.701v11.657a1.183 1.183 0 0 0 1.198 1.18 1.18 1.18 0 0 0 1.18-1.18v-9.467c.002-.234.075-.462.21-.652l5.883-8.2a.64.64 0 0 1 .935-.115l1.083.918a1.456 1.456 0 0 0 2.308-.578Z" fill="#fff" stroke="#263238" stroke-linecap="round" stroke-linejoin="round"/><path d="M46.055 49.917a.562.562 0 1 0 0-1.123.562.562 0 0 0 0 1.123Z" fill="#999" stroke="#263238" stroke-linecap="round" stroke-linejoin="round"/><path d="M152.987 42.566H50.59v15.859h102.397V42.566Z" fill="#263238"/><path opacity=".2" d="M151.508 43.76H52.029a.566.566 0 0 0-.566.565v2.567c0 .312.254.566.566.566h99.479a.565.565 0 0 0 .565-.566v-2.567a.565.565 0 0 0-.565-.566Z" fill="#fff"/><path d="M143.82 61.615H59.77a44.046 44.046 0 0 1-3.69-17.159h91.446c0 7.946-3.706 17.159-3.706 17.159Z" fill="#fff"/><g opacity=".7" stroke="#263238" stroke-linecap="round" stroke-linejoin="round"><path opacity=".7" d="M66.567 60.327s1.841-.098 2.87-.717c1.03-.62.956.557 1.546.635.59.078 1.984-.41 2.722-.41.739 0 .177.451 1.01.41.831-.04.385.041.82-.04l3.562-.595s1.808-.349 2.173-.172c.365.176.845 1.045 1.378.82.533-.226.25-.41 1.053-.41.497.002.991.074 1.468.213 0 0 .074-.21.443-.213h.66s1.398.369 1.62.369c.22 0 1.873-.365 1.93-.37.058-.003 1.64-.41 1.64-.41a2.66 2.66 0 0 0 1.23.73c.6.078 1.23-.081 1.682.12.45.2 1.935-.083 1.935-.083.354.003.707.03 1.058.082.459.105.937.091 1.39-.04a5.295 5.295 0 0 1 2.541-.042c1.333.242 2.559-.364 3.125-.369.565-.004 2.829.25 3.608.25.779 0 2.841.28 4.276.12 1.435-.16 2.374.2 3.337.2.964 0 1.993-.04 2.214-.04.222 0 1.288-.698 2.813-.53 1.525.169.168-.209 1.107 0 .939.21 1.681.41 2.079.451.319.019.639.005.955-.04l1.64-.12h8.175M64.866 57.162s5.063 0 5.978-.082c.914-.082 1.402-.55 1.89-.55s2.952.468 2.952.468a.82.82 0 0 1 .82-.467c.668 0 .328.061.943.307s.295 0 .619.242a5.74 5.74 0 0 0 1.517.443s2.283.107 2.37-.443c.086-.55 1.23.443 1.23.443s3.1-.443 4.296-.443c1.198 0 4.199-.242 4.199-.242s2.46.324 2.574.324c.115 0 .521.644.96.361.439-.283.86-.607 1.382-.525.483.12.951.296 1.394.525l1.144-.607 1.312.082s1.336.89 2.291.525a20.85 20.85 0 0 0 2.128-.992l1.177.992h.771l2.284-.443a1.377 1.377 0 0 0 1.496.443c.968-.279 10.213 0 12.567 0 2.353 0 2.87-.607 2.87-.607l1.812.607h9.02"/></g><path opacity=".2" d="M144.676 59.245c-.496 1.476-.856 2.37-.856 2.37H59.77s-.41-.861-.972-2.37h85.878ZM146.427 53.038a65.449 65.449 0 0 1-.902 3.493H57.884a48.433 48.433 0 0 1-.886-3.493h89.429Z" fill="#000"/><path d="M143.82 61.615H59.77a44.046 44.046 0 0 1-3.69-17.159h91.446c0 7.946-3.706 17.159-3.706 17.159Z" stroke="#263238" stroke-linecap="round" stroke-linejoin="round"/><path d="M50.57 41.75h-2.505V59.25h2.505V41.75Z" fill="#757575"/><path opacity=".2" d="M50.52 54.059h-2.44v5.19h2.44v-5.19Z" fill="#000"/><path d="M50.57 41.75h-2.505V59.25h2.505V41.75Z" stroke="#263238" stroke-linecap="round" stroke-linejoin="round"/><path d="M155.509 41.75h-2.505V59.25h2.505V41.75Z" fill="#757575"/><path opacity=".2" d="M155.509 54.059h-2.526v5.19h2.526v-5.19Z" fill="#000"/><path d="M155.509 41.75h-2.505V59.25h2.505V41.75Z" stroke="#263238" stroke-linecap="round" stroke-linejoin="round"/><path d="M153.024 41.016V53.78H50.549V41.016h-.984v13.62h104.443v-13.62h-.984Z" fill="#999" stroke="#263238" stroke-linecap="round" stroke-linejoin="round"/><path d="M159.08 62.517v28.622a1.822 1.822 0 0 1-1.82 1.82H46.301a1.82 1.82 0 0 1-1.82-1.82V62.517a1.82 1.82 0 0 1 1.82-1.82h51.127v1.82s-8.728 7.572-23.78 10.365c2.157 9.762 13.94 17.22 28.159 17.22s26.002-7.467 28.163-17.22c-15.072-2.793-23.8-10.365-23.8-10.365V60.68h51.102a1.826 1.826 0 0 1 1.285.543 1.819 1.819 0 0 1 .523 1.294Z" fill="#fff" stroke="#263238" stroke-linecap="round" stroke-linejoin="round"/><path d="M159.08 62.517v28.622a1.816 1.816 0 0 1-1.126 1.683 1.826 1.826 0 0 1-.698.137H46.302a1.821 1.821 0 0 1-1.825-1.82V62.517a1.828 1.828 0 0 1 1.825-1.825h51.127v1.825s-8.733 7.568-23.78 10.365c2.156 9.762 13.94 17.22 28.162 17.22 14.223 0 25.999-7.467 28.159-17.22-15.071-2.797-23.8-10.365-23.8-10.365V60.68h51.102a1.825 1.825 0 0 1 1.808 1.837Z" fill="#fff"/><path opacity=".2" d="M156.62 62.955V89.38a1.342 1.342 0 0 1-.393.945 1.333 1.333 0 0 1-.948.387H47.392a1.327 1.327 0 0 1-1.332-1.332V62.955a1.337 1.337 0 0 1 1.332-1.34h50.02v.902s-8.733 7.568-23.78 10.364c2.157 9.763 13.94 17.22 28.163 17.22s25.998-7.466 28.159-17.22c-15.072-2.796-23.801-10.364-23.801-10.364v-.902h49.139a1.342 1.342 0 0 1 1.328 1.34Z" fill="#fff"/><path d="M159.08 62.517v28.622a1.816 1.816 0 0 1-1.126 1.683 1.826 1.826 0 0 1-.698.137H46.302a1.821 1.821 0 0 1-1.825-1.82V62.517a1.828 1.828 0 0 1 1.825-1.825h51.127v1.825s-8.733 7.568-23.78 10.365c2.156 9.762 13.94 17.22 28.162 17.22 14.223 0 25.999-7.467 28.159-17.22-15.071-2.797-23.8-10.365-23.8-10.365V60.68h51.102a1.825 1.825 0 0 1 1.808 1.837v0Z" stroke="#263238" stroke-linecap="round" stroke-linejoin="round"/><path opacity=".2" d="m122.426 101.442 5.449 15.199s2.357-16.728 3.764-16.728c1.406 0 4.436 9.147 4.436 9.147s1.869-4.772 3.64-4.945c1.772-.172 3.375 11.718 3.375 11.718l.275 26.392-2.235 39.913s-14.256-15.703-18.413-19.749c-4.157-4.047-8.13-12.952-9.278-14.76-1.148-1.808-1.439-11.275-1.439-11.275a10.15 10.15 0 0 0 2.148-6.528s3.346-5.6 3.141-9.733c-.205-4.133-.722-20.192 5.137-18.651Z" fill="#000" fill-opacity=".7"/><path d="m165.316 175.07-21.582 11.353c0-.115-2.838-4.711-6.265-9.91a259.209 259.209 0 0 0-4.809-7.064c-2.6-3.661-5.904-6.822-6.187-7.511-.82-2.05-7.143-9.725-8.557-12.71-1.415-2.985-1.738-12.272-2.362-14.457-.623-2.185 1.165-4.272 2.6-5.289 1.435-1.017 2.939-3.69 2.939-3.69s-1.586-6.183-1.603-9.327c-.016-3.145-1.086-14.121.193-15.146 1.279-1.025 2.423-.594 2.743.111 1.05 2.325 1.993 8.171 2.8 10.865.808 2.694 2.325 10.508 3.071 11.07.746.562 2.075-1.546 2.075-1.546s.127-6.56.41-9.278l-.41-8.61s-.767-5.174 1.017-5.666c2.46-.677 3.357.869 3.636 1.52.279.653 1.427 4.408 1.427 4.408l.066.259v.123l.061.233c.045.173.099.377.156.611.545 2.136 1.595 6.413 1.55 7.466-.062 1.423-.558 9.303.143 10.939l1.091-10.885s-1.759-8.389-1.247-9.598c.513-1.21 2.928.127 3.215.602.287.476 2.632 3.354 3.05 4.453l.41 1.099s.578-2.6 1.935-1.923c1.358.676 1.526 3.981 1.62 5.424.094 1.443 1.078 10.726 1.23 10.742.152.016 1.718 4.838 1.505 8.024-.447 6.818.734 11.89.775 14.506.041 2.615-1.932 8.675-1.932 8.675.07.119 1.358 2.308 1.71 4.231.258 1.411 4.855 6.507 8.61 10.562 2.612 2.796 4.801 5.084 4.916 5.334Z" fill="#fff"/><path opacity=".4" d="M137.473 176.521a256.962 256.962 0 0 0-4.81-7.064c-2.599-3.661-5.904-6.822-6.186-7.511-.82-2.05-7.143-9.725-8.557-12.71-1.415-2.985-1.739-12.271-2.362-14.457-.623-2.185 1.165-4.272 2.6-5.289 1.435-1.016 2.939-3.69 2.939-3.69s-1.586-6.182-1.603-9.327c-.016-3.145-1.086-14.121.193-15.146 1.279-1.025 2.423-.594 2.743.111 1.049 2.325 1.992 8.171 2.8 10.865.808 2.694 2.325 10.508 3.071 11.07.746.562 2.075-1.546 2.075-1.546s.127-6.56.41-9.278l-.41-8.61s-.767-5.174 1.016-5.666c2.46-.677 3.358.87 3.637 1.521.279.652 1.427 4.408 1.427 4.408l.066.258v.123a52.172 52.172 0 0 1 .217.844c-.636-1.004-1.509-1.861-2.677-2.086-3.28-.64-2.571 3.009-2.26 5.198a15.147 15.147 0 0 1-.102 4.367l.82-.472c-.59 1.054-1.435 9.812-1.435 11.759 0 1.948-1.542 2.595-2.923 2.026-1.382-.57-1.874-9.508-2.924-11.111-1.049-1.604-3.968 1.459-4.1 4.259-.131 2.801 2.481 11.152 1.862 13.12-.619 1.968-.611 9.43-.611 9.43l-.755-1.922c.05.262 0 1.143-1.578 3.739a7.725 7.725 0 0 0-.857 6.379c.964 2.128 5.851 7.737 6.671 8.315 0 0 .594-2.435 2.46-1.787a10.766 10.766 0 0 0-1.37 3.28c-.385 1.787 3.506 2.931 4.724 4.633.746 1.037 1.246 4.198 5.789 11.967ZM160.424 169.74c-3.837-3.866-10.59-7.548-10.18-8.512.55-1.295-.147-4.054-1.328-6.293s.41-5.871.41-5.871l.73 2.111c.583-2.435.652-4.966.2-7.429-.746-4.186-1.328-2.714-1.328-2.714s.152-3.772.82-5.83c.668-2.059 1.23-7.056.308-10.013-.923-2.956-2.87-2.398-3.391-1.381-.521 1.017.037 4.981.467 6.281.431 1.3-1.402 3.485-1.439 1.861-.037-1.623-.73-6.15-.73-6.15l1.39-9.089-1.39-7.22s.578-2.6 1.936-1.923c1.357.676 1.525 3.981 1.619 5.424.094 1.443 1.078 10.726 1.23 10.742.152.016 1.718 4.838 1.505 8.024-.447 6.818.734 11.89.775 14.505.041 2.616-1.931 8.676-1.931 8.676.069.119 1.357 2.308 1.709 4.231.259 1.411 4.855 6.507 8.61 10.562l.008.008ZM144.537 108.396c.078.205.144.373.193.508-1.304-3.03-3.526-2.091-3.92-1.23-.393.861.931 6.204 1.23 7.032.3.828-1.189 7.441-1.406 9.631-.217 2.189-.795 2.636-.795 2.636-1.472.111-1.64-3.952-1.64-4.51.028.466.119.927.27 1.369l1.091-10.885s-1.8-8.397-1.288-9.606c.513-1.21 2.928.127 3.215.602.287.476 2.632 3.354 3.05 4.453Z" fill="#fff"/><path d="M165.316 175.07c-.279-.631-13.083-13.53-13.53-15.9-.361-1.976-1.714-4.235-1.714-4.235s1.972-6.048 1.931-8.676c-.041-2.628-1.23-7.687-.775-14.505.213-3.186-1.349-8.008-1.504-8.024-.156-.017-1.14-9.299-1.23-10.742-.091-1.443-.259-4.748-1.62-5.424-1.361-.677-1.935 1.922-1.935 1.922l-.41-1.098c-.41-1.099-2.764-3.977-3.051-4.453-.287-.476-2.697-1.816-3.214-.603-.517 1.214 1.283 9.59 1.283 9.59l-1.082 10.898c-.701-1.64-.205-9.516-.144-10.939.062-1.422-1.865-8.692-1.865-8.692s-1.156-3.739-1.427-4.411c-.27-.673-1.177-2.198-3.637-1.522-1.783.493-1.016 5.667-1.016 5.667l.41 8.61c-.275 2.73-.41 9.278-.41 9.278s-1.329 2.103-2.075 1.546c-.746-.558-2.263-8.368-3.071-11.07-.808-2.702-1.751-8.541-2.8-10.865-.32-.705-1.464-1.136-2.743-.111s-.213 11.997-.193 15.145c.021 3.149 1.603 9.328 1.603 9.328s-1.504 2.657-2.939 3.69-3.223 3.1-2.6 5.289c.623 2.189.947 11.48 2.362 14.457 1.414 2.976 7.72 10.66 8.557 12.71.282.688 3.587 3.849 6.186 7.511 5.105 7.187 11.07 16.81 11.07 16.974" stroke="#263238" stroke-linecap="round" stroke-linejoin="round"/><path d="M121.093 125.804s1.017 5.039.98 5.884c0 0-.89 3.891-.898 6.412a25.855 25.855 0 0 0-1.673 2.965c-.344.91-.959 3.148-.705 4.395" stroke="#263238" stroke-linecap="round" stroke-linejoin="round"/><path d="M119.236 133.25s2.493.02 2.333 1.07M121.175 138.1s-1.599-.693-2.16.238M130.38 121.827s-.115 3.863-1.132 3.555M138.465 123.82s-.295 2.112.5 2.763M144.951 109.495s1.107 5.33 1.361 6.592c.255 1.263-1.258 7.708-1.23 9.385.029 1.677.747 4.076.648 5.203M149.371 149.974s-.357 3.481.713 4.969M127.875 156.862s-2.387 2.173-1.513 4.846M143.557 129.769c.037 1.534-.861 3.321-.955 5.441M135.956 128.4c.508 1.254-.599 3.985-.767 5.01-.067.802.02 1.609.258 2.378M150.244 132.721c-.205 1.333-1.148 2.284-1.328 6.384M126.964 128.01c.689.751.226 4.334.41 4.92M139.81 107.367s2.345-1.718 4.362.307M131.733 103.418s.41-.684 2.39-.516c1.981.168 2.333 1.283 2.333 1.283" stroke="#263238" stroke-linecap="round" stroke-linejoin="round"/><path d="M125.948 115.124s-.665-.98-2.415-.656c-1.751.324-2.53 2.8-2.53 2.8" fill="#fff"/><path d="M125.948 115.124s-.665-.98-2.415-.656c-1.751.324-2.53 2.8-2.53 2.8M149.736 123.738s-1.46-2.116-3.215-1.21" stroke="#263238" stroke-linecap="round" stroke-linejoin="round"/><path opacity=".2" d="M87.555 108.24c2.46 1.906.386 13.608.386 13.608l.217 3.809 4.22-1.837 1.922 8.138s-.05 2.981 1.513 4.1c0 0 .385 6.688 0 11.575-.386 4.887-8.2 10.631-10.894 15.76-2.694 5.129-20.262 20.205-20.262 20.205l-14.875-7.077 10.755-43.435L70.17 120.7l5.712-14.248s.98 9.307.41 15.58l11.262-13.792Z" fill="#000" fill-opacity=".7"/><path d="M91.696 134.234c-.373 1.796.525 11.64.37 12.968-.156 1.329-7.987 10.25-8.381 10.927-.394.676-5.63 3.69-6.847 5.129-5.69 6.638-8.799 12.751-11.295 18.88-.48 1.181-.94 2.366-1.39 3.555l-22.583-13.12c1.898-2.353 3.69-4.444 5.33-6.347 3.28-3.858 5.892-6.945 7.17-9.86.393-.744.843-1.457 1.346-2.132.508-.722.963-1.316.963-1.316s-1.64-4.621-1.259-6.072c.382-1.452-.471-13.383-.471-13.383s-1.111-8.122-2.206-10.172a3.377 3.377 0 0 1-.353-1.73c.054-1.874 1.14-4.235 1.673-6.97.714-3.69.37-5.515 2.608-4.239 2.238 1.275 1.193 9.02 1.193 9.02l3.382 7.494c.89-1.812 0-7.101-.045-8.351 0-.205 0-.546-.033-.988-.07-2.157-.213-6.647-.028-8.418 0-.098 0-.188.033-.27.274-1.829 1.254-7.647 1.877-8.295.927-.96 2.399-1.767 3.785.41.775 1.23.443 10.984.443 10.984s3.214-3.878 4.19-4.825c.975-.948 3.936-2.678 4.727-.673.791 2.005-2.128 8.2-2.128 8.2.611 1.435.685 5.408.685 5.408s1.382 4.965 2.23 4.92h.037c.246-.053.517-.955.8-2.222.697-3.104 1.455-8.413 2.05-8.877l.41-.328a.32.32 0 0 1 .065-.061l.152-.135c1.451-1.292 4.51-4.162 4.51-4.162s.217-1.373 2.894-.951c2.678.422-1.188 8.323-1.188 8.323-.538 2.513-1.362 8.979-1.362 8.979-.25 2.689-.102 9.918-.102 9.918s1.267-4.207 1.185-5.74c-.082-1.534 2.517-5.289 3.28-6.257.762-.967 4.165-.627 3.218 1.23-.947 1.857-.561 7.745-.935 9.549Z" fill="#fff"/><path opacity=".4" d="M54.059 156.382c.392-.744.842-1.457 1.344-2.132 0 0-1.332 3.69-1.463 5.654-.086 1.296-3.498 3.538-7.052 6.339 3.3-3.858 5.891-6.946 7.17-9.861ZM55.404 154.25c.508-.721.963-1.316.963-1.316s-1.64-4.621-1.258-6.072c.38-1.451-.472-13.382-.472-13.382s-1.111-8.123-2.206-10.173l2.55 4.457s-.25 3.522.476 5.453c.726 1.931 1.64 7.823 1.64 7.823s-1.074 4.953-.71 6.736c.366 1.784 2.01 1.136 2.01 1.136s.807 3.264-2.993 5.338ZM61.352 120.7c1.76 10.299-1.27 7.45-2.365 5.227-1.095-2.222-3.666-6.428-5.601-5.531a3.036 3.036 0 0 0-1.308 1.181c.053-1.873 1.14-4.235 1.673-6.97.713-3.69.369-5.514 2.608-4.239 2.238 1.275 1.193 9.02 1.193 9.02l3.382 7.495c.89-1.813 0-7.102-.045-8.352 0-.205 0-.545-.033-.988.136.947.3 2.001.496 3.157ZM65.657 110.524s-1.898-2.485-3.546-2.358a1.452 1.452 0 0 0-1.283.947c0-.098 0-.188.032-.27.275-1.829 1.255-7.647 1.878-8.295.927-.959 2.399-1.767 3.784.41.775 1.23.443 10.984.443 10.984s3.215-3.878 4.19-4.825c.976-.948 3.936-2.678 4.728-.673.791 2.005-2.128 8.2-2.128 8.2.61 1.435.685 5.408.685 5.408s1.381 4.965 2.23 4.92c-1.87 3.518-3.116-4.26-3.116-4.26.279-1.607-.713-5.092-.615-6.01.098-.919-1.722-4.166-4.789-3.28-3.067.885-.853 13.005-.853 13.005a6.772 6.772 0 0 0-1.025 3.206c-.947-1.169 0-4.51 0-4.51-.84-3.198-.615-12.599-.615-12.599ZM79.95 113.529c-1.308 1.373-1.127 4.846-2.46 9.204.697-3.103 1.456-8.413 2.05-8.876l.41-.328ZM91.697 134.234c-.373 1.796.525 11.64.369 12.968-.156 1.329-7.987 10.25-8.38 10.927-.394.676-5.63 3.69-6.848 5.129-5.69 6.638-8.798 12.751-11.295 18.88a80.796 80.796 0 0 1 3.399-9.331c2.694-6.056 3.792-7.134 5.408-8.864 1.615-1.731 1.439-5.408 1.439-5.408a15.503 15.503 0 0 1 3.64-.431c2.05 0 8.119-8.651 10.206-10.168 2.087-1.517 2.46-1.517 0-4.862-2.46-3.346-1.763.537-2.501.41-.738-.127-1.14 1.488-1.14 1.488-.258-3.411-2.46-7.38-2.924-8.372-.463-.992 1.124-6.81.796-8.43-.328-1.619 1.41-11.48 1.41-11.48s-.217-3.784-3.645-3.796a2.241 2.241 0 0 0-1.467.442c1.451-1.291 4.51-4.161 4.51-4.161s.217-1.374 2.894-.951c2.678.422-1.189 8.323-1.189 8.323-.537 2.513-1.361 8.979-1.361 8.979-.25 2.689-.103 9.918-.103 9.918s1.267-4.207 1.185-5.74c-.082-1.534 2.518-5.289 3.28-6.257.763-.968 4.166-.627 3.219 1.23-.947 1.857-.529 7.753-.902 9.557Z" fill="#fff"/><path d="M64.149 185.73c2.784-7.351 5.895-14.526 12.69-22.452 1.23-1.418 6.448-4.432 6.846-5.129.398-.697 8.229-9.602 8.38-10.926.152-1.324-.742-11.173-.368-12.968.373-1.796-.062-7.717.881-9.562.943-1.845-2.46-2.181-3.218-1.23-.759.952-3.35 4.74-3.28 6.257.07 1.517-1.185 5.74-1.185 5.74s-.148-7.228.102-9.918c0 0 .82-6.466 1.361-8.979 0 0 3.863-7.905 1.19-8.323-2.674-.418-2.895.951-2.895.951s-4.268 4.01-5.113 4.666c-.845.656-1.997 10.906-2.845 11.099-.849.192-2.268-4.92-2.268-4.92s-.073-3.973-.684-5.408c0 0 2.915-6.179 2.128-8.2-.788-2.022-3.748-.271-4.728.672-.98.943-4.19 4.826-4.19 4.826s.332-9.762-.443-10.984c-1.386-2.185-2.87-1.378-3.784-.41-.623.648-1.603 6.466-1.878 8.294-.274 1.829 0 8.422.029 9.676.029 1.255.935 6.54.045 8.352l-3.383-7.495s1.05-7.753-1.193-9.02c-2.242-1.267-1.894.562-2.607 4.24-.714 3.677-2.411 6.666-1.32 8.72 1.09 2.054 2.205 10.172 2.205 10.172s.845 11.931.472 13.383c-.373 1.451 1.27 6.076 1.27 6.076s-1.893 2.497-2.307 3.448c-1.911 4.342-6.745 9.09-12.493 16.232" stroke="#263238" stroke-linecap="round" stroke-linejoin="round"/><path d="M66.966 111.951a4.024 4.024 0 0 0-.69 2.39c0 1.558 1.022 10.086 1.022 10.086s-.743.877-.78 1.64M84.903 135.439a12.02 12.02 0 0 0 1.094 4.158c.96 1.894.648 2.939.32 4.059-.22.981-.336 1.983-.348 2.989M61.295 125.185s.713 2.264-.61 3.338M76.707 124.956s.14.889-1.12.971M85.161 114.706s-3.157-3.444-5.609-.849" stroke="#263238" stroke-linecap="round" stroke-linejoin="round"/><path d="M72.37 112.77s-1.456-1.84-2.72-1.73c-1.262.111-2.968.882-3.16 1.894M86.588 142.549a7.25 7.25 0 0 1 1.095 2.407M78.388 128.551c-.98 1.825-.513 4.92-.873 5.769M68.007 125.521c.23 1.05-.496 2.76-.607 4.018-.11 1.259.918 3.203.73 4.97M61.352 129.818s-.856 1.976-.82 3.28c.037 1.304.5 4.162.5 4.162M55.05 129.724s-.31 2.05.41 3.493c.722 1.443 1.423 4.51 1.423 4.51M56.367 152.93a1.96 1.96 0 0 0 1.422-1.677M76.978 159.178s.783 2.899-.718 4.765M52.099 121.233s2.205-2.153 3.874-.336M60.86 108.843s1.64-1.718 3.56.119" stroke="#263238" stroke-linecap="round" stroke-linejoin="round"/></svg>